<svg width="36" height="24" viewBox="0 0 36 24" fill="none" xmlns="http://www.w3.org/2000/svg">
<path d="M35.8259 11.7315C35.7639 11.1311 35.9507 10.6979 35.5655 10.2151C35.4915 10.1241 35.1149 9.96944 35.0426 9.87843C34.8597 9.64459 34.697 9.07073 34.5201 8.86806C33.9581 8.22089 33.3353 8.76189 32.7758 8.52636C32.6243 8.46147 32.0743 7.60405 31.9048 7.51262C31.4456 7.27035 30.8577 7.13258 30.3356 6.83427C30.1841 6.74621 29.7865 5.5652 29.6393 5.48557C29.2455 5.2749 28.5018 5.66464 28.0693 5.48051C27.8279 5.37939 27.0919 4.23462 26.8501 4.1335C25.8839 3.72564 24.8574 3.51792 23.8865 3.1147C22.9152 2.70811 21.856 1.6632 20.923 1.08596C20.5034 0.827262 20.0493 0.147224 19.8776 0.0739114C19.6637 -0.0158335 18.1411 -0.0305803 17.9595 0.06717C17.7421 0.181774 17.7197 0.84538 17.6974 0.908159C17.5863 1.20857 17.1999 1.72092 17.1727 1.91516C17.1116 2.34155 17.2106 3.08479 17.171 3.59713C17.1616 3.72143 17.0092 3.80275 16.9963 3.9321C16.9343 4.58391 17.1022 5.82769 17.2274 6.8389C16.9214 6.81067 16.6098 6.80772 16.4222 6.86418C15.9083 7.01924 15.4818 6.84691 15.0054 6.7677C14.6185 6.70408 14.5862 6.87977 14.3319 6.99522C14.2604 7.02808 13.1587 6.79761 12.9827 6.78834C11.8779 6.72809 10.8549 6.97668 9.74626 6.93033C9.13858 6.90463 8.0364 6.97752 7.52082 6.84227C6.65319 6.61433 5.61772 6.98764 4.68855 6.87008C4.10324 6.79593 3.25843 6.75801 2.73294 6.88989C2.28321 7.00154 1.41601 6.95182 0.979612 6.79635C0.952499 6.7875 0.933132 6.64677 0.844476 6.68806C0.817362 6.69944 0.80316 6.78876 0.777338 6.79846C0.681365 6.83511 0.541925 6.77107 0.440358 6.80183C0.415826 6.80899 0.401194 6.89747 0.37322 6.91306C0.293171 6.95561 0.22216 6.86123 0.137807 7.08117C0.1292 7.10224 0.148136 7.15575 0.137807 7.19114C0.124465 7.23917 0.0762639 7.26319 0.0706691 7.30153C0.0461379 7.48355 0.0878839 7.75868 0.0728209 7.9643C0.0702387 8.00474 0.0104172 8.03255 0.00568309 8.07469C-0.0459614 8.55333 0.272943 9.19123 0.213552 9.61762C0.122314 10.2758 0.258741 10.4266 0.217856 10.8319C0.146414 11.5419 0.178692 12.0424 0.224742 12.7094C0.25788 13.1842 0.120592 13.7391 0.161908 14.0353C0.250134 14.6627 0.137807 15.8593 0.103808 16.5752C0.0943395 16.7808 0.080998 17.4157 0.107681 17.5687C0.111985 17.5952 0.328892 17.9454 0.344815 17.9525C0.448535 17.9984 0.630151 17.915 0.749794 17.9483C0.768731 17.9538 0.821236 18.1236 0.952499 18.0566C1.25935 17.9007 1.2331 17.8164 1.55889 17.9399C1.90061 18.0701 2.2604 18.0073 2.57026 17.9302C3.01225 17.819 3.38108 18.0507 3.85148 17.9171C3.89279 17.9057 4.48842 17.7836 4.52544 17.8008C5.36251 18.1695 6.64717 17.7056 7.56041 17.8809C7.90342 17.9466 8.13194 17.8101 8.36951 17.8729C8.96729 18.0296 11.1949 17.9959 11.6063 17.8413C12.0698 17.6664 12.7756 18.0199 13.2925 17.9357C13.7238 17.8645 14.3319 17.7869 14.7089 17.9213C14.9499 18.0069 16.3296 17.8413 16.596 17.7916C16.7747 17.7587 16.9868 17.7604 17.1938 17.7793C17.2252 18.9132 17.261 20.0343 17.3285 21.0856C17.3742 21.7955 17.1822 23.3932 17.5881 23.6123C17.7335 23.6903 17.9552 23.5428 18.1114 23.6123C18.1802 23.6439 18.2207 23.9309 18.2853 23.9507C18.4802 24.0055 18.9816 24.0253 19.1572 23.954C19.3018 23.8942 19.8836 23.0086 20.03 22.9471C20.2353 22.8607 20.5404 23.0482 20.728 22.9504C20.8503 22.8843 21.1287 22.0083 21.2518 21.9417C21.6852 21.713 22.1823 21.9599 22.8218 21.6118C23.8129 21.0692 24.7856 20.4919 25.7879 19.9379C25.9377 19.8565 26.3392 18.6738 26.4868 18.5959C26.8032 18.4282 27.2451 18.4847 27.7078 18.2639C28.51 17.8826 29.2528 17.3201 29.9758 16.9253C30.4196 16.6847 30.9825 16.0097 31.1977 15.92C31.4494 15.8172 31.8389 16.0443 32.0696 15.925C32.1255 15.8951 32.5761 14.9977 32.7677 14.918C33.1752 14.7504 33.4984 14.8186 33.9886 14.5848C34.4857 14.3476 35.1554 14.0754 35.5586 13.5811C35.7092 13.3953 36.0385 12.3551 35.9963 12.0681C35.9782 11.932 35.8375 11.8575 35.8237 11.7315H35.8259Z" fill="black"/>
</svg>
