<svg width="225" height="225" viewBox="0 0 225 225" fill="none" xmlns="http://www.w3.org/2000/svg">
<path fill-rule="evenodd" clip-rule="evenodd" d="M107.777 0.0596411C125.62 -0.495646 142.689 2.82656 158.983 10.0262C181.65 20.5979 199.1 36.7732 211.333 58.5522C213.59 62.9291 215.66 67.395 217.544 71.9499C218.618 75.0619 219.67 78.1843 220.703 81.3174C221.177 83.3581 221.686 85.3913 222.228 87.4172C225.732 103.317 225.914 119.256 222.773 135.235C222.082 138.069 221.393 140.901 220.703 143.731C213.29 168.324 199.326 188.24 178.812 203.476C161.942 215.601 143.094 222.644 122.268 224.608C105.38 225.977 89.0381 223.761 73.2405 217.963C71.5202 217.213 69.777 216.522 68.0109 215.894C45.5576 205.937 27.9983 190.415 15.334 169.329C11.326 162.256 8.02124 154.849 5.41964 147.108C1.36444 134.317 -0.415022 121.21 0.0811324 107.786C0.782874 92.7269 4.30552 78.3852 10.6492 64.7609C19.8238 45.5664 33.279 30.081 51.0148 18.3045C52.6665 17.3156 54.3008 16.2989 55.9176 15.2546C56.1235 15.1486 56.3414 15.076 56.5713 15.0368C57.9157 14.183 59.2961 13.3842 60.7113 12.6404C67.7592 9.06858 75.0948 6.20027 82.719 4.03539C90.9501 1.85112 99.3033 0.525871 107.777 0.0596411ZM111.155 47.3329C136.668 47.298 159.803 54.6141 180.555 69.2812C196.227 80.7349 208.392 95.1129 217.053 112.415C208.129 130.563 195.346 145.45 178.703 157.074C164.834 166.554 149.581 172.836 132.945 175.918C113.779 179.196 94.8592 177.853 76.1821 171.888C57.6259 165.623 41.5929 155.474 28.0811 141.444C26.8478 139.921 25.5404 138.469 24.1589 137.087C20.9928 133.258 18.0152 129.3 15.2251 125.214C14.1454 123.372 13.0199 121.556 11.8476 119.768C10.8237 117.829 9.77052 115.905 8.68811 113.995C8.48786 113.483 8.28816 112.974 8.08889 112.47C8.313 112.06 8.47642 111.625 8.57916 111.163C11.4663 105.821 14.6258 100.666 18.0577 95.6955C19.1527 94.3468 20.2062 92.967 21.2173 91.5563C22.4931 90.0995 23.7274 88.6108 24.9215 87.0904C42.8088 67.0605 65.0159 54.4434 91.5439 49.2391C98.0536 48.1506 104.591 47.5153 111.155 47.3329Z" fill="black"/>
<path fill-rule="evenodd" clip-rule="evenodd" d="M110.065 52.8881C119.858 52.6132 129.191 54.5193 138.065 58.6066C142.07 60.5802 145.846 62.904 149.396 65.5778C150.488 66.5595 151.613 67.5036 152.773 68.4098C154.651 70.2136 156.448 72.0834 158.166 74.0195C169.544 88.0712 173.975 104.12 171.458 122.164C169.324 134.104 164.203 144.488 156.096 153.317C154.916 154.351 153.808 155.459 152.773 156.639C151.211 157.91 149.65 159.181 148.089 160.451C144.709 162.831 141.151 164.938 137.411 166.769C122.431 173.324 107.287 173.904 91.9797 168.512C76.3466 162.467 64.9974 151.847 57.9331 136.651C51.1805 120.567 51.1805 104.482 57.9331 88.3975C64.9516 73.3202 76.1908 62.7364 91.6529 56.646C97.6287 54.5382 103.766 53.2856 110.065 52.8881Z" fill="black"/>
</svg>
