<svg width="448" height="68" viewBox="0 0 448 68" fill="none" xmlns="http://www.w3.org/2000/svg">
<path d="M49.747 8.62616C49.809 8.68807 50.4118 8.56997 50.6168 8.62807C50.6531 8.63855 51.1509 8.9814 51.1967 9.01473C51.6745 9.36235 52.3469 10.3795 52.6435 10.849C52.8657 11.1995 53.7737 11.4642 53.9959 11.8147C54.1933 12.1271 54.736 13.3623 55.0565 13.4557C55.1833 13.4928 55.3444 13.4118 55.4436 13.4566C55.5771 13.5166 56.0912 13.8376 56.1189 13.9395C56.2238 14.3271 56.035 15.0699 56.5996 15.3861C57.2376 15.7442 57.6076 16.7499 57.8527 17.6042C57.8833 17.7128 58.4345 18.1528 58.6243 18.569C59.0001 19.3956 59.1537 20.4661 59.5867 21.2699C60.1007 22.2242 59.9366 22.607 60.1627 23.5832C60.197 23.7366 60.5299 24.4289 60.547 24.547C60.5947 24.8718 60.6129 26.4194 60.5433 26.667C60.342 27.3918 59.0602 27.0499 58.5127 27.1451C57.9977 27.2356 58.0407 27.3146 57.3521 27.1432C55.313 26.6365 52.8133 26.5975 50.5844 26.7461C48.9821 26.8527 47.3322 26.7575 45.749 27.1232C45.3332 27.2203 45.193 26.987 44.5883 27.1213C43.8473 27.2851 43.1415 26.9403 42.4615 26.9242C42.2584 26.5765 41.7834 26.5489 41.5926 26.248C41.5678 26.2099 41.6213 26.1165 41.5936 26.0556C41.5564 25.9756 41.4305 25.9384 41.4 25.8623C41.2798 25.5604 41.2875 24.9908 41.2083 24.7051C41.1787 24.5994 40.8516 24.4251 40.8221 24.3194C40.7648 24.1118 40.8735 23.7746 40.823 23.548C40.7219 23.0899 39.9427 22.2604 39.6661 21.8118C39.1769 21.0175 39.4954 20.9861 38.6046 20.3642C38.2565 20.1213 36.9814 18.8509 36.8669 18.8194C36.659 18.7623 36.3214 18.868 36.0935 18.8185C35.7368 18.7413 34.454 17.7709 34.1612 17.8509C33.0625 18.1528 32.0554 17.3147 30.6811 17.4594C30.6105 17.4671 30.5571 17.6461 30.4875 17.6518C29.8246 17.7052 28.9643 17.5423 28.3597 17.648C28.2872 17.6614 28.2433 17.8223 28.1661 17.8404C27.92 17.9004 27.4012 17.9509 27.199 18.0318C26.9072 18.1471 26.6601 18.4671 26.4246 18.609C25.4069 19.2156 24.541 19.7861 23.8114 20.629C22.8757 21.708 22.3292 21.5585 21.8724 23.1318C21.8276 23.2861 21.2315 23.6775 21.097 23.9013C20.8472 24.3185 20.9854 24.6756 20.9015 25.0575C20.83 25.387 20.2587 26.3546 20.1252 26.7908C19.8896 27.5556 20.0689 28.268 19.9278 28.9108C19.9134 28.9765 19.5549 29.4232 19.5406 29.4889C19.387 30.186 19.3946 31.8679 19.5358 32.3803C19.5978 32.6089 19.1781 33.007 19.1476 33.1498C18.9731 33.9479 19.4099 37.0422 19.5262 37.9698C19.6722 39.1346 19.6674 40.5241 19.9068 41.6326C19.9869 42.0022 20.7909 43.0002 20.871 43.3698C20.9196 43.5964 20.8128 43.9336 20.87 44.1412C20.9082 44.2793 21.7932 45.3479 21.8352 45.4917C22.3559 47.3126 23.8504 49.1631 25.4041 50.2202C25.9887 50.6173 25.7846 50.445 26.3702 50.6069C26.5333 50.6526 26.9758 51.3316 27.1427 51.3792C27.8189 51.5735 28.6134 51.5888 29.2695 51.7688C29.3544 51.7916 29.776 52.1402 29.8484 52.1554C30.4293 52.2821 31.7216 52.2402 32.1689 52.1592C32.806 52.044 33.2723 52.4697 33.9085 52.3545C34.5608 52.2373 35.0844 51.7945 35.6509 51.5859C36.5055 51.2726 37.3162 51.4335 38.1669 50.8193C38.6113 50.4993 38.8011 50.0316 39.0386 49.7602C39.6499 49.0621 40.3776 48.8926 40.782 48.0288C40.9985 47.5669 41.3523 46.9764 41.5583 46.4878C41.8874 45.7079 41.7824 44.9688 41.9493 44.3679C41.9789 44.2621 42.307 44.0898 42.3366 43.9831C42.3957 43.7736 42.2793 43.4222 42.3375 43.2117C42.3823 43.0507 43.0652 42.5726 43.2092 42.346L48.2373 42.3545C48.4948 42.7983 49.1071 42.2145 49.398 42.1641C50.4118 41.986 51.6221 42.7393 52.2983 42.5545C52.5376 42.4898 52.5853 42.0107 53.4589 42.1707C54.4203 42.3479 55.5466 42.2812 56.5528 42.1755C57.2443 42.1031 59.8375 42.0555 60.4202 42.1822C60.4812 42.1955 61.0706 42.5755 61.0964 42.665C61.1307 42.786 61.0592 42.9364 61.0964 43.0507C61.1212 43.1307 61.2766 43.1736 61.289 43.2441C61.3425 43.5479 61.3224 44.2631 61.2871 44.5936C61.2795 44.6641 61.1021 44.7145 61.0926 44.786C61.0125 45.405 61.0964 45.904 60.8961 46.5202C60.7063 47.1059 60.8179 46.7612 60.8951 47.0983C61.0163 47.6269 59.7774 50.4945 59.5342 51.3364C59.5208 51.384 59.0535 51.8821 58.9524 52.1059C58.3525 53.4402 57.3826 54.9211 56.6253 56.1497C56.1923 56.8506 56.1981 57.2621 55.5591 57.5925C54.8314 57.9697 55.1461 58.324 54.591 58.5544C53.5553 58.9849 52.9516 60.3554 52.0722 61.0563C51.5295 61.4887 50.6721 61.8087 50.1362 62.2097C49.0956 62.9868 49.5067 63.1173 48.0065 63.5554C47.8615 63.5982 46.7924 64.6687 46.6512 64.7096C45.8291 64.943 45.3074 64.9458 44.5225 65.4773C43.6432 66.0725 43.2397 65.7411 42.3947 66.0515C41.9083 66.2296 40.6323 66.9334 40.266 67.0115C39.7081 67.1306 39.2245 67.0287 38.5255 67.2011C35.6986 67.8972 32.4388 67.8982 29.4364 67.5706C28.3339 67.4506 27.1408 67.7772 25.9553 67.5649C25.3335 67.4534 24.1385 66.7068 23.6368 66.5973C22.129 66.2687 21.7761 66.7953 20.1567 65.8201C19.531 65.443 17.1286 64.8192 16.9683 64.6582C16.8644 64.5544 17.203 64.5649 16.6794 64.2725C15.636 63.6906 15.4729 63.3058 14.1682 62.9192C13.9984 62.8697 13.4653 62.1278 13.203 61.9535C12.7414 61.6468 12.1616 61.6611 11.7543 61.084C11.3938 60.5735 9.08004 58.2592 8.56885 57.8973C7.49876 57.1411 7.61132 55.9783 6.83308 55.3887C5.12209 54.0935 4.50598 52.5516 3.65049 50.6602C3.0525 49.3374 2.69009 48.4174 2.30287 46.9964C2.24946 46.7983 1.77928 46.2298 1.72396 46.0317C1.39207 44.8117 1.24899 43.5507 0.957152 42.3679C0.627162 41.0298 0.145535 40.6831 0.575666 39.2831C0.700605 38.8774 0.238054 38.5384 0.190368 38.3184C-0.228319 36.3679 0.136933 32.8098 0.396347 30.8013C0.662438 28.7384 0.486018 27.0365 1.18033 25.0194C1.55706 23.9251 1.95951 22.8089 2.34577 21.7451C2.77114 20.5718 3.619 19.1013 4.28661 17.8937C5.00477 16.5947 5.97377 15.1985 6.80828 13.8509C7.39101 12.908 8.27701 12.4347 8.93889 11.5414C10.0776 10.0033 11.9975 8.34902 13.6837 7.40522C14.4209 6.99284 15.0866 6.48618 15.8134 6.05951C16.7747 5.49475 18.0432 5.09095 19.1037 4.52333C19.8267 4.13667 20.6469 3.88048 21.4261 3.56334C22.9988 2.92239 24.2453 2.89286 25.8752 2.60715C28.291 2.18335 34.8622 2.19192 37.2847 2.62715C37.3533 2.63953 37.9895 3.00144 38.0572 3.01382C38.555 3.10239 39.3667 2.89763 39.7977 3.01667C39.8607 3.03382 40.3442 3.53477 40.5693 3.59667C41.9636 3.97857 43.8339 4.59476 45.0146 5.33856C45.5583 5.68142 46.2955 5.83666 46.7533 6.11285C47.4152 6.51094 47.7585 6.93189 48.491 7.27189C48.8219 7.42522 49.5544 7.98902 49.7461 8.33378C49.7985 8.42902 49.7108 8.58997 49.747 8.62616Z" fill="black"/>
<path d="M89.1175 64.637C89.0517 64.6218 88.6043 64.2646 88.5385 64.2504C87.973 64.1275 87.2891 64.2246 86.6063 64.0542C86.1494 63.9399 85.8452 63.9465 85.4456 63.8589C85.191 63.8037 84.4232 63.2294 84.0933 63.0856C83.3951 62.7818 82.5434 62.537 81.7738 62.3104C81.7127 62.2923 81.2368 61.8247 81.0003 61.7313C79.11 60.9751 78.2059 60.4742 76.5569 59.4113C75.462 58.7056 74.2565 57.979 73.5632 56.9971C72.989 56.1847 70.4779 53.6999 69.6062 53.04C68.9262 52.5257 68.6668 51.1933 68.1603 50.4352C68.0421 50.259 67.6119 49.9714 67.5814 49.8562C67.2438 48.6247 67.1828 49.2819 66.8098 48.6981C66.4226 48.0924 65.8905 46.3229 65.6549 45.6124C65.4737 45.0667 64.9272 44.2686 64.8842 44.0695C64.8356 43.8438 64.9338 43.5248 64.8862 43.2981C64.8718 43.2324 64.5142 42.7857 64.5009 42.72C64.4026 42.2629 64.4188 41.7257 64.3101 41.1781C64.0488 39.8677 64.0402 38.3534 63.737 37.1305C63.3059 35.3915 63.0684 34.4315 63.551 32.6982C63.6006 32.5201 63.1161 31.7192 63.1657 31.5411C63.55 30.1601 63.2925 29.1696 63.5595 27.6877C63.6635 27.1087 63.6511 26.4335 63.756 25.9535C63.7693 25.8878 64.1289 25.4421 64.1432 25.3763C64.2681 24.8068 64.211 23.8849 64.3407 23.2573C64.4866 22.5525 65.1971 21.3897 65.3125 20.7535C65.4689 19.8878 65.221 20.0973 65.7016 19.2126C66.6248 17.5135 67.0769 16.0993 68.2242 14.3993C68.3529 14.2078 68.4836 13.6298 68.6124 13.4374C69.7263 11.7755 71.5165 10.3755 72.4874 9.01169C73.1683 8.05646 73.9723 7.64599 74.9079 6.99266C76.698 5.74314 78.4634 4.08982 80.5216 3.53459C81.6079 3.24126 82.84 2.38317 84.0055 1.99841C84.5529 1.81841 85.355 1.2727 85.5543 1.2308C86.1275 1.10889 87.0546 1.17556 87.6821 1.04127C87.747 1.02699 88.1961 0.671751 88.262 0.656513C89.7793 0.332706 91.8422 0.0631839 93.291 0.279373C94.3734 0.442229 94.8627 -0.238718 95.9986 0.0917556C96.3391 0.190803 98.4935 0.529848 98.7053 0.481277C99.3624 0.32985 99.3471 0.130803 100.06 0.290801C100.739 0.443181 101.886 0.146041 102.574 0.295563C102.646 0.310801 103.068 0.658418 103.153 0.682227C104.358 1.01175 105.779 0.982226 107.02 1.26699C107.777 1.44127 108.998 2.22888 109.725 2.62126C110.192 2.87364 110.761 3.12602 111.271 3.39459C112.109 3.83649 112.2 3.75173 113.01 3.97554C113.174 4.0203 113.616 4.69934 113.783 4.74791C115.128 5.13553 115.486 5.52981 116.681 6.29457C117.451 6.78695 120.032 8.66217 120.446 9.28883C121.296 10.5707 122.319 11.3222 123.148 12.5698C123.277 12.764 123.404 13.3402 123.534 13.5345C124.211 14.5526 124.846 14.8678 125.463 16.2355C126.074 17.5907 126.579 18.3354 127.003 19.9002C127.137 20.3897 128.114 21.5402 127.966 22.0211C127.756 22.704 127.797 23.564 127.963 24.3335C127.997 24.4944 128.506 25.1363 128.541 25.2982C128.638 25.7478 128.598 26.1049 128.732 26.6478C129.355 29.1592 128.602 32.0563 129.299 34.3563C129.413 34.7344 129.12 34.8629 129.105 34.9344C128.647 36.8905 128.882 39.001 128.128 40.9058C127.876 41.541 128.198 41.4286 128.126 41.6762C127.63 43.3772 127.003 44.98 126.377 46.6838C125.997 47.7152 125.097 48.7647 124.63 49.7638C124.42 50.2143 124.374 50.4609 124.241 50.919C124.198 51.0666 122.286 52.7628 122.111 53.0352C121.583 53.8533 121.878 53.7657 121.044 54.478C120.245 55.1618 119.353 56.4314 118.72 56.7866C117.917 57.2371 117.873 57.8123 117.364 58.1333C116.27 58.8209 115.365 59.579 114.266 60.2475C113.848 60.5018 113.602 60.8351 113.298 61.017C112.997 61.1961 112.438 61.2208 112.137 61.4008C111.252 61.9304 110.207 62.5208 109.234 62.7446C108.437 62.9285 107.832 63.178 107.106 63.5123C106.191 63.9323 105.543 63.8656 104.591 64.0856C104.323 64.1475 103.687 64.4189 103.43 64.4694C101.766 64.7923 98.8121 64.4389 97.5303 65.038C97.3204 65.1361 93.0992 65.1284 92.8894 65.0303C91.9242 64.5742 90.1961 64.8713 89.1175 64.637ZM103.167 47.799C103.381 47.4171 104.011 47.2562 104.328 46.8371C104.697 46.3524 106.585 44.3791 106.654 44.1438C106.971 43.0505 107.413 42.2686 107.819 41.2553C108.044 40.6934 107.915 40.5505 108.014 40.0991C108.029 40.0334 108.387 39.5877 108.402 39.522C108.546 38.862 108.641 38.0877 108.792 37.4029C109.089 36.0496 109.481 33.462 109.188 32.2001C109.087 31.7696 109.485 31.1534 109.384 30.4658C109.171 29.0268 109.102 27.4573 108.812 26.0325C108.775 25.8468 108.53 25.204 108.427 24.8754C108.328 24.5602 107.893 23.7344 107.85 23.5249C107.789 23.2459 107.911 22.8411 107.851 22.5611C107.814 22.3897 106.169 20.0183 105.922 19.6678C105.675 19.3183 104.585 18.0278 104.281 17.8345C103.357 17.2431 102.642 16.4993 101.771 16.0955C101.425 15.9355 100.218 15.1688 100.032 15.1288C99.8058 15.0793 99.4845 15.1764 99.2584 15.1278C99.1926 15.1136 98.7443 14.7564 98.6785 14.7412C98.1139 14.6183 97.1936 14.8069 96.5517 14.7374C96.3381 14.7145 95.968 14.4421 95.3929 14.5431C94.9685 14.6183 93.9929 14.9859 93.4578 15.1183C92.7569 15.2907 91.8231 15.7793 91.3301 15.8859C91.1031 15.9345 90.7807 15.8345 90.5566 15.885C90.4374 15.9107 88.777 17.2221 88.7159 17.3269C88.5462 17.6231 88.8151 17.4802 88.2324 17.8078C87.9625 17.9592 86.5758 19.3078 86.3926 19.6354C86.0998 20.1573 86.1094 19.8202 86.0055 19.924C85.8605 20.0669 85.5086 21.4564 85.4227 21.7535C85.3588 21.9735 84.3183 23.0792 84.2592 23.2925C84.0655 23.9925 84.0312 25.2135 83.8682 25.9897C83.7194 26.6935 83.0337 26.9859 83.2835 28.1087C83.2998 28.183 83.4552 28.2249 83.4762 28.302C83.5458 28.5535 82.944 29.2316 82.8944 29.4573C82.7132 30.2811 82.9945 30.9534 82.8906 31.7696C82.7179 33.1287 82.6054 34.0306 82.8839 35.4315C83.0909 36.4734 82.8724 37.9829 83.0718 38.7077C83.1013 38.8134 83.4256 38.9848 83.4581 39.0934C83.8128 40.301 84.0141 41.4115 84.4185 42.5638C84.5386 42.9067 84.5329 43.0515 84.6111 43.3353C84.6454 43.4619 86.0913 44.9429 86.3478 45.2657C86.7636 45.7857 87.5266 46.4981 87.6983 46.8095C87.8175 47.0248 89.4122 48.4152 89.5333 48.4514C90.2057 48.6505 91.3511 48.9267 91.8527 49.2257C92.0292 49.3314 92.3973 49.7562 92.6253 49.8057C93.2395 49.9381 93.7907 49.8095 94.5594 50.0019C95.3854 50.2076 96.3324 50.2666 97.2651 50.199C97.3347 50.1943 97.3891 50.0133 97.4587 50.0076C97.9337 49.9628 98.5908 50.099 99.0057 50.0095C99.2441 49.9581 100.605 49.2038 100.942 49.0495C101.563 48.7638 102.222 48.3609 102.877 48.0895C102.982 48.0457 103.133 48.1238 103.167 48.0895C103.203 48.0524 103.116 47.8905 103.167 47.799Z" fill="black"/>
<path d="M147.097 29.2848C147.078 29.3029 147.15 29.6677 146.902 29.7658C146.525 30.3658 146.938 32.5096 146.897 32.6562C146.336 34.6743 147.38 38.8476 146.689 41.3276C146.671 41.3905 146.672 41.4562 146.688 41.52C147.142 43.1714 146.613 45.2571 146.873 46.7228C147.196 48.5447 146.27 50.7342 146.862 52.8895C146.914 53.078 146.508 53.4495 146.667 54.0447C146.932 55.0371 146.613 55.5056 146.856 56.5504C146.998 57.1618 146.534 57.4047 146.467 57.7056C146.409 57.9732 146.432 58.7447 146.465 59.0551C146.536 59.7256 146.693 60.7027 146.848 61.3685C146.959 61.8475 146.665 62.0627 146.653 62.1389C146.601 62.4932 146.724 62.9742 146.651 63.2951C146.635 63.3637 146.496 63.4046 146.458 63.4875C146.43 63.5465 146.482 63.6389 146.458 63.6799C146.404 63.7694 145.825 64.3408 145.78 64.3532C145.395 64.4627 145.256 64.1694 145.2 64.1599C144.653 64.0618 143.868 64.2018 143.266 64.1561C141.905 64.0532 140.402 63.7294 139.012 64.1484C138.605 64.2713 138.266 63.8094 138.045 63.7618C137.026 63.5399 136.23 64.1504 135.338 63.9494C134.612 63.7865 133.406 64.0818 132.631 63.9446C132.563 63.9323 132.521 63.7865 132.437 63.7513C132.332 63.7085 132.181 63.7846 132.147 63.7513C132.114 63.717 132.192 63.5665 132.148 63.4618C132.114 63.378 131.967 63.3361 131.955 63.2684C131.868 62.7704 132.002 62.0789 131.958 61.5342C131.871 60.4713 131.895 60.2504 131.962 59.2228C132.034 58.1009 131.772 56.878 131.774 55.9466C131.776 54.9314 131.952 53.8352 131.779 52.8637C131.536 51.4933 132.283 49.9409 131.979 49.0095C131.575 47.7714 131.966 46.1857 131.793 44.7705C131.637 43.4905 131.495 40.9248 131.803 39.5676C131.973 38.8152 131.52 38.1324 131.612 37.8324C132.039 36.441 131.521 35.4029 131.812 33.9791C132.05 32.8162 131.796 30.7972 132.014 29.3543C132.154 28.4267 131.619 27.7572 131.825 26.8486C132.067 25.7772 131.499 24.122 131.637 23.3791C131.994 21.4525 131.471 19.083 131.648 17.0201C131.77 15.5992 131.633 14.2401 131.849 12.7811C132.076 11.2497 131.503 9.24207 131.858 7.77065C132.055 6.95542 131.994 6.78875 131.861 6.03638C131.647 4.82972 132.025 3.07449 131.869 1.79735C132.116 1.69831 132.041 1.33736 132.063 1.3164C132.096 1.28307 132.248 1.36021 132.353 1.31735C132.467 1.26974 132.864 0.947834 132.934 0.932596C133.159 0.884025 134.26 0.885929 134.481 0.935452C134.659 0.975452 135.366 1.46593 135.64 1.51545C136.345 1.64116 136.956 1.3564 137.38 1.32593C140.244 1.1164 142.879 1.51164 145.696 1.34021C148.017 1.19926 150.623 1.32116 153.045 1.16021C153.917 1.10212 154.645 1.28021 155.365 1.3564C155.783 1.40116 156.356 1.2764 156.719 1.35926C156.787 1.3745 156.828 1.51354 156.912 1.55259C156.972 1.57926 157.064 1.52783 157.106 1.55259C157.212 1.61545 157.718 2.12307 157.781 2.22783C157.981 2.56116 157.902 2.89163 157.973 3.19258C158.143 3.91258 158.312 5.05162 158.549 5.69924C158.629 5.91733 159.091 6.49447 159.128 6.66304C159.236 7.16494 159.165 7.58399 159.318 8.20494C159.709 9.79445 160.159 11.3744 160.663 12.8325C161.078 14.0325 161.493 15.2278 161.817 16.4954C162.346 18.5592 162.945 20.6087 163.354 22.6649C163.658 24.1972 164.205 25.5829 164.506 27.0991C164.658 27.8639 164.72 28.5267 165.082 29.2201C165.42 29.8648 165.627 30.3343 165.853 30.9553C166.073 31.562 166.525 32.4219 167.301 32.2105C167.537 32.1467 167.551 31.8019 167.591 31.7296C167.665 31.5991 167.956 31.2372 167.979 31.1524C168.025 30.9886 167.936 30.7381 167.98 30.5743C168.004 30.4896 168.352 30.0696 168.368 29.9972C168.523 29.2896 168.417 28.0305 168.566 27.4925C168.583 27.4296 169.101 26.9344 169.148 26.7229C169.276 26.1372 169.04 25.2182 169.152 24.6029C169.234 24.1506 169.847 23.322 169.928 22.8696C169.99 22.5239 169.858 22.043 169.93 21.7144C169.988 21.4477 170.647 20.6344 170.705 20.3668C170.767 20.0887 170.646 19.682 170.707 19.403C170.721 19.3373 171.08 18.8915 171.095 18.8258C171.26 18.0706 171.295 17.3201 171.486 16.5135C171.835 15.0411 171.988 13.643 172.459 12.2763C172.848 11.1506 173.074 9.91921 173.433 8.80874C173.805 7.65637 173.614 7.07447 173.825 6.11161C173.86 5.95066 174.371 5.31067 174.407 5.14876C174.478 4.82496 174.545 4.46019 174.603 4.18591C174.747 3.48115 174.735 2.51735 174.993 1.87354C175.024 1.79831 175.149 1.76021 175.188 1.68116C175.216 1.62116 175.162 1.52688 175.188 1.48878C175.267 1.36593 175.794 1.02402 175.866 1.00879C176.423 0.884977 178.277 0.973548 178.96 1.01355C179.027 1.01736 179.084 1.20212 179.152 1.20688C180.732 1.31545 185.222 1.69831 186.307 1.41164C187.618 1.06498 188.221 1.56116 189.207 1.4164C190.218 1.26878 193.308 0.9945 194.043 1.23259C195.132 1.58402 196.052 1.1964 197.33 1.43069C197.969 1.54878 198.47 1.10593 199.071 1.24116C199.139 1.2564 199.18 1.39545 199.263 1.4345C199.325 1.46307 199.419 1.41069 199.457 1.4345C199.785 1.64307 200.024 2.32973 199.938 2.68878C199.576 4.21734 199.878 6.42495 200.122 8.08398C200.24 8.88208 199.789 9.65921 199.924 10.5897C199.976 10.9468 200.169 13.3611 200.111 13.6735C199.626 16.2992 200.27 19.4315 199.903 22.3449C199.661 24.2715 200.163 26.3848 199.893 28.5115C199.755 29.602 200.418 30.2448 200.275 31.0162C200.147 31.7086 200.19 32.3258 200.079 32.9429C199.833 34.3029 199.86 36.2953 200.263 37.761C200.314 37.9467 199.744 38.5867 199.874 39.3019C200.079 40.4276 200.326 41.4467 200.061 42.5781C199.526 44.8695 200.616 48.7638 199.852 51.2495C199.741 51.6104 200.155 51.8514 200.044 52.2133C199.728 53.2428 200.084 54.8494 199.844 55.8742C199.742 56.3142 200.214 57.5523 200.033 58.3789C199.967 58.6808 199.502 58.9228 199.645 59.5351C199.815 60.2675 200.124 61.8466 200.025 62.6189C200.017 62.6894 199.846 62.737 199.832 62.8113C199.789 63.0456 199.887 63.377 199.83 63.5818C199.748 63.877 198.879 64.1332 198.572 64.0618C196.981 63.6875 193.781 64.1237 191.996 64.2427C191.407 64.2818 190.435 64.3094 189.869 64.2389C188.656 64.0875 187.461 64.1294 186.196 64.2323C185.6 64.2808 183.139 64.3437 182.714 64.2256C182.479 64.1608 182.466 63.8161 182.425 63.7437C182.356 63.6189 182.054 63.2294 182.039 63.1656C181.98 62.8904 182.085 62.5008 182.041 62.2018C182.03 62.1237 181.737 61.9094 181.849 61.4313C182.029 60.6723 182.348 59.7999 182.24 58.9266C182.078 57.6104 182.105 55.6209 182.248 54.3009C182.637 50.7209 181.782 45.9676 182.268 42.739C182.279 42.6667 182.454 42.6171 182.462 42.5467C182.645 40.8105 181.917 39.8619 182.276 38.1143C182.567 36.6981 182.467 33.3657 182.093 31.7553C181.977 31.2553 182.419 30.8772 182.289 30.4058C182.251 30.2648 181.57 29.8801 181.42 29.9229C181.351 29.9429 181.31 30.0743 181.226 30.1153C181.169 30.1429 181.075 30.0886 181.033 30.1143C180.94 30.1705 180.604 30.5029 180.549 30.5953C180.524 30.6372 180.576 30.7286 180.549 30.7877C180.511 30.8667 180.385 30.9048 180.355 30.98C180.314 31.0839 180.39 31.24 180.354 31.3658C180.151 32.0705 180.291 32.621 180.158 33.0991C180.128 33.2048 179.8 33.3781 179.769 33.4838C179.712 33.6905 179.818 34.0277 179.768 34.2543C179.732 34.4219 179.239 35.0286 179.187 35.2172C178.993 35.9181 178.959 36.8 178.796 37.5286C178.617 38.3276 178.231 39.1838 178.018 40.0324C177.61 41.6524 177.399 43.2114 177.043 44.8485C176.997 45.06 176.479 45.5552 176.462 45.6181C176.075 47.0114 175.885 48.4704 175.487 49.8561C175.173 50.9514 174.487 52.7837 174.319 53.7075C174.164 54.5685 174.101 55.8009 173.928 56.5971C173.881 56.8066 173.443 57.6266 173.345 57.9456C172.832 59.5999 172.594 61.4323 171.983 62.9532C171.96 63.0084 171.812 63.2989 171.79 63.338C171.446 63.9103 171.148 63.7199 170.725 63.818C170.594 63.8484 170.43 64.1218 169.952 64.0094C169.327 63.8627 167.853 63.8294 167.244 64.0046C165.876 64.397 165 63.7675 163.957 63.9989C163.259 64.1532 162.346 64.0304 161.636 64.1875C161.373 64.2456 158.96 64.2446 158.736 64.1827C158.689 64.1703 158.143 63.618 158.06 63.5075C157.456 62.6961 157.634 62.4389 157.484 61.5799C157.436 61.3113 156.953 60.4989 156.906 60.2294C156.816 59.7199 157.013 58.9789 156.909 58.4951C156.871 58.3266 156.41 57.7494 156.33 57.5313C156.215 57.217 156.22 56.6523 156.139 56.3742C155.848 55.378 155.155 54.3133 154.984 53.2895C154.881 52.6714 154.935 51.4885 154.795 50.9761C154.766 50.8704 154.44 50.698 154.409 50.5895C154.18 49.7923 154.128 48.9361 153.833 48.0838C153.136 46.0771 152.376 44.1057 151.909 42.1067C151.722 41.3076 151.748 40.579 151.527 39.7933C151.332 39.1067 151.165 38.02 150.951 37.48C150.819 37.1476 150.235 36.5857 150.179 36.3229C150.097 35.941 150.253 35.3753 150.182 34.9734C150.067 34.3172 149.318 33.22 149.219 32.66C149.149 32.2658 149.314 31.6515 149.221 31.3105C149.194 31.2124 148.906 31.0562 148.834 30.9239C148.634 30.5524 148.559 30.1486 148.449 29.7667C148.341 29.3886 147.307 29.0877 147.097 29.2848Z" fill="black"/>
<path d="M254.572 7.69195C254.608 7.72814 254.521 7.89004 254.571 7.98147C255.009 8.76622 256.816 10.01 257.467 10.8776C257.578 11.0253 258.593 12.6948 258.624 12.8071C258.764 13.2919 259 14.0186 259.201 14.5414C259.496 15.3043 260.442 16.6281 260.551 17.2414C260.647 17.7881 260.418 18.6976 260.547 19.169C260.577 19.2757 260.905 19.45 260.934 19.5557C261.108 20.1871 261.239 20.7871 261.124 21.2909C260.912 22.2242 261.433 23.2318 261.313 24.1813C261.131 25.6166 261.072 27.2356 260.725 28.6127C260.477 29.5975 260.248 30.9756 259.752 31.887C259.359 32.6108 258.741 33.4556 258.395 34.1965C257.486 36.1451 255.212 38.4165 253.454 39.8727C252.994 40.2536 250.547 41.9155 250.453 42.0841C250.16 42.606 250.143 42.3698 249.582 42.5641C248.419 42.9679 247.238 43.5812 245.905 43.9069C245.362 44.0402 245.002 44.0002 244.551 44.0974C244.479 44.1126 244.055 44.4593 243.971 44.4821C243.134 44.7088 242.329 44.5917 241.456 44.6707C240.585 44.7488 239.554 45.2298 238.554 45.0517C236.821 44.7412 234.832 45.1745 232.754 45.0412C231.235 44.944 229.64 44.9574 228.113 44.8402C227.668 44.8059 226.549 44.7564 226.179 44.8374C226.108 44.8526 226.067 44.9974 225.985 45.0298C225.744 45.125 225.181 45.2774 225.114 45.5098C225.079 45.6298 225.151 45.7802 225.113 45.8945C225.088 45.9745 224.932 46.0164 224.919 46.0869C224.872 46.3478 224.883 46.965 224.917 47.2431C225.083 48.5888 224.762 49.6945 224.91 51.0973C225.167 53.5297 224.603 56.4068 224.896 59.1906C225.028 60.4411 225.034 61.1649 224.89 62.4658C224.846 62.8677 224.978 63.4934 224.888 63.8144C224.876 63.8601 224.257 64.4753 224.211 64.4877C223.964 64.5544 223.539 64.4429 223.244 64.4858C223.172 64.4963 223.121 64.6696 223.05 64.6782C222.747 64.7153 222.193 64.7144 221.891 64.6763C219.358 64.3563 216.041 64.8096 213.383 64.2753C211.602 63.9172 209.886 64.4915 208.161 64.6525C207.839 64.682 206.854 64.7153 206.614 64.6496C206.517 64.6229 206.361 64.3372 206.228 64.263C206.136 64.2125 205.974 64.2982 205.938 64.262C205.902 64.2258 205.988 64.0639 205.938 63.9725C205.863 63.8391 205.582 63.6868 205.551 63.5858C205.472 63.3172 205.429 62.901 205.36 62.622C205.272 62.2668 205.081 62.0477 205.169 61.4649C205.352 60.2506 205.476 58.6411 205.563 57.4182C205.651 56.1735 205.403 55.2392 205.569 54.1421C205.706 53.2306 205.129 51.7859 205.381 50.6735C205.664 49.4202 205.469 46.3897 205.198 44.8917C205.089 44.2917 205.548 42.4793 205.591 41.8088C205.654 40.8174 205.434 39.426 205.596 38.5327C205.737 37.7546 205.804 36.3574 205.602 35.4498C205.301 34.1003 205.899 32.068 205.611 30.6318C205.312 29.1461 205.901 26.7937 205.621 24.8509C205.463 23.7623 205.817 23.689 205.818 23.1175C205.821 20.7557 205.378 18.1252 205.638 15.409C205.667 15.11 205.925 14.689 205.834 14.0605C205.663 12.8833 205.85 11.3481 205.648 10.2062C205.412 8.88432 206.144 8.13575 205.846 6.931C205.637 6.07958 205.787 5.74244 205.656 5.0034C205.533 4.30816 205.761 3.78055 205.853 3.27008C205.895 3.03389 205.804 2.72056 205.855 2.49961C205.87 2.43103 206.009 2.39008 206.048 2.30723C206.078 2.24627 206.025 2.15294 206.049 2.11485C206.229 1.83675 206.423 1.88723 206.534 1.82628C207.113 1.50723 207.328 1.33104 208.082 1.44438C208.969 1.57771 211.085 1.98818 211.948 1.8358C212.777 1.69009 213.267 1.8939 214.269 1.64818C215.503 1.34438 217.698 1.50152 218.91 1.84818C219.99 2.1577 221.797 1.43295 223.358 1.66342C224.234 1.79199 224.802 1.79294 225.679 1.66723C226.642 1.52914 227.746 2.08437 228.773 1.86533C228.842 1.85009 229.318 1.48057 229.354 1.48152C229.595 1.48438 230.263 2.04532 230.32 2.06151C230.778 2.18818 230.969 1.89961 231.094 1.87009C231.423 1.79294 233.296 1.45485 233.416 1.48914C233.524 1.52057 233.697 1.84533 233.802 1.87485C234.238 1.9958 234.734 1.57199 235.349 1.68533C237.109 2.00818 239.083 1.41961 240.957 1.88723C242.033 2.1558 243.308 1.93199 244.244 2.27866C244.35 2.3177 244.753 2.65008 244.824 2.66532C245.154 2.73675 245.682 2.58437 245.984 2.66722C246.047 2.68532 246.53 3.18532 246.756 3.24722C247.404 3.42436 248.283 3.74817 248.882 4.0215C249.696 4.39292 250.222 4.8253 251.2 5.18244C252.237 5.56053 252.533 6.25958 253.325 6.91957C253.514 7.08433 254.516 7.63671 254.572 7.69195ZM236.476 16.3328C235.219 16.6766 234.166 16.3271 232.997 16.5195C231.711 16.73 230.324 16.4547 228.935 16.7043C228.395 16.8014 228.107 16.5271 227.969 16.51C227.635 16.4681 226.941 16.4605 226.615 16.5081C226.543 16.5185 226.497 16.6824 226.421 16.6995C226.247 16.7395 226.002 16.6547 225.841 16.6985C225.795 16.7109 225.175 17.3262 225.163 17.3719C225.117 17.5328 225.201 17.7785 225.162 17.95C225.145 18.0262 224.978 18.0719 224.968 18.1423C224.883 18.7138 224.892 20.2528 224.964 20.8404C225.109 22.0204 225.117 23.2623 224.958 24.5013C224.822 25.5556 224.812 26.2394 224.953 27.1994C225.031 27.727 224.739 28.4785 224.758 28.548C224.78 28.6308 225.066 28.9956 225.144 29.127C225.174 29.1775 225.115 29.2785 225.143 29.3194C225.232 29.4518 226.132 30.3603 226.204 30.3803C226.665 30.507 226.908 30.1994 226.979 30.1899C228.036 30.0375 228.943 30.5089 229.685 30.387C230.145 30.3118 230.574 30.3118 231.04 30.1965C232.382 29.8661 232.048 30.2261 232.974 30.3927C233.158 30.4261 236.387 30.2623 236.648 30.207C236.713 30.1927 237.163 29.8365 237.228 29.8232C237.613 29.7413 238.202 29.9089 238.583 29.8261C238.651 29.8108 238.692 29.6718 238.776 29.6337C238.837 29.6061 238.928 29.6584 238.969 29.6346C239.086 29.5651 239.564 29.0861 239.647 28.9613C239.7 28.8832 239.789 28.4613 239.843 28.3832C240.145 27.9308 240.896 27.4889 241.198 27.0366C241.412 26.7147 241.494 26.2051 241.587 25.8813C241.609 25.8023 241.767 25.7604 241.781 25.689C241.844 25.3461 241.736 24.8966 241.783 24.5328C241.854 23.9794 242.105 23.3633 241.98 22.6061C241.968 22.5318 241.786 22.4775 241.786 22.4128C241.786 22.3366 242.062 21.8042 241.983 21.2576C241.971 21.1852 241.802 21.1385 241.789 21.0642C241.719 20.6614 241.843 20.3176 241.598 19.908C241.416 19.6023 240.499 18.9538 240.44 18.75C240.378 18.5347 240.379 18.1995 240.247 17.9785C239.864 17.3338 239.159 17.4528 238.606 17.3014C238.225 17.1976 236.758 16.2576 236.48 16.3338L236.476 16.3328Z" fill="black"/>
<path d="M296.243 1.61313C296.298 1.74551 296.573 2.05884 296.629 2.19122C296.82 2.64932 296.883 3.2636 297.012 3.73407C297.043 3.8455 297.68 4.38549 297.784 4.89216C298.092 6.38358 298.565 6.92357 299.132 8.17118C299.392 8.74356 299.214 8.93022 299.324 9.32832C299.35 9.4226 299.949 10.7102 300.093 11.0645C300.896 13.0264 302.22 15.2188 302.791 17.2368C303.042 18.1273 303.215 18.7597 303.753 19.5521C304.297 20.3521 304.369 21.2159 304.715 22.0587C305.328 23.5549 305.811 25.1415 306.254 26.6882C306.271 26.7463 306.725 27.4187 306.833 27.653C307.441 28.9663 307.328 30.0901 307.987 31.3167C308.691 32.6262 309.248 34.0005 309.72 35.3672C310.133 36.5615 310.863 38.3205 311.453 39.4176C311.734 39.9386 312.706 42.0557 312.803 42.5043C312.874 42.8348 312.729 43.329 312.8 43.6605C312.837 43.8328 313.433 44.7909 313.571 45.2033C314.088 46.7576 314.635 48.5938 315.302 50.0252C315.534 50.5214 315.69 50.5852 315.88 51.1823C316.05 51.7185 316.964 53.2956 316.842 53.6899C316.563 54.6004 317.278 54.8518 317.611 55.6185C318.235 57.0489 318.698 58.4975 319.151 59.8623C319.488 60.8775 319.979 61.5918 320.308 62.7556C320.352 62.9165 320.838 63.0432 320.692 63.527C320.682 63.5603 320.241 63.9984 320.207 64.0079C319.966 64.0737 318.982 64.0365 318.661 64.006C318.339 63.9746 316.98 63.5441 316.726 63.6175C316.637 63.6441 316.219 63.986 316.147 64.0022C315.313 64.1803 312.655 64.0127 311.893 63.8013C311.638 63.7308 311.585 63.9756 311.506 63.9937C310.947 64.1222 310.771 63.6975 310.151 63.7984C308.372 64.0898 305.109 64.1041 303.383 63.787C302.647 63.6508 302.285 64.0908 301.836 64.1698C301.545 64.2213 300.578 64.2194 300.289 64.167C300.217 64.1546 300.174 63.9965 300.096 63.9737C299.874 63.9098 299.569 63.9089 299.323 63.7794C299.224 63.6022 298.667 62.9756 298.649 62.9108C298.579 62.6556 298.711 62.2251 298.651 61.947C298.545 61.4518 298.23 61.1022 298.073 60.2118C297.905 59.2432 297.247 58.2785 297.113 57.5118C297.042 57.1175 297.207 56.5023 297.115 56.1623C297.08 56.0347 296.636 55.7623 296.535 55.5823C296.484 55.4909 296.572 55.3289 296.535 55.2928C296.5 55.2566 296.338 55.3432 296.245 55.2928C295.733 55.007 295.454 54.3052 294.893 55.0975C294.276 55.1032 293.832 54.8023 293.152 54.9023C292.374 55.0166 291.58 55.0356 290.832 54.8985C289.957 54.7375 289.91 55.2156 289.67 55.2823C289.418 55.3509 288.57 54.6318 288.318 54.7013C288.242 54.7213 288.202 54.868 288.124 54.8937C287.006 55.2499 285.212 55.1204 284.063 54.8861C282.294 54.5271 279.739 54.8718 277.875 55.069C277.081 55.1518 276.575 54.9204 275.941 55.0651C275.373 55.1947 274.584 54.5642 274.201 54.6766C274.093 54.708 273.919 55.0318 273.814 55.0613C273.556 55.1318 273.105 54.989 272.847 55.0594C272.801 55.0718 272.181 55.687 272.169 55.7328C272.111 55.9394 272.217 56.2766 272.168 56.5042C272.107 56.7794 271.475 57.5499 271.392 57.8518C271.227 58.4508 271.313 59.2442 271.195 59.7784C271.135 60.0537 270.502 60.8242 270.42 61.127C270.241 61.7794 270.264 62.6032 269.835 63.246C269.772 63.3432 269.204 63.907 269.158 63.9194C268.64 64.0603 267.629 63.8098 267.031 63.9156C266.027 64.0927 264.811 63.7756 263.744 63.7175C261.049 63.5689 258.165 63.9689 255.621 64.2813C255.357 64.3137 254.692 64.3298 254.461 64.2794C254.296 64.2432 253.719 63.7937 253.494 63.6994C253.391 63.6556 253.239 63.7327 253.204 63.6984C253.154 63.647 253.168 62.3937 253.207 62.2527C253.245 62.1165 253.75 61.8108 253.789 61.6765C253.861 61.4222 253.73 60.9908 253.791 60.7127C253.828 60.5451 254.283 59.9718 254.373 59.7499C254.618 59.1394 254.748 58.2832 254.957 57.6299C255.285 56.6089 255.981 55.6099 256.316 54.548C256.719 53.2756 257.323 52.2461 257.676 50.888C257.93 49.9176 258.368 49.1995 258.649 48.1909C258.682 48.0719 259.363 47.1262 259.424 46.8433C259.64 45.8604 259.652 46.0738 260.006 45.3024C260.324 44.6119 260.133 43.889 260.397 43.1833C261.122 41.2424 262.355 39.1738 262.922 37.2119C263.259 36.0424 263.678 34.9177 264.088 33.7443C264.515 32.5272 264.874 31.3901 265.256 30.2767C265.547 29.4234 265.918 28.5129 266.227 27.5806C266.555 26.5949 267.059 25.7244 267.392 24.6911C267.617 23.9901 268.101 23.2711 268.362 22.572C268.592 21.9568 268.575 21.0901 268.752 20.453C268.806 20.2568 269.133 20.1435 269.334 19.2978C269.56 18.3502 270.543 17.0892 270.693 16.4083C270.888 15.5226 271.261 13.6464 271.666 12.9407C272.293 11.8493 272.34 11.2845 272.831 10.2435C273.688 8.43213 274.331 6.23977 275.163 4.27311C275.356 3.81502 275.42 3.20074 275.553 2.73217C275.682 2.26932 275.995 2.2236 276.229 2.05884C276.496 1.87218 276.752 1.43885 277.005 1.28932C277.047 1.26456 277.137 1.31694 277.197 1.29028C277.281 1.25218 277.323 1.11314 277.392 1.0979C277.582 1.05599 278.144 1.06837 278.358 1.0998C279.891 1.33028 282.469 1.56075 283.965 1.10933C284.172 1.04742 285.794 1.33409 285.898 1.30552C287.956 0.743615 291.271 1.75599 293.828 1.12647C293.905 1.10742 293.949 0.94647 294.022 0.934089C294.267 0.891232 295.144 0.88647 295.376 0.935994C295.446 0.951232 295.841 1.27504 295.955 1.32266C296.059 1.36551 296.212 1.28932 296.245 1.32266C296.278 1.3579 296.199 1.50932 296.243 1.61313ZM284.509 21.3501C284.163 21.4187 283.914 21.212 283.637 21.6378C283.584 21.7197 283.496 22.1358 283.443 22.2158C283.309 22.4177 282.979 22.5977 282.862 22.793C282.49 23.4139 282.801 24.1025 282.666 24.7206C282.629 24.8882 282.136 25.4958 282.083 25.6834C281.944 26.1911 281.865 26.8406 281.693 27.4177C281.643 27.5853 280.964 28.0244 280.918 28.1872C280.797 28.6225 281.021 29.4444 280.915 29.9225C280.857 30.1891 280.199 31.0025 280.14 31.2701C279.906 32.3377 279.787 33.472 279.555 34.5453C279.321 35.6186 278.72 36.7891 278.388 37.8205C278.24 38.2843 277.849 38.7862 277.807 38.9757C277.755 39.2119 277.747 40.8948 277.803 41.0957C277.869 41.3357 278.25 41.3605 278.286 41.3852C278.459 41.5081 278.754 41.9348 278.865 41.9652C279.11 42.0329 279.538 41.9233 279.832 41.9671C279.904 41.9776 279.951 42.1462 280.025 42.1605C280.65 42.2748 282.222 41.6824 282.539 41.7795C283.106 41.9519 284.438 42.2595 285.052 42.169C286.573 41.9462 288.357 41.9805 289.887 41.7919C290.295 41.7414 291.213 41.9538 291.339 41.5052C291.384 41.3443 291.299 41.0995 291.339 40.9271C291.357 40.851 291.522 40.8062 291.534 40.7348C291.565 40.5195 291.577 39.9652 291.536 39.771C291.501 39.611 290.992 38.9681 290.957 38.8062C290.907 38.5795 291.015 38.2424 290.959 38.0348C290.92 37.8995 290.417 37.5919 290.379 37.4557C290.247 36.9767 290.389 36.4272 290.189 35.7205C289.877 34.6253 289.545 33.5501 289.227 32.4424C289.18 32.2767 288.5 31.8329 288.455 31.6701C288.359 31.3205 288.391 30.832 288.264 30.3206C288.045 29.4339 287.722 28.6129 287.495 27.8139C287.356 27.3234 286.968 26.7015 286.917 26.4634C286.858 26.1853 286.988 25.7549 286.92 25.4996C286.902 25.4377 286.386 24.9396 286.341 24.7282C286.244 24.2777 286.283 23.9206 286.149 23.3787C286.013 22.8292 285.856 22.0892 285.572 21.6435C285.465 21.4768 284.867 21.113 284.702 21.1597C284.624 21.1797 284.581 21.3349 284.509 21.3501Z" fill="black"/>
<path d="M339.014 64.1021C338.93 64.1364 338.888 64.2831 338.821 64.2945C338.553 64.3402 337.733 64.3393 337.466 64.2917C336.692 64.1526 335.83 64.5107 335.726 64.4812C333.396 63.8374 330.908 64.6317 328.572 64.0831C328.093 63.9707 327.932 64.2431 327.798 64.2745C327.043 64.4526 326.227 64.4831 325.477 64.6555C325.361 64.6821 324.162 64.5107 323.93 64.4602C323.869 64.4469 323.278 64.066 323.253 63.9774C323.209 63.8183 323.29 63.5774 323.254 63.3993C323.239 63.325 322.991 63.2669 323.061 63.0136C323.332 62.0422 323.111 60.9336 323.26 59.7384C323.39 58.6946 323.198 57.9498 323.458 56.8479C323.624 56.145 322.908 56.007 323.074 55.306C323.409 53.8908 323.225 52.8251 323.079 51.4517C323.008 50.7717 323.165 50.2156 323.082 49.7175C322.867 48.4156 323.499 46.6375 323.284 45.6708C323.035 44.5537 323.332 42.2899 323.098 41.2385C322.727 39.569 323.469 37.0747 323.302 35.2652C323.086 32.9338 322.996 30.0747 323.315 27.5566C323.387 26.9966 323.192 25.2557 323.126 24.8586C322.686 22.1948 323.418 19.3834 323.14 16.7653C323.032 15.7405 323.333 15.3034 323.144 14.2605C322.996 13.4405 323.676 11.931 323.537 10.9853C323.5 10.732 323.063 9.92722 323.153 9.63579C323.683 7.91009 323.495 5.10534 323.163 3.27678C323.132 3.10154 323.133 2.68155 323.164 2.50631C323.178 2.43393 323.337 2.39107 323.359 2.31393C323.398 2.17203 323.319 1.87203 323.36 1.83203C323.392 1.79869 323.545 1.87584 323.65 1.83298C323.734 1.79869 323.776 1.65298 323.843 1.6406C324.407 1.54251 325.249 1.7606 325.778 1.64441C326.08 1.57679 328.225 1.38917 328.679 1.45679C329.297 1.54727 331.484 1.59012 331.965 1.46251C333.701 1.00441 335.024 1.95584 336.801 1.47108C337.054 1.40155 337.094 1.63393 337.187 1.66441C338.14 1.97203 340.227 1.71489 341.248 1.4787C341.73 1.36727 341.943 1.6606 342.021 1.67298C342.316 1.71774 342.742 1.60631 342.989 1.67489C343.034 1.68727 343.609 2.2606 343.664 2.35012C343.698 2.40821 343.796 2.61583 343.856 2.73583C344.708 4.44058 346.215 6.77866 347.326 8.52342C347.549 8.87484 348.24 9.11579 348.291 9.29579C348.508 10.0577 348.615 10.3739 349.061 11.032C349.898 12.2624 351.365 14.3672 351.955 15.6615C352.208 16.2196 352.317 16.8558 352.724 17.3977C352.923 17.6596 353.349 17.9224 353.497 18.17C353.802 18.6824 353.445 18.8148 353.978 19.0376C354.523 19.2653 354.799 19.7776 355.04 20.2919C355.522 21.3272 356.02 21.9338 356.389 23.1843C356.481 23.4948 358.042 25.3909 358.125 25.6928C358.312 26.3747 358.154 26.5814 358.799 26.9462C358.996 27.0576 360.787 30.27 361.018 30.7081C361.591 31.8004 361.768 32.6947 362.559 33.6014C362.978 33.7795 363.579 35.1776 363.812 35.2414C364.466 35.4214 364.596 35.1242 364.974 34.8576C365.013 34.8299 365.118 34.889 365.167 34.8585C365.354 34.7404 365.694 34.1442 365.652 33.9918C365.631 33.9147 365.475 33.8728 365.458 33.7985C365.418 33.6138 365.427 33.0376 365.46 32.8347C365.708 31.3661 365.624 30.0833 365.469 28.4024C365.347 27.0795 365.981 25.1024 365.67 23.97C365.64 23.8643 365.312 23.69 365.283 23.5833C365.146 23.0814 365.796 21.3224 365.676 20.5014C365.504 19.3414 365.28 16.6558 365.491 15.49C365.668 14.5072 365.335 13.492 365.496 12.5996C365.778 11.0424 365.214 8.48913 365.505 7.20342C365.72 6.25772 365.386 4.94629 365.317 4.11963C365.285 3.71773 365.246 2.72536 365.32 2.38536C365.335 2.31488 365.661 1.92155 365.708 1.80822C365.751 1.70441 365.675 1.55298 365.708 1.51965C365.743 1.48632 365.894 1.56346 365.998 1.5206C366.114 1.47298 366.509 1.15108 366.579 1.13584C366.774 1.09489 367.545 1.09584 367.739 1.13775C367.804 1.15203 368.253 1.50917 368.318 1.52441C370.276 1.95012 373.849 1.47012 376.247 1.73012C377.783 1.89774 378.3 1.09584 379.921 1.54441C380.175 1.61489 380.217 1.37965 380.309 1.35203C380.673 1.24251 380.745 1.47965 380.888 1.54631C380.947 1.57393 381.04 1.52155 381.08 1.54631C381.171 1.59965 381.744 2.17583 381.757 2.22155C381.841 2.52631 381.788 3.9263 381.753 4.34154C381.663 5.38915 381.596 6.31867 381.748 7.232C382.05 9.06246 381.359 12.0929 381.737 13.7843C382.017 15.0424 381.532 17.1224 381.922 18.7948C382.032 19.2757 381.604 19.95 381.532 20.3357C381.399 21.0548 382.039 21.8881 381.914 23.0338C381.712 24.8795 381.458 28.3195 381.707 30.3566C381.833 31.3899 381.879 34.7309 381.697 35.9452C381.562 36.8585 381.801 38.2147 382.079 39.2213C382.128 39.3966 381.719 39.8337 381.883 40.5699C382.088 41.487 381.564 42.6004 381.685 43.268C382.097 45.5356 381.416 47.9556 381.673 50.3984C381.841 51.9984 381.429 53.5832 381.664 55.2155C381.803 56.1812 381.883 58.8841 381.656 59.8412C381.607 60.0526 381.803 61.8612 381.846 62.1526C381.885 62.4212 381.901 63.486 381.843 63.6945C381.833 63.7269 381.435 64.1307 381.358 64.1755C381.317 64.2002 381.226 64.1488 381.165 64.1745C381.082 64.2126 381.04 64.3517 380.972 64.3669C380.479 64.4793 380.24 64.1726 380.198 64.1726C380.134 64.1726 380.078 64.3526 380.005 64.365C378.682 64.5812 377.06 64.1612 375.945 64.3574C375.24 64.4821 374.629 64.1945 374.204 64.1621C372.277 64.0145 369.843 64.6374 368.21 64.344C366.624 64.0593 364.381 64.2669 362.601 64.5269C362.401 64.5564 361.793 64.5688 361.635 64.525C361.576 64.5088 360.843 63.7736 360.766 63.6564C360.663 63.5021 360.016 62.3822 359.993 62.306C359.767 61.5098 358.07 58.4012 357.488 57.4841C357.237 57.087 356.709 57.0022 356.523 56.7117C356.392 56.5079 356.269 55.9441 356.138 55.7479C355.726 55.1289 355.214 54.8565 354.787 54.0117C354.042 52.5384 352.772 51.2489 352.086 49.767C351.306 48.0794 349.849 46.3889 349.001 44.5594C348.051 42.507 345.977 40.6137 345.338 38.3861C345.224 37.9852 344.251 37.2394 343.988 36.8423C343.382 35.9309 342.89 34.9099 342.446 33.949C342.256 33.5385 341.925 33.1842 341.673 32.7909C341.496 32.5119 341.3 32.5633 341.192 32.5014C341.068 32.4328 340.646 32.1157 340.611 32.1147C340.57 32.1147 340.012 32.4728 339.935 32.5947C339.91 32.6338 339.962 32.7261 339.934 32.7871C339.895 32.8709 339.756 32.9118 339.74 32.9795C339.691 33.2014 339.784 33.5166 339.738 33.7509C339.701 33.949 339.445 34.1747 339.544 34.7137C339.75 35.8509 339.495 37.4347 339.73 38.7613C340.218 41.5166 339.065 45.1394 339.907 48.2041C339.955 48.3794 339.426 50.1298 339.516 50.5165C339.723 51.407 339.906 54.586 339.7 55.527C339.637 55.8174 339.357 55.7365 339.506 56.2974C339.796 57.386 339.551 58.2022 339.694 59.1888C339.792 59.8641 339.531 60.3584 339.499 60.7307C339.423 61.6203 339.638 62.8069 339.494 63.6212C339.482 63.6888 339.335 63.7307 339.3 63.8136C339.257 63.9174 339.334 64.0688 339.3 64.1031C339.271 64.1364 339.12 64.0583 339.014 64.1021Z" fill="black"/>
<path d="M447.973 1.57753C448.011 1.71658 448.009 2.59467 447.971 2.73371C447.921 2.908 447.161 3.43276 447.002 3.69561C446.82 3.99561 446.794 4.55371 446.613 4.8518C446.017 5.82513 445.415 6.50227 444.867 7.54702C444.132 8.94511 443.397 10.3261 442.732 11.7832C442.179 12.9975 440.69 14.3365 440.407 15.6336C440.356 15.8603 440.462 16.1975 440.405 16.4051C440.318 16.7155 439.497 16.9622 439.437 17.1746C438.993 18.707 437.572 20.006 437.108 21.6031C437.011 21.9374 436.235 22.0279 436.139 22.5641C436.087 22.8536 436.206 23.2774 436.136 23.5279C436.115 23.606 435.484 24.6107 435.362 24.8755C435.137 25.3574 434.039 26.6803 434.005 26.8003C433.387 28.9241 431.816 30.806 430.899 32.7698C430.195 34.2764 429.242 35.6278 428.378 37.1983C427.946 37.9831 427.658 38.7611 427.213 39.5088C426.996 39.8726 426.107 40.9792 426.05 41.2411C426.002 41.4688 426.108 41.8059 426.05 42.0126C426.02 42.1183 425.692 42.2916 425.662 42.3983C425.453 43.1478 426.193 43.6745 426.047 44.3259C425.967 44.6849 425.757 44.5364 425.852 45.0964C425.965 45.7621 425.351 46.423 425.654 47.2163C425.871 47.7792 426.172 47.8744 426.039 48.7582C425.901 49.6782 425.861 49.5268 426.035 50.4935C426.194 51.3649 425.714 51.4106 425.646 51.6497C425.593 51.8439 426.237 53.2144 426.029 53.963C425.989 54.1077 425.56 54.242 425.641 54.5401C425.664 54.6239 426.012 55.0458 426.027 55.1182C426.221 56.0211 425.643 56.9887 425.829 57.8163C425.956 58.3877 425.974 59.9401 426.017 60.7077C426.055 61.3648 426.132 63.0534 426.012 63.5982C425.996 63.6744 425.645 64.1982 425.528 64.2724C425.49 64.2972 425.396 64.2448 425.334 64.2724C425.25 64.3105 425.209 64.4496 425.141 64.4648C424.917 64.5144 424.604 64.422 424.367 64.4639C424.294 64.4772 424.249 64.6391 424.173 64.6562C423.629 64.7829 423.163 64.3305 422.819 64.2686C422.168 64.1515 420.797 64.4867 420.691 64.4582C419.378 64.0943 417.314 64.3182 416.05 64.4505C414.171 64.6467 412.369 64.4924 410.634 64.6334C409.652 64.7134 408.774 64.5429 407.929 64.4362C407.567 64.3905 407.092 64.5048 406.769 64.4343C406.692 64.4172 406.166 64.0677 406.092 63.9515C406.068 63.9124 406.12 63.8191 406.093 63.7591C406.026 63.6163 405.789 63.5429 405.899 63.1801C406.249 62.0439 405.72 61.1572 405.905 59.9039C405.969 59.4753 406.185 58.2372 406.103 57.7839C405.876 56.5363 405.612 54.9477 405.916 53.7363C406.2 52.6116 405.672 51.6192 405.727 51.4239C406.414 48.9573 405.512 46.023 405.934 43.5221C405.946 43.4478 406.127 43.3935 406.127 43.3297C406.127 43.2649 405.945 43.2097 405.934 43.1364C405.894 42.8983 405.982 42.5916 405.934 42.3649C405.769 41.5649 404.824 40.5497 404.586 39.665C404.275 38.5088 403.843 38.2611 403.43 37.3497C403.255 36.9678 402.816 35.2878 402.66 35.1316C402.624 35.0955 402.461 35.1821 402.37 35.1307C401.65 34.7297 401.177 32.5459 400.634 32.2364C400.216 31.9993 399.544 30.6793 399.188 30.0174C398.519 28.7736 397.911 27.4545 397.26 26.1593C396.976 25.5936 395.791 24.3669 395.717 24.0365C395.667 23.8117 395.775 23.4736 395.719 23.265C395.588 22.7908 394.126 21.6327 393.983 21.1422C393.714 20.2251 393.381 19.6203 393.02 18.8279C392.546 17.7879 391.733 16.9022 391.283 15.9336C391.098 15.5308 390.538 15.0603 390.512 14.9689C390.44 14.7117 390.584 14.2622 390.515 14.006C390.458 13.8003 389.708 13.086 389.549 12.8479C389.295 12.466 387.662 9.75654 387.621 9.56797C387.571 9.34225 387.679 9.00511 387.623 8.79654C387.487 8.30321 385.693 6.21274 385.502 5.51656C385.334 4.90704 385.507 4.58513 384.827 4.0699C384.782 4.03561 384.665 4.09752 384.634 4.0699C384.39 3.85847 384.092 3.43466 383.861 3.29752C383.82 3.27276 383.728 3.32419 383.669 3.29657C383.654 3.2899 383.642 3.28038 383.631 3.2699C383.61 3.20895 383.591 3.148 383.574 3.08514C383.549 2.99086 383.533 2.89371 383.511 2.79848C383.51 2.78133 383.508 2.76324 383.508 2.7461C383.505 2.69276 383.5 2.64038 383.499 2.58705C383.499 2.53467 383.5 2.48324 383.502 2.43181C383.505 2.4061 383.517 2.33181 383.52 2.32038C383.532 2.26038 383.548 2.19943 383.565 2.13943C383.569 2.12705 383.571 2.11753 383.572 2.10896C383.573 2.10705 383.574 2.1061 383.576 2.10419C383.6 2.06229 383.62 2.01753 383.646 1.97658C383.664 1.94515 383.687 1.91562 383.707 1.88515C383.62 2.01753 383.71 1.88515 383.737 1.85658C383.77 1.82229 383.807 1.79086 383.842 1.75848C383.86 1.7461 383.878 1.73372 383.898 1.72134C383.946 1.69467 383.993 1.6642 384.043 1.63943C384.057 1.63277 384.115 1.60896 384.124 1.60515C384.191 1.58039 384.261 1.55943 384.332 1.54039C384.371 1.54801 384.409 1.55658 384.447 1.56515C385.266 1.75467 387.133 1.6861 387.928 1.57182C390.284 1.23277 393.07 1.77277 395.469 1.77753C397.107 1.78039 399.277 1.75848 400.885 1.59372C401.149 1.56705 401.927 1.30515 402.24 1.21087C402.617 1.09753 402.764 1.39467 402.82 1.4042C403.054 1.44801 403.372 1.35467 403.593 1.40515C403.667 1.42324 403.711 1.58039 403.786 1.59848C403.957 1.63943 404.204 1.55467 404.366 1.59943C404.436 1.61943 404.476 1.75562 404.558 1.79372C404.618 1.82039 404.71 1.76896 404.752 1.79372C404.898 1.88039 405.708 2.69752 405.813 2.85562C405.868 2.93752 405.949 3.32419 406.005 3.43371C406.579 4.5499 407.195 5.81656 407.74 6.90512C408.073 7.57274 408.593 7.80226 408.897 8.64226C409.227 9.55463 409.659 9.89177 410.054 10.7641C410.574 11.9175 411.293 12.9584 411.788 14.0432C412 14.5108 412.715 15.0698 412.752 15.2013C412.86 15.5975 412.683 15.786 412.943 16.3584C413.617 17.8374 414.57 18.8765 415.064 20.6022C415.105 20.7431 416.497 22.4593 416.608 22.7241C416.728 23.0136 416.869 23.4803 416.992 23.6888C417.217 24.066 417.664 24.2231 418.054 24.365C418.135 24.3946 418.176 24.5412 418.247 24.5584C418.718 24.665 418.84 24.4241 419.021 24.3669C419.137 24.3307 419.288 24.4022 419.409 24.3679C419.71 24.2822 419.978 23.6079 420.088 23.3088C420.345 22.6079 420.382 22.1927 420.96 21.866C421.563 21.525 421.421 19.9555 421.835 19.2651C421.944 19.086 422.382 18.8117 422.417 18.6879C422.66 17.8136 422.748 17.2327 423.195 16.3765C423.672 15.4594 423.708 15.2051 423.971 14.2575C424.009 14.1279 425.098 13.0413 425.135 12.9108C425.621 11.1584 426.42 10.8146 426.88 9.44416C426.99 9.11749 426.998 8.95463 427.075 8.67368C427.138 8.44797 427.639 7.96702 427.658 7.90321C427.714 7.69655 427.608 7.3594 427.659 7.13274C427.803 6.46893 428.705 5.99751 428.822 5.5937C429.199 4.29561 430.102 3.83942 429.986 2.51181C430.363 2.23943 430.457 1.69086 430.859 1.45277C430.901 1.42801 430.992 1.48039 431.053 1.45277C431.137 1.41467 431.178 1.27563 431.246 1.26039C431.672 1.1661 433.643 1.20229 434.148 1.26515C434.871 1.35563 435.551 1.37086 436.274 1.46134C437.686 1.63753 439.959 1.06134 440.916 1.27658C442.19 1.56324 444.785 1.01087 446.331 1.09277L446.428 0.900391L447.201 0.901343C447.305 1.13753 447.903 1.32134 447.973 1.57753Z" fill="black"/>
</svg>
