<svg width="448" height="67" viewBox="0 0 448 67" fill="none" xmlns="http://www.w3.org/2000/svg">
<path d="M4.57382 2.58766C6.00781 2.73058 7.09164 2.66865 8.6363 2.56289C9.63045 2.49429 11.3545 2.84396 11.926 2.73629C13.753 2.39234 15.5066 2.82204 17.535 2.50953C17.8336 2.4638 18.1905 2.53621 18.5025 2.50382C18.6895 2.82204 19.4861 3.06214 19.572 3.36512C19.655 3.65858 19.6111 4.89528 19.5844 5.29354C19.5586 5.64893 19.1359 7.36964 19.2113 7.60974C19.6931 9.15705 19.7246 11.4399 19.2438 13.0091C19.1388 13.354 19.7675 14.2287 19.6435 14.9347C19.4832 15.836 19.3487 17.3319 19.4699 18.4075C19.5567 19.1698 19.8468 23.1162 19.697 23.805C19.4613 24.8826 19.5968 26.6224 19.7218 27.8553C19.8697 29.334 19.2504 31.3519 19.5567 32.6773C19.8277 33.853 19.8868 40.2242 19.612 41.9335C19.5023 42.6138 19.7418 43.2664 19.6263 44.2478C19.3191 46.8593 20.132 50.5332 19.4861 52.9266C19.4565 53.0324 19.6702 54.7359 19.6903 54.8541C19.924 56.1994 19.5185 57.2541 19.7132 58.5184C19.8486 59.4045 19.9584 60.4335 19.7303 61.4111C19.5138 62.3429 19.6616 62.2676 19.9345 63.1451C20.0519 63.5205 19.7542 63.671 19.7447 63.7253C19.6865 64.0674 19.8324 64.5867 19.7523 64.883C19.7399 64.9287 19.1264 65.549 19.0797 65.5613C18.8116 65.6366 17.6991 65.5995 17.3384 65.5718C16.0838 65.4746 13.9868 65.1536 12.8877 65.406C12.3687 65.5251 11.3964 65.1326 10.5645 65.2269C9.39574 65.3594 8.51894 65.4508 7.27482 65.2469C6.56499 65.1297 6.30072 65.5204 5.14724 65.2593C4.40019 65.0897 3.28197 66.0015 2.44333 65.8539C2.36891 65.8405 2.32025 65.67 2.24965 65.6623C1.88996 65.6195 1.40722 65.7386 1.08855 65.669C1.02081 65.6538 0.97883 65.5156 0.894871 65.4775C0.832856 65.4489 0.73933 65.5032 0.702121 65.4785C0.316673 65.2364 0.481767 65.0335 0.407349 64.8048C0.380634 64.7248 0.225139 64.6838 0.212736 64.6133C0.159307 64.3227 0.270894 63.9235 0.206971 63.6491C0.189797 63.5758 0.033325 63.5357 0.0132893 63.4576C-0.0592209 63.2042 0.18792 63.1489 0.203185 63.0708C0.476053 61.8227 0.562871 59.3426 0.367285 58.0563C0.136397 56.5538 0.203172 54.1376 0.332927 52.4635C0.539009 49.8063 -0.115515 46.845 0.284245 44.364C0.521811 42.8891 0.39401 39.7373 0.438852 37.9995C0.519949 34.8296 0.083889 31.9036 0.189792 28.7442C0.206011 28.2411 0.609592 25.0903 0.552347 24.8855C0.350082 24.1585 0.0419439 24.0661 0.153571 22.9599C0.291913 21.5974 0.594359 20.3788 0.322446 18.9087C0.128767 17.8606 0.331021 15.4568 0.489398 14.4735C0.665903 13.3778 -0.0859104 10.9759 0.0743752 9.84781C0.263283 8.53393 0.457904 6.39114 0.241328 5.21827C0.148782 4.72569 0.329128 3.62428 0.421674 3.09644C0.433123 3.02879 0.58004 2.98592 0.613433 2.90208C0.656367 2.79727 0.578119 2.64673 0.611512 2.61243C0.746991 2.47047 4.10537 2.54002 4.57382 2.58766Z" fill="black"/>
<path d="M42.2107 65.2171C42.1268 65.2523 42.0867 65.3991 42.019 65.4105C41.7518 65.4591 40.9313 65.4648 40.6641 65.4191C39.8875 65.2857 39.0289 65.6506 38.9249 65.622C36.5912 64.9961 34.1077 65.8097 31.7664 65.28C31.2865 65.1714 31.1281 65.4448 30.9936 65.4772C30.2399 65.6611 29.4232 65.6982 28.6743 65.8764C28.5588 65.904 27.3585 65.7411 27.1258 65.6925C27.0647 65.6801 26.4703 65.3038 26.4455 65.2142C26.4007 65.0551 26.4789 64.8131 26.4417 64.6359C26.4264 64.5616 26.1774 64.5054 26.2461 64.251C26.5085 63.2782 26.2795 62.1692 26.4207 60.9725C26.5429 59.9273 26.3444 59.1832 26.5962 58.0789C26.7575 57.3758 26.0401 57.2424 26.1994 56.5392C26.5238 55.1215 26.332 54.0563 26.1755 52.6833C26.0992 52.004 26.2519 51.4466 26.165 50.9483C25.9399 49.6478 26.5571 47.8642 26.3348 46.899C26.0763 45.7833 26.3577 43.5157 26.1144 42.4658C25.729 40.7994 26.4522 38.2983 26.2719 36.489C26.0381 34.1585 25.9255 31.2993 26.2261 28.7773C26.2919 28.217 26.0849 26.4773 26.0162 26.079C25.5544 23.4179 26.2652 20.5996 25.9675 17.9823C25.8511 16.959 26.1498 16.5189 25.9513 15.4765C25.7968 14.6581 26.4656 13.1422 26.3187 12.1971C26.2805 11.9446 25.8378 11.1433 25.9237 10.8498C26.4408 9.11961 26.2318 6.31559 25.8855 4.48816C25.8521 4.31381 25.8492 3.89363 25.8807 3.71737C25.8931 3.64496 26.0524 3.60113 26.0734 3.52396C26.1106 3.38104 26.0305 3.08187 26.0706 3.04185C26.103 3.0085 26.2566 3.08473 26.3606 3.03995C26.4436 3.00469 26.4837 2.85892 26.5514 2.84653C27.1153 2.74363 27.9587 2.9561 28.4863 2.8351C28.7887 2.76555 30.9335 2.56165 31.3877 2.62454C32.0069 2.71029 34.1955 2.73506 34.6763 2.60453C36.4089 2.13195 37.739 3.07425 39.5126 2.57499C39.7664 2.50353 39.8074 2.73601 39.9 2.76555C40.855 3.06472 42.9406 2.79222 43.9615 2.54736C44.4414 2.43303 44.6589 2.72458 44.7362 2.73506C45.0319 2.77698 45.4565 2.66265 45.7036 2.72934C45.7494 2.74078 46.3304 3.31053 46.3858 3.39914C46.4201 3.45726 46.5194 3.66401 46.5804 3.78406C47.4458 5.48286 48.9723 7.81049 50.0971 9.54645C50.3242 9.89612 51.0169 10.1324 51.0693 10.3125C51.2926 11.0728 51.4014 11.3882 51.8527 12.0427C52.6999 13.267 54.1835 15.3612 54.7826 16.6513C55.0412 17.2077 55.1547 17.8432 55.5659 18.3815C55.7663 18.6416 56.1956 18.9017 56.3444 19.1485C56.6536 19.6592 56.2987 19.7935 56.8329 20.0127C57.3796 20.2366 57.6611 20.7463 57.9044 21.2599C58.3938 22.2917 58.8975 22.8948 59.2763 24.143C59.3708 24.4526 60.9479 26.3372 61.0318 26.6383C61.2246 27.3195 61.069 27.5272 61.7178 27.8874C61.9144 27.9969 63.7318 31.1964 63.9656 31.6337C64.5476 32.7227 64.7317 33.6155 65.5303 34.5158C65.951 34.6911 66.5635 36.085 66.7982 36.147C67.4537 36.3223 67.5806 36.0241 67.9556 35.7544C67.9956 35.7258 68.0996 35.7849 68.1483 35.7535C68.3372 35.6334 68.6712 35.0351 68.6283 34.8826C68.6054 34.8064 68.4498 34.7655 68.4326 34.6911C68.3916 34.5063 68.3954 33.9299 68.4269 33.7279C68.6645 32.2568 68.57 30.9744 68.4002 29.2937C68.2676 27.9712 68.8867 25.9885 68.5671 24.8585C68.5375 24.7527 68.2084 24.5812 68.1779 24.4755C68.0367 23.9743 68.673 22.2098 68.5462 21.3885C68.3668 20.2299 68.1206 17.545 68.322 16.3769C68.4927 15.3927 68.1502 14.3799 68.3038 13.4862C68.5738 11.9265 67.99 9.37685 68.2714 8.0887C68.4784 7.14069 68.134 5.83158 68.0596 5.00457C68.0233 4.6025 67.9775 3.60971 68.0491 3.26956C68.0634 3.19906 68.3858 2.80366 68.4326 2.68837C68.4746 2.58452 68.3973 2.43303 68.4307 2.39968C68.4641 2.36633 68.6158 2.4416 68.7207 2.39873C68.8352 2.35014 69.2284 2.02524 69.299 2.00904C69.4927 1.96617 70.2645 1.9614 70.4591 2.00237C70.5249 2.01667 70.9752 2.3711 71.0411 2.38444C73.0026 2.79413 76.5738 2.2863 78.9743 2.52926C80.5123 2.68456 81.0226 1.87851 82.6484 2.31488C82.9041 2.38348 82.9442 2.1472 83.0348 2.11957C83.3983 2.00714 83.4728 2.24343 83.6159 2.30917C83.675 2.33585 83.7676 2.28344 83.8086 2.30821C83.8993 2.36062 84.4774 2.93324 84.4898 2.97802C84.5766 3.28195 84.5346 4.68348 84.5031 5.09889C84.422 6.1479 84.3629 7.07876 84.5213 7.99057C84.838 9.81989 84.1711 12.8564 84.5613 14.5447C84.8523 15.8024 84.382 17.8861 84.7855 19.5563C84.9 20.0365 84.4755 20.7149 84.4077 21.1008C84.2799 21.821 84.9277 22.649 84.8103 23.7971C84.6224 25.6455 84.3963 29.0879 84.6606 31.1239C84.7951 32.1568 84.8657 35.4991 84.6949 36.7148C84.5671 37.6304 84.817 38.9853 85.1023 39.9905C85.1519 40.1658 84.7474 40.606 84.9182 41.3406C85.13 42.2562 84.6138 43.3738 84.7398 44.0398C85.17 46.3055 84.507 48.7312 84.7827 51.1732C84.964 52.7729 84.5633 54.3621 84.8123 55.9923C84.9592 56.9575 85.0603 59.6615 84.8408 60.619C84.7931 60.8315 85.004 62.6398 85.0489 62.9314C85.0889 63.1991 85.1138 64.2643 85.0575 64.4739C85.0489 64.5063 84.652 64.9132 84.5766 64.9579C84.5356 64.9837 84.443 64.9322 84.3838 64.9589C84.2999 64.997 84.2608 65.1361 84.1921 65.1523C83.6989 65.2685 83.4594 64.9646 83.4174 64.9646C83.3535 64.9646 83.2991 65.1466 83.2256 65.159C81.9042 65.3857 80.2776 64.978 79.1632 65.1838C78.4591 65.3133 77.8465 65.0313 77.421 65.0008C75.4918 64.8684 73.0619 65.5105 71.4256 65.2295C69.8361 64.957 67.594 65.1818 65.8166 65.4562C65.6162 65.4867 65.0084 65.5048 64.8491 65.462C64.7899 65.4458 64.0525 64.7169 63.9733 64.5997C63.8683 64.4463 63.2129 63.3306 63.1919 63.2544C62.9582 62.4598 61.2361 59.3632 60.6474 58.4505C60.3917 58.0551 59.8641 57.9741 59.6751 57.6845C59.5435 57.4815 59.4156 56.9184 59.2821 56.7231C58.8661 56.1067 58.3519 55.838 57.9178 54.9957C57.1602 53.5275 55.8808 52.2479 55.1824 50.7711C54.3886 49.0885 52.9193 47.4088 52.0558 45.5852C51.0894 43.5396 48.999 41.6616 48.3426 39.4388C48.2262 39.0387 47.2464 38.2993 46.9792 37.9039C46.3667 36.9969 45.8667 35.9802 45.4145 35.0217C45.2208 34.613 44.8869 34.2605 44.6331 33.8698C44.4528 33.5926 44.2582 33.645 44.1485 33.584C44.0254 33.5164 43.5999 33.2019 43.5655 33.2019C43.5245 33.2019 42.9683 33.5659 42.8919 33.6879C42.8671 33.726 42.9215 33.8193 42.8929 33.8803C42.8557 33.9642 42.7154 34.0061 42.7011 34.0737C42.6525 34.2967 42.7479 34.6101 42.705 34.8455C42.6706 35.0437 42.4159 35.2723 42.5189 35.8097C42.7336 36.9464 42.4902 38.5318 42.7364 39.8571C43.2459 42.6087 42.121 46.2416 42.9873 49.3019C43.036 49.4763 42.5217 51.2323 42.6143 51.6172C42.828 52.5071 43.036 55.6855 42.8375 56.6288C42.7765 56.9203 42.496 56.8413 42.6496 57.4015C42.9483 58.4886 42.7106 59.307 42.8604 60.2922C42.9635 60.9677 42.7049 61.4641 42.6763 61.8357C42.6076 62.7256 42.8318 63.9118 42.6935 64.7274C42.682 64.796 42.5351 64.8379 42.5017 64.9217C42.4588 65.0265 42.537 65.1771 42.5036 65.2114C42.4674 65.2495 42.3147 65.1733 42.2107 65.2171Z" fill="black"/>
<path d="M137.392 6.72026C137.454 6.78124 138.055 6.65928 138.262 6.7155C138.298 6.72502 138.8 7.06421 138.844 7.09756C139.325 7.44151 140.007 8.45431 140.307 8.92117C140.531 9.26988 141.442 9.52808 141.666 9.8768C141.866 10.1884 142.418 11.4203 142.739 11.5098C142.867 11.5461 143.027 11.4641 143.126 11.5079C143.261 11.567 143.778 11.8843 143.808 11.9862C143.915 12.3731 143.732 13.1181 144.299 13.4297C144.939 13.7832 145.318 14.7855 145.57 15.6392C145.602 15.7468 146.156 16.1832 146.348 16.5986C146.732 17.4228 146.893 18.4918 147.333 19.2931C147.855 20.243 147.694 20.6279 147.926 21.6026C147.963 21.755 148.302 22.4458 148.32 22.5639C148.37 22.8888 148.401 24.4361 148.333 24.6848C148.137 25.4118 146.853 25.0792 146.304 25.1793C145.79 25.2736 145.834 25.3527 145.144 25.1859C143.101 24.6953 140.6 24.6753 138.372 24.841C136.771 24.9601 135.119 24.8782 133.538 25.2555C133.123 25.3555 132.982 25.124 132.378 25.2622C131.637 25.4318 130.929 25.0926 130.249 25.0821C130.043 24.7362 129.567 24.7124 129.374 24.4123C129.35 24.3742 129.402 24.2808 129.373 24.2198C129.336 24.1408 129.209 24.1036 129.179 24.0283C129.057 23.7273 129.06 23.1575 128.979 22.8726C128.949 22.7669 128.62 22.5954 128.589 22.4896C128.531 22.2829 128.636 21.9446 128.584 21.7179C128.48 21.2605 127.694 20.4373 127.414 19.9895C126.918 19.1997 127.236 19.1644 126.34 18.5499C125.991 18.3088 124.705 17.0483 124.591 17.0178C124.383 16.9626 124.044 17.0702 123.816 17.0226C123.459 16.9483 122.168 15.9879 121.875 16.0698C120.779 16.3795 119.765 15.5496 118.391 15.7049C118.321 15.7125 118.269 15.8926 118.199 15.8983C117.538 15.9574 116.675 15.8011 116.071 15.9107C115.999 15.924 115.956 16.086 115.88 16.1051C115.634 16.167 115.116 16.2223 114.913 16.3032C114.622 16.4214 114.378 16.7434 114.142 16.8863C113.13 17.5018 112.267 18.0792 111.543 18.9272C110.616 20.0143 110.068 19.8685 109.624 21.4454C109.581 21.6007 108.987 21.997 108.855 22.2209C108.608 22.6401 108.748 22.9974 108.668 23.3795C108.599 23.7101 108.036 24.6819 107.906 25.1193C107.675 25.8872 107.861 26.597 107.724 27.2411C107.71 27.3068 107.354 27.7565 107.341 27.8223C107.193 28.5207 107.213 30.2033 107.358 30.7149C107.423 30.9436 107.007 31.3447 106.975 31.4885C106.807 32.2889 107.267 35.3806 107.391 36.3067C107.547 37.471 107.553 38.8601 107.801 39.9682C107.883 40.3369 108.696 41.3288 108.778 41.6975C108.829 41.9233 108.725 42.2625 108.782 42.4692C108.822 42.6074 109.715 43.6697 109.758 43.8127C110.294 45.6305 111.803 47.4703 113.366 48.5155C113.954 48.909 113.747 48.7375 114.336 48.8947C114.499 48.9386 114.947 49.615 115.113 49.6617C115.791 49.8513 116.586 49.8599 117.243 50.0343C117.329 50.0571 117.753 50.4011 117.825 50.4163C118.408 50.5383 119.7 50.4868 120.147 50.403C120.784 50.2829 121.253 50.705 121.889 50.585C122.54 50.463 123.061 50.0152 123.627 49.8037C124.478 49.4836 125.291 49.6389 126.137 49.0177C126.578 48.6937 126.766 48.2249 127.001 47.9515C127.606 47.2484 128.333 47.073 128.731 46.2051C128.944 45.7411 129.293 45.1475 129.496 44.6578C129.82 43.8755 129.707 43.1362 129.869 42.534C129.899 42.4283 130.225 42.253 130.255 42.1463C130.311 41.9357 130.193 41.586 130.25 41.3745C130.293 41.2135 130.973 40.7295 131.115 40.5018L136.144 40.4713C136.405 40.9124 137.014 40.3246 137.304 40.2712C138.317 40.0854 139.533 40.8286 140.208 40.6399C140.447 40.5723 140.491 40.093 141.366 40.2474C142.328 40.417 143.455 40.3417 144.46 40.2283C145.153 40.1511 147.745 40.0826 148.33 40.2045C148.391 40.2178 148.983 40.5932 149.009 40.6828C149.045 40.8028 148.975 40.9543 149.012 41.0687C149.039 41.1478 149.193 41.1897 149.207 41.2602C149.262 41.5632 149.248 42.2796 149.215 42.6103C149.208 42.6808 149.031 42.7332 149.023 42.8046C148.948 43.4249 149.036 43.9232 148.839 44.5406C148.654 45.1284 148.762 44.7826 148.843 45.1189C148.968 45.6467 147.751 48.526 147.514 49.3692C147.501 49.4169 147.037 49.919 146.939 50.1438C146.348 51.4834 145.39 52.9717 144.642 54.2074C144.215 54.9125 144.225 55.3231 143.586 55.6594C142.861 56.0424 143.179 56.394 142.625 56.6294C141.593 57.0686 141.001 58.4434 140.126 59.1513C139.586 59.5887 138.732 59.9155 138.2 60.3204C137.164 61.1055 137.577 61.2332 136.08 61.6829C135.935 61.7267 134.874 62.8071 134.732 62.8481C133.911 63.0873 133.39 63.0949 132.61 63.6322C131.734 64.2344 131.328 63.9066 130.485 64.223C130.001 64.4049 128.728 65.1186 128.363 65.1995C127.807 65.3234 127.321 65.2253 126.624 65.4034C123.801 66.1209 120.54 66.1466 117.534 65.8436C116.431 65.7321 115.24 66.0685 114.052 65.8646C113.429 65.7579 112.228 65.0195 111.724 64.9147C110.213 64.5974 109.864 65.1271 108.237 64.1648C107.608 63.7923 105.201 63.1863 105.038 63.0263C104.933 62.9234 105.272 62.931 104.745 62.6423C103.698 62.0687 103.53 61.6848 102.222 61.3075C102.051 61.2589 101.513 60.5224 101.25 60.349C100.785 60.046 100.205 60.0641 99.7931 59.4896C99.4296 58.9818 97.0958 56.6846 96.5816 56.3273C95.5044 55.5794 95.6085 54.4142 94.8252 53.8311C93.104 52.5486 92.4753 51.0109 91.6051 49.1263C90.9974 47.8076 90.6272 46.8901 90.2303 45.4705C90.1749 45.2723 89.6998 44.7083 89.6445 44.5101C89.3038 43.2915 89.1493 42.0319 88.8488 40.8505C88.5091 39.5157 88.0235 39.1717 88.4423 37.7683C88.5635 37.3624 88.0988 37.027 88.0502 36.8069C87.6142 34.8594 87.9529 31.297 88.1981 29.2848C88.448 27.2192 88.2573 25.5185 88.9357 23.4948C89.3049 22.3962 89.6988 21.2777 90.0767 20.2096C90.4936 19.0329 91.3285 17.5552 91.9877 16.3414C92.6947 15.0361 93.6535 13.6326 94.4779 12.2778C95.0541 11.3307 95.9366 10.8496 96.5911 9.95111C97.7188 8.40381 99.6261 6.73455 101.305 5.77702C102.039 5.35875 102.702 4.84711 103.424 4.41455C104.382 3.84193 105.648 3.42748 106.704 2.852C107.424 2.45946 108.242 2.19745 109.02 1.87446C110.588 1.22086 111.836 1.18084 113.464 0.883575C115.877 0.440536 122.45 0.397661 124.878 0.814022C124.945 0.825456 125.586 1.18275 125.653 1.19513C126.151 1.28088 126.962 1.06937 127.395 1.18465C127.458 1.20085 127.945 1.6982 128.171 1.75822C129.57 2.1298 131.446 2.731 132.632 3.46654C133.179 3.80478 133.918 3.95436 134.376 4.22781C135.042 4.6213 135.389 5.03957 136.125 5.37399C136.457 5.52453 137.194 6.08381 137.39 6.42681C137.441 6.52208 137.354 6.68501 137.392 6.72026Z" fill="black"/>
<path d="M152.362 28.6902L152.745 27.8203C152.947 27.2934 152.469 26.1291 152.539 25.8938C152.616 25.6384 152.752 23.8853 152.721 23.7719C152.255 22.1294 152.57 18.5508 152.679 16.832C152.868 13.8193 152.262 10.5446 153.012 7.76918C153.043 7.65485 152.904 6.19234 152.999 5.64831C153.149 4.77938 152.701 4.44305 152.601 3.91522C152.479 3.26733 152.711 3.05201 152.98 2.56323C153.009 2.51083 152.951 2.4127 152.979 2.37077C153.051 2.25358 153.576 1.90106 153.652 1.88486C154.052 1.7972 155.309 1.83531 155.781 1.87247C155.849 1.87724 155.904 2.05731 155.974 2.06398C156.869 2.15449 158.619 1.85723 159.455 1.6581C160.085 1.50756 161.187 2.28312 161.394 2.225C161.864 2.09256 163.868 1.74671 164.292 1.82198C165.403 2.01634 166.664 1.92583 167.774 1.80102C168.452 1.72479 170.445 1.67525 171.064 1.78101C171.135 1.79339 171.179 1.94679 171.258 1.97251C171.373 2.00872 171.523 1.93631 171.645 1.97061C172.063 2.08685 171.884 2.71854 171.942 3.02914C171.96 3.12537 172.249 3.31878 172.139 3.79898C171.79 5.33008 172.341 6.97838 172.168 8.42564C172.051 9.407 172.042 10.7456 172.188 11.7032C172.362 12.8379 172.063 13.8669 172.208 14.9807C172.391 16.3842 172.02 18.0629 172.234 19.2225C172.536 20.8488 171.937 22.7744 172.073 24.4284C172.254 26.6388 172.238 28.5692 172.11 30.7901C172.031 32.1811 172.18 33.0691 172.518 34.2582C172.57 34.443 172.004 35.0871 172.14 35.8026C172.265 36.4648 172.127 37.0793 172.148 37.1517C172.664 38.9744 172.225 41.6079 172.38 43.5115C172.453 44.4109 172.226 45.8248 172.399 46.5956C172.412 46.6585 172.716 47.0482 172.79 47.172C172.82 47.2235 172.763 47.3235 172.791 47.3645C172.875 47.4893 173.354 47.9657 173.472 48.0353C173.513 48.0591 173.605 48.0067 173.665 48.0343C173.75 48.0715 173.79 48.2106 173.859 48.2258C174.342 48.3335 174.555 48.04 174.633 48.0286C175.139 47.9514 177.165 47.7542 177.534 47.818C178.602 48.0019 179.94 47.7018 181.21 47.9886C181.604 48.0772 182.418 47.698 183.144 47.7837C185.673 48.0829 188.463 47.6465 190.882 47.9305C192.384 48.1058 194.69 47.8476 196.103 47.7066C197.218 47.5951 197.837 47.9924 198.811 47.6904C199.188 47.5741 199.292 47.8476 199.392 47.88C199.506 47.9162 199.658 47.8438 199.779 47.8781C199.825 47.8904 200.407 48.4592 200.461 48.5479C200.486 48.5898 200.434 48.6812 200.462 48.7403C200.501 48.8242 200.642 48.8642 200.656 48.9318C200.716 49.1881 200.726 50.7954 200.669 51.0527C200.504 51.8092 200.736 54.1559 200.689 54.3302C200.31 55.7384 200.303 58.4434 200.53 59.9221C200.541 59.9935 200.706 60.0373 200.724 60.1136C200.879 60.7576 200.192 61.2073 200.348 61.8505C200.367 61.9267 200.532 61.9705 200.542 62.042C200.583 62.3097 200.607 63.3749 200.551 63.5845C200.486 63.8275 199.917 63.9656 199.684 64.0723C199.307 64.2448 198.808 64.5735 198.332 64.4658C196.619 64.078 195.493 64.7174 193.882 64.4925C193.141 64.3886 192.193 64.3791 191.368 64.3143C189.057 64.1362 185.725 64.7297 184.016 64.3591C183.315 64.2067 181.74 64.3763 181.115 64.5697C180.603 64.7278 180.151 64.0542 179.951 63.998C179.869 63.9751 179.644 63.9761 179.563 63.9999C179.35 64.0628 178.815 64.5173 178.6 64.584C178.238 64.6945 177.987 64.2838 177.632 64.3972C176.389 64.7926 176.489 64.483 175.502 64.2171C175.391 64.1867 174.527 64.7212 173.763 64.6135C172.074 64.3734 170.354 64.6954 168.925 64.4496C167.915 64.2762 166.99 64.7745 166.025 64.6602C165.059 64.5459 162.057 64.4982 161.382 64.6888C161.295 64.7126 160.361 64.4115 159.834 64.5049C158.858 64.6773 157.795 64.5611 157.126 64.7145C156.828 64.7821 153.705 64.8041 153.451 64.7364C153.358 64.7116 152.865 64.159 152.577 64.1628L152.362 28.6902Z" fill="black"/>
<path d="M259.573 1.49197C259.468 1.80162 259.756 1.89785 259.769 1.97312C259.834 2.34375 259.845 3.72622 259.782 4.09399C259.565 5.34689 259.834 7.26292 259.615 8.53011C259.304 10.327 259.623 15.2091 259.86 17.0136C259.972 17.8644 259.561 19.7757 259.685 20.2931C260.048 21.7966 259.633 24.0746 259.913 25.6915C260.042 26.4423 259.619 27.1407 259.732 28.0067C260.031 30.2743 259.56 33.6834 259.975 35.9119C260.257 37.4402 260.12 40.369 259.817 42.083C259.698 42.7633 260.077 43.1883 259.83 44.2039C259.42 45.8951 259.712 47.9026 259.283 49.6071C259.184 50.0006 258.793 50.6504 258.71 50.96C258.667 51.1249 258.758 51.3745 258.714 51.5384C258.67 51.7022 257.992 52.1481 257.945 52.3139C257.568 53.6526 255.906 55.6591 254.876 56.7682C253.587 58.1563 252.594 58.7928 251.123 59.7799C249.815 60.6564 248.588 61.6197 247.269 62.3104C246.624 62.6477 246.325 62.5715 245.723 62.7058C245.456 62.7649 244.643 63.4261 244.374 63.4852C243.725 63.631 242.679 63.5548 242.054 63.692C241.778 63.7529 241.142 64.3789 240.704 64.4713C239.695 64.6867 238.918 64.5447 237.612 64.8763C237.102 65.0049 233.957 65.3736 233.551 65.2859C232.661 65.0935 231.623 65.6147 230.458 65.4975C230.26 65.4775 229.85 65.184 229.296 65.3117C228.476 65.4994 227.995 64.9773 226.974 65.1335C226.182 65.2536 225.791 65.1049 225.04 65.3374C224.58 65.4803 224.238 64.842 223.877 64.7667C223.238 64.6333 222.227 64.8953 221.555 64.781C221.269 64.7324 220.524 64.3075 220.197 64.2103C219.221 63.9206 218.085 64.1083 217.099 63.8434C217.047 63.8301 216.653 63.4214 216.321 63.2699C215.241 62.7744 214.36 62.4372 213.219 62.1313C213.143 62.1113 212.328 61.3596 212.053 61.1738C211.235 60.6202 210.455 60.0381 209.722 59.4521C208.833 58.7423 208.158 58.304 207.485 57.4408C206.222 55.8201 205.384 54.5463 204.36 52.6388C203.813 51.6213 203.681 51.0286 203.376 49.9444C203.258 49.5223 202.68 49.064 202.594 48.5991C202.49 48.0369 202.703 47.2051 202.583 46.6706C202.505 46.3276 201.877 45.3653 201.798 44.9394C201.695 44.3773 201.907 43.5446 201.787 43.011C201.773 42.9453 201.411 42.5003 201.396 42.4346C201.134 41.257 201.42 39.2199 201.175 37.8079C200.982 36.6922 201.487 35.6356 201.153 34.337C200.883 33.2765 201.28 32.6344 201.139 32.0227C200.928 31.1071 201.375 29.7475 201.117 28.3593C200.779 26.528 201.674 23.5487 201.271 21.8023C200.946 20.3941 201.658 17.288 201.425 15.2443C201.259 13.7961 201.882 12.7576 201.594 11.1941C201.352 9.88401 201.832 8.65779 201.571 7.53065C201.423 6.88467 201.459 5.50601 201.361 4.63898C201.326 4.32933 201.297 3.55663 201.353 3.2889C201.366 3.21935 201.681 2.82871 201.735 2.70771C201.78 2.61052 201.697 2.44951 201.734 2.32183C201.746 2.2761 202.359 1.65584 202.406 1.6425C202.65 1.5739 204.611 1.57391 204.921 1.62726C205.906 1.7959 207.319 1.77399 208.404 1.6063C209.264 1.47386 211.278 2.11699 211.888 1.97121C213.069 1.68919 214.598 1.97788 215.563 1.75589C216.622 1.51197 218.463 1.91309 219.624 1.73111C219.75 1.89975 220.014 2.04934 220.111 2.21036C220.136 2.25133 220.084 2.34375 220.112 2.40282C220.151 2.48571 220.291 2.52573 220.306 2.59433C220.357 2.81632 220.268 3.12979 220.31 3.36607C220.325 3.44039 220.496 3.48708 220.504 3.55758C220.544 3.85866 220.548 4.41127 220.512 4.71425C220.305 6.45306 220.021 8.62253 220.546 10.3061C220.588 10.4385 220.319 12.3355 220.369 13.0062C220.646 16.7068 220.262 20.6904 220.44 24.7692C220.492 25.9735 220.834 27.7238 220.658 28.8175C220.253 31.3357 221.233 36.2825 220.714 38.2672C220.45 39.2828 220.662 41.4428 220.934 42.508C221.108 43.1873 221.152 43.981 221.334 44.6269C221.352 44.6898 221.856 45.17 221.919 45.3949C221.964 45.5588 221.877 45.8093 221.923 45.9732C221.958 46.0999 222.405 46.3696 222.507 46.5477C222.557 46.6392 222.471 46.8012 222.508 46.8374C222.847 47.1718 223.162 46.8088 223.482 47.8921C223.586 48.2427 226.15 49.3632 226.684 49.5118C226.752 49.5309 227.246 50.0406 227.461 50.0854C227.977 50.194 228.808 50.0168 229.395 50.074C229.466 50.0806 229.516 50.2559 229.59 50.2655C230.763 50.4341 231.738 50.2874 232.878 50.053C233.729 49.8777 234.796 49.8863 235.583 49.6509C236.419 49.4013 238.282 48.0979 239.052 47.5091C239.31 47.3119 239.612 46.8974 239.724 46.6373C239.77 46.5306 239.677 46.3638 239.721 46.2514C239.93 45.7217 240.788 44.1143 240.867 43.737C241.096 42.6528 240.971 41.5924 241.042 40.4576C241.144 38.8083 241.611 37.3887 241.206 35.6366C241.002 34.7495 241.468 34.4942 241.582 33.7062C241.724 32.7039 241.031 31.4329 241.174 30.4306C241.304 29.5159 241.213 28.8023 241.353 27.9219C241.818 24.996 241.107 21.3716 241.294 18.0874C241.349 17.1041 241.583 16.9612 241.279 15.7731C240.861 14.142 241.298 12.3917 241.442 10.7587C241.601 8.96553 240.884 7.3077 241.41 5.35928C241.434 5.26781 241.058 3.86723 241.012 3.62618C240.979 3.45087 240.977 3.02974 241.007 2.85443C241.02 2.78298 241.174 2.74105 241.198 2.66007C241.235 2.54574 241.163 2.3952 241.196 2.27419C241.21 2.22846 241.779 1.64917 241.87 1.59582C241.91 1.57009 242.004 1.62154 242.063 1.59487C242.145 1.55675 242.184 1.42051 242.254 1.40145C242.415 1.35572 242.661 1.43671 242.834 1.39764C242.911 1.38049 242.955 1.21471 243.026 1.20328C243.533 1.1261 244.619 1.14516 245.153 1.18994C246.282 1.28617 247.029 1.76446 248.249 1.36525C249.136 1.0737 250.895 1.59582 252.119 1.34143C253.537 1.04702 255.827 1.43671 257.534 1.11562C258.072 1.01463 258.275 1.25472 258.502 1.30236C258.68 1.33952 258.926 1.25377 259.083 1.29951C259.189 1.3319 259.256 1.59963 259.573 1.49197Z" fill="black"/>
<path d="M324.229 46.8589C324.089 46.9999 323.967 46.5721 323.652 47.5373C323.208 48.9036 322.473 50.1565 321.742 51.4056C321.391 52.0058 321.502 52.0468 321.361 52.5651C321.32 52.7194 319.552 54.5449 319.248 54.8918C318.624 55.6025 317.853 56.44 317.037 57.1222C316.711 57.3947 315.079 58.7695 314.725 58.8715C313.663 59.1821 312.954 59.7099 311.831 60.0463C311.52 60.1396 310.674 61.1277 310.29 61.2125C310.013 61.2744 309.615 61.1648 309.323 61.2182C308.761 61.322 307.865 62.2405 307.203 62.3882C306.576 62.5273 305.648 62.4673 305.076 62.594C305.01 62.6083 304.564 62.9684 304.498 62.9837C303.161 63.28 301.309 62.9236 300.05 63.2038C299.977 63.22 299.562 63.5658 299.472 63.5925C299.142 63.6916 298.809 63.2876 298.311 63.4067C296.309 63.8859 294.404 63.3086 292.315 63.4429C291.153 63.5172 289.205 63.481 288.253 63.6601C286.468 63.9955 284.934 63.7983 283.222 63.4982C282.535 63.3772 282.004 63.8164 281.288 63.703C280.401 63.561 276.63 63.5801 276.066 63.7344C275.399 63.9164 274.105 64.0708 273.359 63.9431C272.602 63.8135 272.568 63.8097 271.811 63.9526C270.569 64.1861 269.678 63.8221 268.329 63.9736C268.06 64.0041 266.557 64.0489 266.491 63.9841C266.456 63.9479 266.541 63.7859 266.49 63.6944C266.388 63.5163 265.976 63.1809 265.906 62.9265C265.86 62.7645 265.942 62.5206 265.902 62.3482C265.884 62.2767 265.592 62.149 265.705 61.7698C265.941 60.9809 265.824 60.6456 265.887 59.8405C265.959 58.9106 265.79 55.4425 265.859 55.2128C266.382 53.4626 265.515 51.2884 266.017 49.4267C266.05 49.3076 265.778 48.0451 266.003 47.1124C266.069 46.8418 266.111 46.3987 266.191 46.1472C266.221 46.0538 266.453 46.0129 266.381 45.7604C266.342 45.6251 265.835 45.3202 265.798 45.1859C265.747 45.0077 265.759 44.254 265.79 44.0292C265.843 43.6567 266.284 42.9726 266.168 42.4838C265.887 41.3147 265.834 41.6387 265.962 40.3639C266.207 37.9333 265.761 35.2989 265.918 33.037C266.054 31.0772 265.32 29.044 265.496 27.2537C265.517 27.046 265.855 26.1094 265.875 25.9017C266.064 23.9552 265.586 22.0963 265.841 20.3099C265.957 19.4972 265.615 19.3019 265.828 18.3815C266.307 16.3273 265.548 14.4837 265.793 12.4038C265.914 11.3719 266.054 10.2238 265.773 9.12528C265.559 8.28589 265.589 8.07819 265.762 7.19687C265.952 6.22028 265.656 4.632 265.546 3.53441C265.512 3.18379 265.472 2.28723 265.536 1.99187C265.552 1.92327 265.691 1.88135 265.728 1.7975C265.755 1.73748 265.702 1.64696 265.727 1.60504C265.78 1.51548 266.353 0.939053 266.4 0.926667C266.553 0.883792 267.39 0.88284 267.56 0.919998C268.737 1.17534 270.258 1.04957 271.622 0.895226C272.485 0.798043 273.972 1.3173 274.14 1.2649C275.493 0.846634 277.071 1.19535 278.395 1.04672C280.048 0.861879 281.679 1.32111 283.425 1.20869C284.102 1.16581 284.892 0.927619 285.747 1.00194C287.177 1.12675 288.715 0.832343 290.196 1.16772C290.706 1.283 291.042 0.852351 291.55 0.966683C293.214 1.34398 293.805 0.578905 295.031 0.75231C297.176 1.0572 299.595 0.664655 301.611 1.29158C302.652 1.61648 303.522 1.62696 304.516 1.85276C305.533 2.08429 306.061 2.37869 307.037 2.80173C307.987 3.21237 308.876 3.44771 309.946 3.94124C310.968 4.41287 312.219 4.80636 313.242 5.27131C314.28 5.74389 313.931 6.39559 315.379 6.80147C315.821 6.92438 316.733 8.46787 317.132 8.7194C318.823 9.78174 319.781 10.8479 320.926 12.4571C322.21 14.2588 322.932 16.131 323.864 18.2243C323.964 18.4482 324.435 18.9455 324.449 18.9922C324.656 19.7306 324.509 20.8015 324.852 21.882C325.166 22.8681 325.854 23.9485 326.032 24.9604C326.096 25.332 326.283 26.6344 326.237 26.8869C326.062 27.8701 326.382 30.7675 326.654 31.8985C326.761 32.3482 326.306 33.1114 326.471 33.8278C326.623 34.4862 326.588 35.6171 326.487 36.3346C326.297 37.6675 326.415 39.1129 326.124 40.3858C325.91 41.3262 325.43 42.3466 325.175 43.2841C325.033 43.8053 324.981 44.558 324.799 45.022C324.706 45.2554 324.239 45.7394 324.223 45.7966C324.156 46.0338 324.482 46.6036 324.229 46.8589ZM302.355 44.7733C302.972 43.6557 303.991 43.3689 304.465 41.6749C304.529 41.4443 305.054 41.3805 305.236 41.0918C305.717 40.3219 305.48 39.1529 305.991 38.1954C306.062 38.0629 306.349 37.9048 306.377 37.8076C306.754 36.4127 307.243 34.1165 307.118 32.5969C307.071 32.01 306.595 30.4465 306.715 29.8996C306.833 29.3555 306.669 27.7491 306.504 27.0079C306.457 26.7935 305.941 26.3114 305.919 26.24C305.699 25.5092 305.693 24.5364 305.325 23.9295C305.216 23.7485 304.779 23.4836 304.741 23.355C304.316 21.9477 304.246 22.2507 303.373 21.2417C303.019 20.8301 301.584 18.7731 301.132 18.6521C300.968 18.6092 300.718 18.6997 300.552 18.6559C300.349 18.6025 299.878 18.2176 299.582 18.0833C298.782 17.7203 297.671 17.0552 296.866 16.9428C295.785 16.7913 294.719 17.0257 293.578 16.7694C292.713 16.576 292.184 16.6789 291.256 16.7837C289.914 16.9342 288.523 16.635 287.387 16.8075C286.601 16.9266 285.64 16.4969 285.165 17.3029C285.14 17.3449 285.193 17.4363 285.166 17.4954C285.129 17.5783 284.992 17.6183 284.975 17.6898C284.931 17.8498 285.015 18.0937 284.978 18.2681C284.961 18.3443 284.794 18.391 284.786 18.4625C284.559 20.0774 285.208 21.7867 285.01 23.475C284.963 23.8666 284.525 24.7632 284.633 25.2129C284.928 26.4353 284.503 26.7849 284.648 27.7196C285.274 31.7584 284.723 36.5499 285.113 40.4439C285.279 42.1046 284.835 42.9306 285.332 44.6847C285.377 44.8476 284.978 45.6594 284.952 45.8442C284.843 46.596 285.023 46.8103 285.348 47.3849C285.378 47.4382 285.321 47.5363 285.35 47.5773C285.537 47.8651 285.917 47.9356 286.223 48.0547C286.306 48.0871 286.346 48.2309 286.416 48.2462C286.874 48.3443 287.629 48.19 288.158 48.2357C288.874 48.2976 289.312 48.5958 290.093 48.4167C290.861 48.2404 291.609 48.733 292.222 48.5977C292.288 48.5825 292.734 48.2233 292.8 48.2081C293.58 48.0346 294.753 48.1928 295.7 47.9975C296.31 47.8727 297.033 47.7736 297.632 47.6002C298.562 47.3315 299.473 46.9418 300.333 46.4264C300.934 46.0681 301.618 45.3192 302.067 45.0658C302.159 45.0144 302.322 45.1001 302.357 45.0639C302.394 45.0258 302.306 44.8648 302.355 44.7733Z" fill="black"/>
<path d="M378.027 38.0516C377.992 38.0859 377.839 38.0097 377.736 38.0526C377.656 38.0859 377.62 38.2193 377.544 38.2469C376.821 38.5118 375.512 38.5061 374.644 38.4575C374.216 38.4327 371.764 38.023 371.546 38.0907C370.691 38.3556 369.367 38.265 368.644 38.1078C367.983 37.964 366.868 38.61 366.519 38.5061C365.445 38.1879 363.906 38.5995 362.648 38.3365C362.582 38.3232 362.131 37.9678 362.066 37.9544C361.209 37.7753 359.238 38.5109 358.392 38.3622C356.176 37.9725 353.642 38.5833 351.04 38.2146C350.824 38.1841 350.267 38.1774 350.073 38.2203C350.003 38.2355 349.615 38.5528 349.495 38.61C349.398 38.6547 349.235 38.5747 349.108 38.6119C348.799 38.7014 348.565 39.4875 348.245 39.6771L348.443 40.6394C348.68 41.3511 348.29 42.423 348.459 43.3386C348.602 44.1113 348.311 45.3099 348.476 46.0378C348.493 46.1083 348.638 46.1483 348.669 46.2293C348.792 46.5323 348.869 46.9115 349.159 47.0944C349.201 47.1211 349.299 47.0639 349.351 47.0935C349.474 47.1611 349.9 47.4755 349.934 47.4755C350.074 47.4746 350.648 46.9067 351.479 47.0801C351.545 47.0935 351.995 47.4489 352.062 47.4622C352.495 47.5537 353.21 47.3784 353.608 47.2602C355.459 46.7133 358.296 47.346 360.572 47.2183C362.119 47.1316 364.381 46.7514 365.794 46.9944C366.752 47.1592 368.793 46.9868 369.663 46.7781C370.308 46.6238 370.759 47.3078 371.406 47.1535C371.956 47.022 373.007 46.7934 373.532 46.7552C375.366 46.6199 376.798 47.1421 378.562 46.7248C379.34 46.5399 379.56 46.8296 380.302 46.7143C380.435 46.6933 381.393 46.3217 381.46 46.3217C381.506 46.3217 382.142 46.6838 382.236 46.7028C382.466 46.7486 382.802 46.6428 383.01 46.6981C383.055 46.7105 383.637 47.2793 383.691 47.3688C383.717 47.4098 383.664 47.5022 383.692 47.5613C383.732 47.6442 383.871 47.6842 383.887 47.7528C383.937 47.9738 383.943 49.0705 383.897 49.2953C383.865 49.4392 383.449 49.8403 383.513 50.069C384.105 52.1537 383.899 54.6576 383.748 56.8175C383.653 58.1886 384.001 58.9832 383.769 60.2885C383.655 60.9326 384.124 61.5185 383.975 62.215C383.959 62.2855 383.814 62.3265 383.782 62.4094C383.732 62.5399 383.647 62.9039 383.593 62.9886C383.307 63.4345 382.49 63.5565 381.952 63.4803C381.878 63.4698 381.828 63.2964 381.757 63.2888C380.962 63.1964 380.279 63.143 379.629 63.3012C377.164 63.9024 374.559 62.9477 372.086 63.5394C371.605 63.6537 371.387 63.3621 371.312 63.3517C370.306 63.2106 368.467 63.5965 367.635 63.3736C367.195 63.2545 367.635 62.8448 366.474 63.1878C365.271 63.5432 363.428 63.4869 362.219 63.2135C361.674 63.0906 361.211 63.5441 360.867 63.608C359.374 63.8824 358.078 63.2726 356.803 63.4393C355.211 63.648 353.633 63.0439 351.967 63.4689C351.028 63.708 349.713 63.8976 348.68 63.6813C348.377 63.6175 348.13 63.1563 347.518 63.3031C345.692 63.7404 342.752 63.8795 340.94 63.3421C340.675 63.2631 339.082 63.8195 338.815 63.7413C337.531 63.3612 336.693 63.7023 335.527 63.7614C334.241 63.8261 333.258 63.6851 332.045 63.9748C331.585 64.0853 331.472 63.8585 331.271 63.7871C330.928 63.6661 330.103 63.264 330.007 62.9267C329.906 62.5713 330.043 61.8348 329.998 61.3842C329.835 59.773 330.167 57.9523 329.966 56.1782C329.776 54.4861 330.125 52.4709 329.933 50.7788C329.681 48.556 330.505 47.0296 330.09 44.7992C329.852 43.5263 330.304 42.3467 330.068 41.3282C329.817 40.2459 330.416 38.6147 330.241 37.8573C330.106 37.2684 329.851 34.8236 330.025 34.0014C330.099 33.6488 330.311 33.7908 330.212 33.2287C329.894 31.3841 330.409 29.5681 329.793 27.6387C329.692 27.3253 330.362 26.1743 330.165 25.3225C329.981 24.5251 330.377 23.2321 330.147 22.2374C330.128 22.1603 329.882 22.1069 329.951 21.8525C330.836 18.5721 329.611 13.3957 330.265 9.70177C330.395 8.96527 329.951 8.60798 329.868 8.16113C329.647 6.96158 330.034 5.51336 329.846 4.4977C329.775 4.11659 329.765 2.56642 329.832 2.18341C329.843 2.1129 329.999 2.07003 330.024 1.98999C330.059 1.87566 329.986 1.72512 330.021 1.60412C330.034 1.55839 330.648 0.938129 330.694 0.92479C330.897 0.86667 331.233 0.963854 331.469 0.920026C331.543 0.906687 331.59 0.735188 331.661 0.72566C332.279 0.645627 333.333 0.675163 333.982 0.712321C334.458 0.738999 337.475 1.12773 337.66 1.07533C338.69 0.785684 339.987 1.27827 341.334 0.860001C341.591 0.780921 342.694 1.23635 342.884 1.23635C342.931 1.23635 343.429 0.702793 343.655 0.653249C343.886 0.601799 344.55 0.615138 344.816 0.646579C344.886 0.655154 344.935 0.825701 345.009 0.838088C345.789 0.971476 348.132 0.966713 348.684 0.816174C349.409 0.618949 350.369 0.524624 351.198 0.608468C352.105 0.698982 353.457 0.89716 354.487 0.781874C357.198 0.477938 360.303 0.827607 363.387 0.727565C365.779 0.65039 369.028 0.13875 371.51 0.48556C371.923 0.54368 374.799 0.712321 374.993 0.658013C376.831 0.140655 379.2 0.80474 380.988 0.235933C381.343 0.123505 381.585 0.523671 381.957 0.422677C382.129 0.654202 382.501 0.871434 382.639 1.09343C382.664 1.13535 382.611 1.23063 382.639 1.28589C382.7 1.40404 382.901 1.42405 382.835 1.66986C382.814 1.74513 382.666 1.78515 382.643 1.86423C382.565 2.10909 382.395 2.80652 382.456 3.02185C382.524 3.26005 383.006 3.30483 382.851 4.17662C382.62 5.47716 382.379 5.64103 382.675 7.0702C382.957 8.43648 382.904 10.2677 382.703 11.6978C382.554 12.7611 382.541 13.6234 382.723 14.7829C382.752 14.9821 382.771 15.5871 382.728 15.7471C382.715 15.7929 382.101 16.4131 382.055 16.4255C381.77 16.5055 381.245 16.3874 380.894 16.4322C380.05 16.5427 379.171 16.7171 378.188 16.6418C374.947 16.3912 371.147 16.5132 367.741 16.7047C366.647 16.7666 365.213 16.8028 364.257 16.5332C363.226 16.2416 363.324 16.6142 362.518 16.7361C361.329 16.9171 360.71 16.2321 359.421 16.5618C358.014 16.9219 356.134 16.3398 354.778 16.5894C353.784 16.7723 352.778 16.6932 351.683 16.6084C351.25 16.5741 350.332 16.5465 349.942 16.6189C349.871 16.6323 349.83 16.7876 349.751 16.8133C349.637 16.8504 349.485 16.7799 349.364 16.8152C349.018 16.9162 349.128 17.3773 349.078 17.4917C349.041 17.5707 348.917 17.6089 348.886 17.686C348.804 17.8842 348.522 18.555 348.504 18.6521C348.366 19.4572 348.927 20.5644 348.715 21.5429C348.688 21.6658 348.268 22.0936 348.333 22.3165C348.356 22.3947 348.513 22.4356 348.527 22.508C348.564 22.6853 348.486 22.9273 348.531 23.0864C348.551 23.1578 348.687 23.1959 348.725 23.2779C348.752 23.3379 348.701 23.4294 348.726 23.4703C348.797 23.5875 349.483 24.264 349.601 24.3326C349.643 24.3574 349.735 24.304 349.795 24.3316C349.879 24.3688 349.92 24.5089 349.989 24.5232C350.545 24.6442 352.402 24.5479 353.084 24.5041C354.126 24.4374 354.353 24.1878 355.599 24.4889C356.678 24.749 357.244 24.7271 358.306 24.4727C358.879 24.3355 359.82 24.9195 360.63 24.6518C361.503 24.3631 362.998 24.0544 363.916 24.2459C364.598 24.3888 364.125 24.7109 365.272 24.4307C366.509 24.1287 367.198 24.3983 368.368 24.6051C369.169 24.7461 369.332 24.2983 369.721 24.2116C370.559 24.0258 371.934 24.3555 372.816 24.1925C373.181 24.1258 373.216 23.8467 373.783 23.9944C374.946 24.2964 375.381 23.8486 376.297 23.9791C376.369 23.9896 376.417 24.1582 376.491 24.1706C376.727 24.2116 377.06 24.1116 377.265 24.1659C377.311 24.1783 377.934 24.7909 377.946 24.8366C377.994 25.0072 377.986 25.7827 377.954 25.9933C377.858 26.5878 378.026 27.4672 377.968 28.3076C377.918 29.0336 377.591 30.1464 377.791 31.0078C377.986 31.8605 377.464 32.3007 377.805 33.322C378.012 33.9423 377.825 34.1205 378.007 34.8636C378.238 35.805 377.882 36.5986 378.023 37.3704C378.048 37.5066 378.05 38.0211 378.027 38.0459V38.0516Z" fill="black"/>
<path d="M445.558 46.1288C445.417 46.2699 445.294 45.8411 444.981 46.8072C444.537 48.1735 443.801 49.4264 443.07 50.6755C442.719 51.2767 442.83 51.3167 442.69 51.835C442.649 51.9894 440.881 53.8149 440.576 54.1617C439.952 54.8725 439.181 55.7099 438.365 56.3931C438.039 56.6646 436.407 58.0404 436.053 58.1424C434.991 58.452 434.282 58.9808 433.159 59.3172C432.848 59.4105 432.002 60.3985 431.619 60.4833C431.341 60.5453 430.943 60.4357 430.651 60.4891C430.089 60.5929 429.193 61.5123 428.531 61.6591C427.905 61.7991 426.976 61.7381 426.404 61.8658C426.339 61.8801 425.892 62.2393 425.826 62.2546C424.49 62.5509 422.638 62.1945 421.378 62.4746C421.305 62.4908 420.89 62.8376 420.8 62.8643C420.469 62.9625 420.137 62.5585 419.639 62.6785C417.636 63.1568 415.731 62.5804 413.642 62.7147C412.481 62.7881 410.532 62.7528 409.58 62.932C407.795 63.2673 406.261 63.0701 404.549 62.7691C403.862 62.648 403.33 63.0873 402.615 62.9739C401.728 62.8319 397.959 62.8519 397.394 63.0053C396.727 63.1873 395.432 63.3417 394.687 63.2149C393.93 63.0844 393.896 63.0816 393.14 63.2245C391.897 63.4579 391.006 63.0939 389.657 63.2454C389.388 63.2759 387.885 63.3207 387.82 63.2569C387.783 63.2207 387.869 63.0587 387.818 62.9672C387.717 62.7891 387.304 62.4527 387.234 62.1993C387.188 62.0383 387.271 61.7934 387.23 61.621C387.212 61.5504 386.919 61.4218 387.033 61.0436C387.269 60.2547 387.153 59.9183 387.215 59.1142C387.286 58.1843 387.117 54.7162 387.186 54.4866C387.709 52.7363 386.843 50.5621 387.344 48.7004C387.377 48.5813 387.105 47.3189 387.33 46.3861C387.396 46.1155 387.438 45.6725 387.519 45.4209C387.549 45.3276 387.78 45.2866 387.709 45.0341C387.671 44.8988 387.163 44.5939 387.126 44.4586C387.075 44.2805 387.088 43.5268 387.118 43.302C387.171 42.9304 387.613 42.2453 387.496 41.7566C387.215 40.5875 387.162 40.9124 387.29 39.6367C387.535 37.2061 387.089 34.5708 387.246 32.3098C387.382 30.35 386.648 28.3158 386.824 26.5265C386.845 26.3188 387.183 25.3812 387.203 25.1745C387.392 23.227 386.914 21.3682 387.169 19.5827C387.285 18.7699 386.943 18.5746 387.156 17.6542C387.635 15.6001 386.876 13.7555 387.121 11.6765C387.242 10.6447 387.383 9.49659 387.101 8.39804C386.887 7.55865 386.917 7.35095 387.09 6.46963C387.281 5.49304 386.984 3.90476 386.874 2.80717C386.839 2.45655 386.801 1.55999 386.865 1.26463C386.88 1.19603 387.019 1.1541 387.056 1.07121C387.083 1.01119 387.031 0.920675 387.055 0.878753C387.108 0.788239 387.681 0.212763 387.728 0.199425C387.881 0.15655 388.718 0.155597 388.888 0.192755C390.065 0.448099 391.586 0.323285 392.951 0.167983C393.813 0.0708001 395.301 0.590062 395.468 0.538612C396.821 0.120344 398.399 0.468107 399.724 0.319475C401.375 0.134636 403.007 0.593873 404.753 0.482398C405.429 0.439524 406.219 0.20133 407.074 0.275647C408.504 0.40046 410.042 0.106053 411.524 0.44143C412.033 0.556716 412.368 0.125108 412.878 0.240394C414.54 0.61674 415.13 -0.147385 416.358 0.0260196C418.505 0.329955 420.923 -0.0625879 422.939 0.564337C423.98 0.889233 424.85 0.899714 425.844 1.12552C426.862 1.35705 427.389 1.65145 428.365 2.07448C429.315 2.48608 430.205 2.72047 431.274 3.214C432.296 3.68563 433.548 4.07912 434.57 4.54408C435.609 5.0157 435.259 5.66835 436.708 6.07423C437.149 6.19714 438.061 7.74063 438.46 7.99216C440.151 9.05451 441.11 10.1197 442.255 11.7299C443.538 13.5316 444.26 15.4038 445.192 17.4961C445.292 17.72 445.764 18.2173 445.777 18.264C445.984 19.0015 445.837 20.0724 446.182 21.1538C446.495 22.1399 447.183 23.2194 447.361 24.2322C447.426 24.6038 447.612 25.9062 447.566 26.1597C447.391 27.1429 447.711 30.0403 447.983 31.1713C448.091 31.621 447.636 32.3841 447.802 33.1006C447.953 33.759 447.918 34.8909 447.817 35.6074C447.627 36.9412 447.745 38.3857 447.454 39.6586C447.24 40.5989 446.76 41.6194 446.505 42.5569C446.363 43.0781 446.311 43.8308 446.129 44.2948C446.037 44.5282 445.569 45.0132 445.553 45.0703C445.484 45.3037 445.81 45.8735 445.558 46.1288ZM423.683 44.0432C424.299 42.9256 425.318 42.6388 425.793 40.9448C425.857 40.7133 426.383 40.6494 426.563 40.3617C427.045 39.5919 426.807 38.4238 427.318 37.4653C427.389 37.3328 427.676 37.1756 427.704 37.0775C428.081 35.6826 428.57 33.3865 428.445 31.8668C428.398 31.2799 427.922 29.7173 428.043 29.1695C428.16 28.6254 427.996 27.02 427.831 26.2788C427.784 26.0644 427.268 25.5823 427.246 25.5108C427.027 24.78 427.02 23.8082 426.653 23.2003C426.542 23.0193 426.107 22.7544 426.069 22.6249C425.643 21.2176 425.574 21.5206 424.701 20.5116C424.348 20.101 422.913 18.043 422.46 17.922C422.296 17.8781 422.046 17.9696 421.88 17.9248C421.677 17.8715 421.207 17.4866 420.91 17.3522C420.11 16.9892 418.999 16.3232 418.195 16.2117C417.112 16.0603 416.046 16.2937 414.905 16.0383C414.041 15.8449 413.511 15.9478 412.583 16.0526C411.241 16.2032 409.85 15.904 408.714 16.0755C407.928 16.1946 406.967 15.7649 406.492 16.5709C406.467 16.6129 406.52 16.7034 406.493 16.7634C406.456 16.8463 406.319 16.8863 406.302 16.9568C406.258 17.1169 406.342 17.3608 406.305 17.5351C406.289 17.6114 406.122 17.6581 406.113 17.7295C405.886 19.3445 406.535 21.0528 406.337 22.7421C406.291 23.1346 405.853 24.0302 405.96 24.4799C406.255 25.7023 405.831 26.0529 405.976 26.9867C406.602 31.0255 406.05 35.817 406.44 39.711C406.606 41.3717 406.163 42.1977 406.659 43.9527C406.705 44.1156 406.305 44.9274 406.279 45.1122C406.17 45.864 406.351 46.0784 406.675 46.6529C406.705 46.7053 406.648 46.8034 406.677 46.8453C406.863 47.1321 407.245 47.2036 407.55 47.3227C407.633 47.3551 407.673 47.4989 407.744 47.5142C408.202 47.6123 408.957 47.458 409.485 47.5037C410.201 47.5656 410.639 47.8639 411.421 47.6847C412.189 47.5085 412.937 48.0001 413.549 47.8658C413.615 47.8505 414.062 47.4913 414.127 47.4761C414.908 47.3027 416.08 47.4608 417.028 47.2655C417.637 47.1407 418.362 47.0416 418.96 46.8682C419.89 46.5995 420.801 46.2098 421.661 45.6944C422.261 45.3361 422.945 44.5873 423.394 44.3338C423.486 44.2824 423.649 44.3691 423.684 44.3319C423.722 44.2957 423.633 44.1347 423.683 44.0432Z" fill="black"/>
</svg>
