<svg width="225" height="165" viewBox="0 0 225 165" fill="none" xmlns="http://www.w3.org/2000/svg">
<g opacity="0.971">
<path fill-rule="evenodd" clip-rule="evenodd" d="M122.783 0C123.225 1.73725 123.609 3.49664 123.934 5.27816C125.807 5.46485 127.674 5.68158 129.536 5.92837C127.976 6.85907 126.415 7.78973 124.855 8.72045C124.768 8.86739 124.755 9.02038 124.817 9.17942C125.201 10.864 125.56 12.5469 125.891 14.2281C124.513 13.0996 123.144 11.9012 121.785 10.6328C120.199 11.5508 118.614 12.4687 117.028 13.3866C117.002 13.3612 116.976 13.3356 116.951 13.3102C117.715 11.6495 118.457 9.9794 119.176 8.29972C119.001 8.04836 118.796 7.81887 118.562 7.61127C117.379 6.61367 116.228 5.58099 115.109 4.51321C116.899 4.59471 118.691 4.7477 120.481 4.97218C120.532 4.94669 120.583 4.92118 120.634 4.89569C121.352 3.26181 122.068 1.62991 122.783 0Z" fill="black"/>
<path fill-rule="evenodd" clip-rule="evenodd" d="M101.143 0.0764951C101.292 0.218217 101.407 0.396705 101.488 0.611961C102.089 2.06537 102.69 3.51878 103.291 4.97218C103.406 4.99768 103.521 5.02318 103.637 5.04868C105.386 4.85508 107.139 4.71484 108.893 4.62796C107.475 5.85 106.094 7.11217 104.749 8.41446C105.481 10.0902 106.223 11.7604 106.975 13.4249C106.898 13.4759 106.821 13.4759 106.745 13.4249C105.235 12.5197 103.726 11.6145 102.217 10.7093C100.836 11.9078 99.4543 13.1061 98.073 14.3046C98.0477 14.2536 98.0216 14.2026 97.9963 14.1516C98.406 12.4169 98.8151 10.683 99.2241 8.94993C97.6525 7.92413 96.0663 6.91697 94.4662 5.92837C96.3072 5.72191 98.149 5.53067 99.9915 5.35466C100.365 3.59311 100.749 1.83373 101.143 0.0764951Z" fill="black"/>
<path fill-rule="evenodd" clip-rule="evenodd" d="M144.04 4.05424C144.12 5.85224 144.197 7.66259 144.27 9.4854C146.038 10.0261 147.803 10.5742 149.565 11.13C147.812 11.7806 146.06 12.4308 144.309 13.0807C144.305 14.7767 144.344 16.4723 144.424 18.1676C144.398 18.3334 144.372 18.499 144.347 18.6648C143.322 17.3242 142.311 15.9728 141.316 14.6106C141.216 14.4865 141.101 14.3845 140.97 14.3046C139.292 14.8834 137.617 15.4698 135.944 16.064C135.906 16.0385 135.867 16.013 135.829 15.9875C136.896 14.4964 137.945 12.992 138.975 11.4743C137.875 9.99539 136.775 8.51643 135.675 7.03755C135.769 6.95234 135.872 6.9396 135.982 6.9993C137.641 7.52088 139.304 8.00537 140.97 8.45271C142.004 6.99101 143.027 5.52485 144.04 4.05424Z" fill="black"/>
<path fill-rule="evenodd" clip-rule="evenodd" d="M79.8857 4.36022C79.9625 4.35366 80.0262 4.37916 80.0776 4.43672C81.0568 5.90569 82.0544 7.3591 83.0704 8.79694C84.8308 8.24878 86.5836 7.76433 88.3271 7.34353C87.2274 8.82241 86.127 10.3014 85.0273 11.7803C86.0379 13.2337 87.0478 14.6871 88.0585 16.1405C88.1337 16.2368 88.1598 16.3387 88.1352 16.4465C86.3618 15.7914 84.6474 15.1539 82.9937 14.5341C81.8549 15.9905 80.7161 17.4439 79.5788 18.8943C79.5535 18.8433 79.5274 18.7923 79.5021 18.7413C79.5826 17.0594 79.6594 15.3765 79.7323 13.6926C79.7069 13.5651 79.6809 13.4377 79.6555 13.3102C77.8959 12.6456 76.1562 11.9954 74.4372 11.3595C76.2053 10.768 77.9957 10.2452 79.809 9.79138C79.8282 7.98089 79.8535 6.17049 79.8857 4.36022Z" fill="black"/>
<path fill-rule="evenodd" clip-rule="evenodd" d="M163.992 12.0862C164.069 12.0839 164.12 12.1222 164.146 12.201C163.801 13.9431 163.507 15.6897 163.263 17.4409C164.871 18.2993 166.469 19.1663 168.059 20.0417C167.96 20.1845 167.844 20.21 167.714 20.1182C165.99 20.4195 164.264 20.6999 162.534 20.9597C162.272 22.8069 161.952 24.6428 161.575 26.4673C160.78 24.7905 159.949 23.1331 159.081 21.4951C157.528 21.7578 155.994 22.0001 154.476 22.2218C154.438 22.2601 154.4 22.2983 154.361 22.3366C154.145 22.3045 153.927 22.279 153.709 22.2601C155.025 20.9607 156.356 19.6729 157.7 18.3971C156.872 16.7328 156.053 15.0627 155.244 13.3866C155.269 13.3612 155.295 13.3356 155.321 13.3102C156.92 14.1711 158.531 15.0126 160.155 15.8345C161.484 14.6368 162.764 13.3873 163.992 12.0862Z" fill="black"/>
<path fill-rule="evenodd" clip-rule="evenodd" d="M59.9335 12.6217C59.9642 12.5433 60.0148 12.5305 60.087 12.5834C61.3309 13.8488 62.5971 15.0855 63.8856 16.2935C65.4633 15.5006 67.0365 14.6974 68.605 13.8839C68.6925 13.8266 68.7693 13.8393 68.8353 13.9221C68.0241 15.5714 67.2053 17.2161 66.3796 18.8561C67.7333 20.1288 69.0632 21.4292 70.3701 22.7573C70.093 22.7672 69.8244 22.78 69.5643 22.7955C69.5067 22.7477 69.443 22.7094 69.3724 22.6808C67.8944 22.4595 66.4241 22.2173 64.9599 21.9541C64.0958 23.5996 63.2517 25.2569 62.4275 26.9263C62.096 25.0701 61.776 23.2342 61.4683 21.4186C59.8314 21.1381 58.1938 20.8577 56.557 20.5772C56.4633 20.6156 56.3743 20.6411 56.2884 20.6537C56.1986 20.5471 56.0835 20.4833 55.943 20.4624C57.5615 19.5985 59.1853 18.7443 60.816 17.8999C60.5942 16.167 60.3003 14.4076 59.9335 12.6217Z" fill="black"/>
<path fill-rule="evenodd" clip-rule="evenodd" d="M109.047 18.9708C132.693 18.324 153.694 25.3233 172.05 39.9687C188.553 53.6595 199.258 70.9856 204.165 91.9472C208.565 112.656 206.339 132.621 197.489 151.843C196.627 153.638 195.706 155.398 194.726 157.121C184.6 143.818 174.547 130.456 164.568 117.038C163.22 114.804 161.57 112.802 159.618 111.033C159.158 110.803 158.722 110.535 158.313 110.229C157.759 109.588 157.145 109.014 156.472 108.508C156.062 108.27 155.627 108.091 155.167 107.973C154.608 107.961 154.045 107.885 153.479 107.743C152.777 107.261 152.087 106.763 151.407 106.252C150.581 105.905 149.737 105.612 148.874 105.372C148.568 105.194 148.261 105.015 147.954 104.837C146.627 103.769 145.348 102.647 144.117 101.471C140.203 97.6713 136.341 93.8213 132.529 89.92C131.74 89.2415 130.819 88.9095 129.766 88.9256C128.555 88.5003 127.429 87.9136 126.39 87.1662C125.904 86.7837 125.418 86.4013 124.932 86.0188C123.725 84.8147 122.471 83.6673 121.172 82.5765C120.267 81.3939 119.192 80.3994 117.949 79.5932C115.629 78.3042 113.224 78.0748 110.735 78.9047C109.497 79.4578 108.346 80.1462 107.282 80.9701C105.57 82.4465 103.882 83.9503 102.217 85.4833C100.529 86.7585 98.8404 88.0329 97.1521 89.3081C96.1008 90.3813 95.0779 91.4782 94.0825 92.5974C93.3689 93.2323 92.6782 93.8955 92.0106 94.5862C91.2432 95.1469 90.4758 95.7084 89.7084 96.2691C88.7852 97.2154 87.8897 98.1838 87.0225 99.1759C86.4531 99.6012 85.8392 99.869 85.1808 99.9791C84.6965 100.047 84.2231 100.149 83.7611 100.285C82.2416 100.306 80.8481 100.777 79.5788 101.7C79.1299 102.039 78.6947 102.396 78.2742 102.771C67.8614 114.477 57.3359 126.092 46.6959 137.615C41.2185 143.534 35.5782 149.309 29.7749 154.941C29.7021 154.988 29.6381 154.975 29.583 154.903C23.9766 143.724 20.6256 131.765 19.5302 119.026C18.0499 96.2791 23.9333 75.6762 37.1803 57.2184C50.9811 38.7608 69.1553 26.7893 91.7036 21.3039C97.4276 20.0206 103.209 19.2429 109.047 18.9708ZM64.2309 46.3561C65.2132 46.4278 66.1601 46.4278 67.0703 46.3561C69.1952 46.4711 71.2671 46.8153 73.2862 47.3887C76.0311 48.1508 78.3717 49.5659 80.3078 51.6342C82.7005 54.7206 82.8026 57.8824 80.6148 61.1196C79.3156 62.6659 77.7424 63.8516 75.8953 64.6766C73.3483 65.8245 70.6885 66.5767 67.9144 66.9332C66.751 73.0958 63.5541 77.8766 58.322 81.2761C55.0176 83.2726 51.4369 84.1645 47.5784 83.9534C45.1811 83.8295 43.1728 82.8985 41.5544 81.1613C40.4005 79.6207 39.8889 77.8873 40.0196 75.9597C40.1927 75.194 40.538 74.5183 41.0556 73.9325C42.2566 73.266 43.2411 73.5083 44.0101 74.6592C44.3746 75.5573 44.2334 76.3605 43.588 77.0688C42.354 77.6976 41.9573 78.6791 42.3985 80.0139C42.75 81.2057 43.5043 82.0349 44.6623 82.5C48.1563 83.8348 51.4814 83.5029 54.6385 81.5056C56.1763 80.3298 57.4425 78.9147 58.4371 77.2601C59.1861 75.996 59.8767 74.6956 60.509 73.3588C61.7115 70.554 62.9133 67.7492 64.1158 64.9444C65.3076 62.1843 66.7909 59.609 68.5667 57.2184C69.8482 55.609 71.3447 54.2448 73.0559 53.1259C73.3176 53.0416 73.5217 53.1054 73.6699 53.3171C71.624 56.0961 70.1276 59.1559 69.1806 62.4965C68.8698 63.5439 68.6012 64.6021 68.3748 65.6711C68.4002 65.7348 68.4262 65.7986 68.4516 65.8623C72.0744 65.6777 74.8501 63.9948 76.7778 60.8136C78.4392 57.8198 78.4645 54.8109 76.8545 51.7872C75.6068 49.9581 73.9315 48.6703 71.8281 47.9242C70.2012 47.3574 68.5252 47.0896 66.8017 47.121C61.4514 47.0545 56.6805 48.6481 52.4898 51.9019C49.8284 54.1097 48.0251 56.8762 47.0796 60.2017C46.6392 62.1385 46.7673 64.0509 47.4633 65.9388C48.6505 68.4779 50.6204 69.7273 53.3723 69.6871C54.6001 69.5342 55.623 68.9988 56.4419 68.0807C56.8294 67.523 56.9575 66.9111 56.8256 66.2448C56.3736 65.1951 56.5148 64.2389 57.2476 63.3762C58.4424 62.7448 59.2735 63.0636 59.7416 64.3324C59.9627 65.2155 59.8606 66.0569 59.4347 66.8567C58.2844 68.4452 56.7373 69.4525 54.792 69.8783C51.7377 70.4475 48.9498 69.8355 46.4274 68.0424C44.6447 66.5273 43.7491 64.5894 43.7415 62.2288C43.8696 58.2768 45.4044 54.9875 48.3458 52.3609C52.1368 49.275 56.4472 47.4264 61.2764 46.815C61.334 46.7671 61.3977 46.7289 61.4683 46.7003C62.1858 46.5998 62.8895 46.5105 63.5786 46.4325C63.8096 46.5208 64.0268 46.4953 64.2309 46.3561ZM179.494 61.1196C179.407 61.3789 179.305 61.6338 179.187 61.8846C178.342 61.9356 177.498 61.9865 176.654 62.0376C175.3 64.8772 173.982 67.733 172.702 70.605C172.335 71.4473 172.117 72.327 172.05 73.2441C171.98 74.0286 172.338 74.4493 173.124 74.5063C173.888 74.3803 174.579 74.0871 175.196 73.6266C176.348 72.7198 177.294 71.6362 178.035 70.3755C178.323 70.2896 178.604 70.3151 178.88 70.452C177.781 72.579 176.145 74.1471 173.968 75.1565C171.269 76.0048 169.735 75.0359 169.364 72.2497C169.431 71.8281 169.469 71.4074 169.479 70.9875C168.648 71.6122 167.816 72.2369 166.985 72.8616C166.192 73.3972 165.322 73.7415 164.376 73.8943C163.233 73.8522 162.671 73.2657 162.688 72.1349C162.69 71.7424 162.754 71.3599 162.879 70.9875C164.05 68.4823 165.175 65.9579 166.256 63.4145C166.327 62.6959 166.007 62.4536 165.297 62.6878C164.116 63.4056 163.131 64.3363 162.342 65.4798C162.087 65.8878 161.83 66.2958 161.575 66.7038C160.472 69.0172 159.359 71.3248 158.237 73.6266C157.188 73.6776 156.139 73.6776 155.09 73.6266C155.535 72.625 155.97 71.6178 156.395 70.605C156.37 70.5795 156.344 70.554 156.318 70.5285C155.182 71.7006 153.902 72.6822 152.481 73.4736C150.729 74.3217 149.732 73.7862 149.488 71.8672C149.493 71.5172 149.57 71.1858 149.719 70.8727C149.68 70.86 149.642 70.8473 149.604 70.8345C148.875 71.4582 148.146 72.0829 147.416 72.7086C146.812 73.107 146.173 73.4385 145.498 73.7031C144.461 74.0301 143.63 73.7623 143.004 72.8999C142.778 72.2978 142.753 71.6858 142.927 71.064C143.753 69.0733 144.61 67.0972 145.498 65.1356C145.212 65.1364 144.931 65.1874 144.654 65.2886C144.056 65.318 143.467 65.3307 142.889 65.3268C142.213 68.5789 140.498 71.116 137.747 72.9381C136.77 73.5432 135.709 73.8874 134.563 73.9708C132.358 73.8642 131.156 72.7167 130.956 70.5285C130.024 71.5074 129.014 72.3871 127.925 73.1676C126.994 73.7345 125.996 73.913 124.932 73.7031C124.102 73.0633 123.834 72.2345 124.126 71.217C125.324 68.5486 126.5 65.8713 127.656 63.185C127.757 62.9627 127.783 62.7332 127.733 62.4965C127.358 62.2895 126.987 62.3023 126.62 62.5348C125.478 63.2397 124.57 64.1703 123.896 65.3268C122.65 67.9766 121.435 70.6412 120.251 73.3206C119.176 73.3716 118.102 73.3716 117.028 73.3206C118.473 70.0708 119.918 66.8198 121.363 63.5675C121.594 62.7062 121.3 62.413 120.481 62.6878C119.558 63.1739 118.803 63.8496 118.217 64.7149C117.622 65.6728 117.084 66.6672 116.606 67.6982C115.78 69.5872 114.923 71.4613 114.035 73.3206C112.986 73.3716 111.938 73.3716 110.888 73.3206C111.274 72.463 111.67 71.6088 112.078 70.758C112.138 70.6475 112.125 70.5456 112.04 70.452C111.096 71.2777 110.099 72.0299 109.047 72.7086C108.325 73.1638 107.546 73.4571 106.706 73.5883C105.412 73.3655 104.9 72.6005 105.171 71.2935C105.195 71.1362 105.234 70.9832 105.286 70.8345C105.248 70.809 105.21 70.7835 105.171 70.758C104.366 71.4071 103.561 72.0573 102.754 72.7086C101.964 73.2175 101.107 73.5618 100.183 73.7413C98.6946 73.4151 97.9656 72.4844 97.9963 70.9492C97.9832 70.3257 98.0983 69.7265 98.3416 69.1516C98.7913 68.0257 99.3415 66.9547 99.9915 65.9388C99.9784 65.9133 99.9662 65.8878 99.9531 65.8623C98.9724 66.2953 98.1021 66.1424 97.344 65.4033C97.1199 65.0001 97.0048 64.5666 96.9986 64.1029C96.8935 64.0909 96.7907 64.1037 96.6917 64.1412C96.1829 64.5711 95.7608 65.0683 95.4255 65.6328C94.2468 68.1648 93.0826 70.7019 91.9338 73.2441C90.884 73.3078 89.835 73.295 88.7875 73.2058C89.1935 72.3198 89.5772 71.4274 89.9386 70.5285C89.858 70.5171 89.7813 70.5298 89.7084 70.5668C88.601 71.6665 87.3479 72.559 85.9482 73.2441C85.3734 73.4886 84.7848 73.5396 84.1832 73.3971C83.7235 73.1937 83.4288 72.8494 83.3007 72.3644C83.2393 71.8251 83.2523 71.2896 83.339 70.758C83.3007 70.7325 83.2623 70.707 83.2239 70.6815C82.5471 71.2542 81.8687 71.8279 81.1903 72.4026C80.2948 73.0529 79.2972 73.4482 78.1975 73.5883C77.0134 73.4148 76.3611 72.7264 76.2406 71.5229C76.167 70.7997 76.2184 70.0858 76.3941 69.3811C77.3303 66.5584 79.0055 64.2763 81.4205 62.5348C82.5739 61.6919 83.8279 61.029 85.1808 60.5459C86.6419 60.1275 88.1253 60.1021 89.6317 60.4694C90.0046 60.5933 90.363 60.7462 90.706 60.9284C89.3324 63.9097 87.9894 66.9058 86.6772 69.9165C86.5651 70.241 86.5398 70.5724 86.6004 70.911C86.7263 71.0963 86.9051 71.1728 87.1376 71.1405C87.7009 71.0319 88.1997 70.7897 88.634 70.4138C89.8987 69.3066 90.9347 68.0189 91.742 66.5508C92.6352 64.6801 93.5177 62.8059 94.3895 60.9284C95.3871 60.8773 96.3847 60.8773 97.3823 60.9284C97.0907 61.5218 96.8099 62.121 96.5382 62.726C96.5635 62.7515 96.5896 62.777 96.6149 62.8025C97.5796 61.981 98.5772 61.2033 99.6078 60.4694C100.1 60.136 100.612 60.085 101.143 60.3164C101.407 60.5969 101.446 60.9157 101.258 61.2726C100.797 61.9606 100.44 62.7001 100.183 63.491C99.9915 64.1653 100.234 64.4585 100.912 64.3707C101.818 63.8764 102.636 63.2645 103.368 62.5348C105.659 60.7364 108.242 59.9969 111.119 60.3164C111.57 60.4239 112.005 60.5769 112.423 60.7754C112.604 60.8665 112.667 61.0067 112.615 61.1961C111.162 64.359 109.743 67.5336 108.356 70.7197C108.52 71.0186 108.776 71.1844 109.123 71.217C109.85 71.0334 110.489 70.6892 111.042 70.1843C112.37 68.937 113.432 67.4964 114.227 65.8623C114.963 64.2336 115.692 62.6017 116.414 60.9666C117.461 60.8774 118.51 60.8647 119.56 60.9284C119.204 61.5227 118.923 62.1474 118.716 62.8025C118.796 62.8139 118.873 62.8012 118.946 62.7643C119.974 61.7657 121.177 61.0518 122.553 60.6224C123.528 60.3757 124.231 60.6945 124.663 61.5786C124.796 61.9496 124.873 62.3321 124.893 62.726C125.962 61.8429 127.151 61.1671 128.462 60.6989C128.971 60.5926 129.47 60.5543 129.958 60.5841C130.896 60.924 131.28 61.5869 131.109 62.573C129.931 65.4605 128.677 68.3164 127.349 71.1405C127.298 71.3954 127.298 71.6505 127.349 71.9054C127.709 72.0242 128.054 71.986 128.385 71.7907C129.354 71.0041 130.185 70.0989 130.879 69.0751C131.165 67.231 131.907 65.5992 133.105 64.1794C134.003 63.0538 135.064 62.1231 136.289 61.3873C137.927 60.4487 139.615 60.3212 141.354 61.0049C142.227 61.7006 142.688 62.5931 142.735 63.6822C142.847 63.8555 142.911 64.0468 142.927 64.2559C143.339 64.5051 143.773 64.6072 144.232 64.5619C145.888 63.8929 146.924 62.6945 147.34 60.9666C148.389 60.9538 149.438 60.9666 150.486 61.0049C149.013 64.2587 147.594 67.5353 146.227 70.8345C146.036 71.376 146.215 71.682 146.764 71.7524C147.111 71.7133 147.431 71.5986 147.723 71.4082C148.717 70.6219 149.548 69.6912 150.217 68.6161C151.458 66.1685 152.648 63.6951 153.786 61.1961C154.835 61.0941 155.883 61.0941 156.932 61.1961C155.631 64.2484 154.288 67.2827 152.903 70.299C152.55 71.7358 152.998 72.0546 154.246 71.2552C156.03 69.7834 157.475 68.0368 158.582 66.0153C159.269 64.3907 159.998 62.7843 160.769 61.1961C161.868 61.1069 162.968 61.0941 164.069 61.1579C163.734 61.7547 163.49 62.3794 163.34 63.032C164.416 62.0809 165.631 61.3542 166.985 60.8519C167.568 60.6567 168.157 60.6313 168.75 60.7754C169.226 60.9433 169.545 61.262 169.709 61.7316C169.867 62.3328 169.816 62.9193 169.556 63.491C168.533 65.7348 167.509 67.9787 166.486 70.2225C166.101 71.4199 166.472 71.7897 167.599 71.3317C168.741 70.6268 169.649 69.6962 170.323 68.5396C171.387 66.3813 172.397 64.2011 173.354 61.9993C172.79 61.9864 172.227 61.9481 171.666 61.8846C171.807 61.6041 171.948 61.3236 172.088 61.0431C172.523 61.0686 172.958 61.0941 173.393 61.1196C173.546 61.0686 173.7 61.0176 173.853 60.9666C174.649 59.2143 175.455 57.4676 176.27 55.7267C177.345 55.6757 178.419 55.6757 179.494 55.7267C178.679 57.4624 177.886 59.209 177.115 60.9666C177.256 61.0225 177.396 61.0735 177.537 61.1196C178.177 61.0678 178.83 61.0678 179.494 61.1196Z" fill="black"/>
<path fill-rule="evenodd" clip-rule="evenodd" d="M173.278 23.2545C174.756 24.371 176.214 25.5184 177.652 26.6968C179.136 25.7786 180.594 24.8224 182.026 23.8282C182.113 23.7709 182.19 23.7836 182.256 23.8665C181.586 25.4867 180.947 27.1186 180.338 28.7622C180.449 28.9119 180.577 29.0521 180.721 29.1829C182.04 30.21 183.344 31.2554 184.635 32.3192C182.787 32.3555 180.92 32.3301 179.033 32.2427C178.365 33.9693 177.687 35.6904 176.999 37.4061C176.487 35.6301 176.013 33.8453 175.58 32.0515C175.033 32.1155 174.457 32.09 173.853 31.975C173.016 31.9259 172.172 31.9259 171.321 31.975C170.905 31.881 170.483 31.8045 170.055 31.7455C171.583 30.7605 173.105 29.7661 174.621 28.7622C174.672 28.6347 174.672 28.5072 174.621 28.3797C174.161 26.6732 173.713 24.9648 173.278 23.2545Z" fill="black"/>
<path fill-rule="evenodd" clip-rule="evenodd" d="M50.8015 23.943C50.8491 23.9749 50.8752 24.0259 50.8782 24.096C50.3932 25.8525 49.9451 27.6119 49.5353 29.3741C51.0831 30.4068 52.6302 31.4395 54.178 32.4722C53.5288 32.4684 52.8765 32.5322 52.2212 32.6634C51.001 32.6467 49.7855 32.6467 48.5761 32.6634C48.131 34.4665 47.6322 36.2514 47.0796 38.0181C46.4143 36.2961 45.7873 34.5622 45.1995 32.8164C44.482 32.8649 43.753 32.8649 43.0125 32.8164C42.4415 32.8218 41.8788 32.8728 41.3242 32.9694C40.7629 32.932 40.1617 32.8937 39.5208 32.8547C40.9769 31.7344 42.4093 30.587 43.8182 29.4124C43.1444 27.7007 42.5428 26.0051 42.0148 24.3255C43.5182 25.3104 45.0146 26.3048 46.5041 27.3088C47.9621 26.2118 49.3941 25.0899 50.8015 23.943Z" fill="black"/>
<path fill-rule="evenodd" clip-rule="evenodd" d="M189.086 36.4117C190.311 37.7994 191.526 39.2018 192.731 40.6189C194.394 39.9305 196.056 39.242 197.719 38.5535C197.693 38.7643 197.616 38.9683 197.489 39.1655C196.603 40.4847 195.746 41.8234 194.918 43.1815C196.08 44.6078 197.257 46.023 198.448 47.427C196.665 47.075 194.887 46.6926 193.115 46.2796C193.051 46.305 192.987 46.3306 192.923 46.3561C192.015 47.9116 191.068 49.4415 190.084 50.9458C189.901 49.1122 189.747 47.2764 189.623 45.4381C187.822 45.0657 186.031 44.645 184.251 44.1759C185.947 43.4381 187.661 42.7368 189.393 42.0723C189.474 41.8722 189.449 41.681 189.316 41.4986C189.365 41.3528 189.39 41.1998 189.393 41.0396C189.282 39.4972 189.18 37.9545 189.086 36.4117Z" fill="black"/>
<path fill-rule="evenodd" clip-rule="evenodd" d="M35.1467 37.2531C35.1976 37.4298 35.2232 37.6211 35.2234 37.8268C35.1245 39.3315 35.0222 40.8359 34.9164 42.3401C34.942 42.5058 34.9676 42.6715 34.9932 42.8373C36.6884 43.5365 38.3767 44.2504 40.058 44.9791C38.272 45.4321 36.4814 45.8656 34.6862 46.2796C34.5218 48.0906 34.3556 49.901 34.1874 51.7107C33.1589 50.1654 32.1868 48.5844 31.2713 46.968C29.4722 47.3725 27.6817 47.806 25.8996 48.2684C25.8612 48.2302 25.8228 48.1919 25.7844 48.1537C26.991 46.7728 28.1677 45.3703 29.3145 43.9465C28.3696 42.4317 27.4488 40.9018 26.5518 39.3567C26.7624 39.3582 26.9671 39.4092 27.1658 39.5097C28.6047 40.1493 30.0499 40.774 31.5015 41.3839C32.7842 40.0669 33.9993 38.69 35.1467 37.2531Z" fill="black"/>
<path fill-rule="evenodd" clip-rule="evenodd" d="M202.132 52.3992C203.079 53.9437 204 55.5118 204.894 57.1036C206.685 56.7976 208.476 56.4917 210.266 56.1857C208.996 57.4643 207.768 58.7775 206.583 60.1252C207.449 61.7374 208.344 63.331 209.268 64.9061C209.058 64.9047 208.853 64.8536 208.655 64.7531C207.18 64.0817 205.696 63.4314 204.204 62.8025C203.826 63.0635 203.481 63.3695 203.168 63.7204C202.222 64.7774 201.263 65.8228 200.29 66.8567C200.265 66.844 200.238 66.8313 200.213 66.8185C200.496 65.004 200.714 63.1809 200.865 61.3491C199.18 60.5802 197.53 59.8024 195.916 59.016C197.731 58.6413 199.548 58.2715 201.364 57.9068C201.633 56.0698 201.888 54.2339 202.132 52.3992Z" fill="black"/>
<path fill-rule="evenodd" clip-rule="evenodd" d="M22.3312 53.2406C22.6047 55.0895 22.8605 56.9509 23.0986 58.8248C24.9258 59.1584 26.742 59.5409 28.5471 59.9722C26.9126 60.7111 25.2755 61.4505 23.6357 62.1905C23.6102 62.3053 23.5846 62.42 23.559 62.5348C23.7764 64.2672 23.9554 65.9883 24.0962 67.6982C22.8449 66.3233 21.5916 64.9464 20.3359 63.5675C18.67 64.3292 16.9946 65.0687 15.3095 65.7858C15.2711 65.7603 15.2328 65.7348 15.1944 65.7093C16.08 64.135 16.9753 62.5668 17.8803 61.0049C16.6923 59.6548 15.49 58.3161 14.2735 56.9889C16.0144 57.2748 17.7537 57.6318 19.4918 58.0598C20.4574 56.4666 21.4039 54.8602 22.3312 53.2406Z" fill="black"/>
<path fill-rule="evenodd" clip-rule="evenodd" d="M86.7156 61.1196C86.8944 61.1196 87.0739 61.1196 87.2527 61.1196C86.2881 63.4817 85.226 65.802 84.068 68.0807C83.5032 68.9752 82.851 69.8039 82.1112 70.5668C81.6884 70.9943 81.1765 71.2365 80.5764 71.2935C80.2318 71.3191 79.9633 71.1917 79.7706 70.911C79.6502 70.4862 79.6248 70.0528 79.6939 69.6106C79.9916 68.4301 80.4782 67.3336 81.1519 66.3213C82.0391 64.8754 83.1004 63.5623 84.3366 62.3818C85.0265 61.7575 85.82 61.3368 86.7156 61.1196Z" fill="black"/>
<path fill-rule="evenodd" clip-rule="evenodd" d="M108.74 61.1196C108.919 61.1196 109.098 61.1196 109.277 61.1196C108.268 63.5645 107.155 65.9614 105.939 68.3102C105.295 69.3596 104.489 70.2648 103.521 71.0257C102.974 71.3574 102.423 71.3701 101.872 71.064C101.563 70.4737 101.538 69.8618 101.795 69.2281C102.796 66.5554 104.344 64.2477 106.438 62.3053C107.115 61.7253 107.883 61.3301 108.74 61.1196Z" fill="black"/>
<path fill-rule="evenodd" clip-rule="evenodd" d="M138.822 61.3491C139.322 61.2525 139.744 61.38 140.088 61.7316C140.231 62.3413 140.231 62.9533 140.088 63.5675C139.611 65.3359 138.92 67.0188 138.016 68.6161C137.288 70.105 136.381 71.4691 135.292 72.7086C134.863 73.0825 134.416 73.2992 133.949 73.3588C133.701 73.2527 133.484 73.0997 133.296 72.8999C133.147 72.559 133.07 72.2021 133.066 71.8289C133.2 70.4978 133.545 69.2229 134.102 68.0042C134.866 66.2756 135.787 64.6437 136.865 63.1085C137.413 62.3951 138.066 61.8087 138.822 61.3491Z" fill="black"/>
<path fill-rule="evenodd" clip-rule="evenodd" d="M211.878 70.452C211.925 70.4605 211.964 70.486 211.993 70.5285C212.538 72.2614 213.114 73.9825 213.719 75.6919C215.536 75.7097 217.352 75.7097 219.168 75.6919C217.783 76.7414 216.375 77.7611 214.947 78.7517C214.865 78.8083 214.814 78.8848 214.794 78.9812C215.408 80.7161 215.958 82.4625 216.444 84.2211C214.909 83.1502 213.374 82.0793 211.839 81.0083C210.379 82.1198 208.909 83.216 207.427 84.2976C207.401 84.2594 207.375 84.2211 207.35 84.1829C207.898 82.4679 208.46 80.759 209.038 79.0577C207.508 78.0166 205.999 76.9457 204.511 75.8449C206.378 75.8195 208.245 75.7939 210.113 75.7684C210.74 74.009 211.327 72.2369 211.878 70.452Z" fill="black"/>
<path fill-rule="evenodd" clip-rule="evenodd" d="M12.662 71.4465C12.7385 71.4442 12.7897 71.4824 12.8155 71.5612C13.3861 73.2549 13.9488 74.9505 14.5038 76.6481C16.3691 76.7575 18.2365 76.834 20.1057 76.8776C18.5965 77.9355 17.0873 78.9942 15.5781 80.0522C16.1556 81.7534 16.7184 83.4623 17.2664 85.1773C17.2408 85.2156 17.2152 85.2538 17.1896 85.2921C15.706 84.1959 14.2223 83.099 12.7387 82.0028C11.219 83.0202 9.70976 84.0528 8.21112 85.1008C8.14727 85.1536 8.09616 85.1406 8.05764 85.0626C8.66112 83.3598 9.24948 81.6517 9.82265 79.9374C9.52896 79.6574 9.22201 79.3897 8.90177 79.1342C7.73702 78.3111 6.58593 77.4697 5.4485 76.6099C7.26638 76.6198 9.0825 76.6451 10.897 76.6864C11.5388 74.9581 12.1272 73.2115 12.662 71.4465Z" fill="black"/>
<path fill-rule="evenodd" clip-rule="evenodd" d="M218.017 90.1878C218.334 92.0045 218.59 93.8404 218.784 95.6954C220.588 95.9968 222.379 96.341 224.156 96.7281C222.544 97.48 220.933 98.2328 219.321 98.9847C219.443 100.798 219.647 102.609 219.935 104.416C219.91 104.441 219.884 104.467 219.858 104.492C218.54 103.187 217.222 101.887 215.906 100.591C214.313 101.354 212.713 102.106 211.11 102.848C211.033 102.899 210.957 102.899 210.88 102.848C211.756 101.254 212.651 99.6732 213.566 98.105C212.259 96.7771 210.98 95.4254 209.729 94.0508C211.572 94.372 213.414 94.704 215.254 95.0452C216.223 93.4541 217.144 91.8347 218.017 90.1878Z" fill="black"/>
<path fill-rule="evenodd" clip-rule="evenodd" d="M6.75307 91.1822C6.82029 91.1723 6.87148 91.1975 6.90655 91.2587C7.77578 92.8896 8.68383 94.496 9.6308 96.0779C11.3772 95.7321 13.1294 95.4009 14.8874 95.0835C14.9386 95.1087 14.9897 95.1347 15.0409 95.1599C13.8015 96.4848 12.5481 97.7975 11.2807 99.0994C12.1406 100.699 13.0104 102.293 13.8898 103.88C13.8643 103.906 13.8387 103.932 13.8131 103.957C12.1598 103.12 10.4972 102.304 8.82503 101.509C7.52046 102.835 6.21589 104.161 4.91132 105.487C5.07209 103.688 5.30231 101.891 5.60198 100.094C3.9649 99.2777 2.32774 98.4622 0.690655 97.646C2.46832 97.2865 4.25896 96.9683 6.06242 96.6898C6.30522 94.8555 6.53544 93.0196 6.75307 91.1822Z" fill="black"/>
<path fill-rule="evenodd" clip-rule="evenodd" d="M115.416 91.7177C115.521 91.7054 115.624 91.7184 115.723 91.7559C116.024 92.0045 116.267 92.2975 116.452 92.6356C119.503 97.7746 122.496 102.95 125.431 108.164C129.001 113.724 132.197 119.511 135.023 125.529C135.382 126.321 135.599 127.15 135.675 128.015C135.678 128.371 135.615 128.715 135.483 129.047C135.298 129.392 135.094 129.723 134.87 130.042C134.638 130.548 134.638 131.058 134.87 131.572C135.539 133.297 136.102 135.056 136.558 136.85C137.141 138.595 137.755 140.328 138.4 142.051C138.918 142.754 139.455 143.442 140.011 144.117C141.158 145.714 141.95 147.473 142.39 149.395C142.47 149.846 142.418 150.279 142.237 150.695C142.032 150.95 141.828 151.206 141.623 151.46C141.513 151.759 141.487 152.065 141.546 152.378C142.448 155.941 143.624 159.409 145.076 162.782C145.182 163.086 145.092 163.303 144.807 163.432C144.624 163.455 144.457 163.519 144.309 163.623C143.919 163.561 143.522 163.523 143.119 163.508C142.717 163.455 142.372 163.289 142.083 163.011C139.217 156.221 136.377 149.387 133.565 142.51C132.08 139.334 130.507 136.21 128.846 133.14C128.542 132.045 128.095 130.91 127.503 129.736C127.212 129.268 126.841 128.872 126.39 128.55C125.736 128.292 125.071 128.063 124.395 127.862C123.194 127.103 122.388 126.07 121.977 124.764C121.276 124.029 120.815 123.163 120.596 122.163C119.804 118.905 119.037 115.641 118.294 112.371C118.018 111.241 117.711 110.119 117.373 109.006C117.276 108.601 117.25 108.193 117.296 107.782C117.587 106.998 117.92 106.233 118.294 105.487C118.473 104.731 118.523 103.966 118.447 103.192C118.302 102.178 118.071 101.184 117.757 100.209C117.025 98.0981 116.309 95.9815 115.608 93.8595C115.45 93.3195 115.335 92.7718 115.263 92.2149C115.25 92.0236 115.302 91.8577 115.416 91.7177Z" fill="black"/>
<path fill-rule="evenodd" clip-rule="evenodd" d="M133.603 104.263C133.794 104.248 133.973 104.286 134.141 104.378C135.285 105.621 136.373 106.908 137.402 108.241C139.522 110.737 141.824 113.058 144.309 115.202C145.39 116.432 146.413 117.708 147.378 119.026C148.063 119.632 148.6 120.346 148.99 121.168C149.452 122.376 149.707 123.626 149.757 124.917C149.963 125.378 150.244 125.786 150.601 126.14C154.215 129.181 157.783 132.279 161.306 135.435C161.969 135.977 162.314 136.678 162.342 137.538C162.414 137.805 162.517 138.061 162.649 138.303C163.242 139.021 163.804 139.76 164.337 140.522C165.053 141.745 165.77 142.969 166.486 144.193C168.204 146.598 169.688 149.148 170.937 151.843C171.449 152.557 171.96 153.271 172.472 153.985C172.932 154.801 173.393 155.616 173.853 156.433C174.143 156.943 174.373 157.478 174.544 158.039C174.604 158.288 174.591 158.531 174.505 158.766C174.368 158.805 174.24 158.78 174.122 158.689C173.774 158.368 173.454 158.024 173.163 157.656C171.819 155.86 170.54 154.024 169.326 152.149C167.305 150.236 165.335 148.273 163.417 146.259C162.345 144.961 161.246 143.686 160.117 142.434C159.696 142.09 159.299 141.72 158.927 141.325C158.287 140.75 157.571 140.291 156.779 139.948C156.636 139.916 156.495 139.877 156.357 139.833C155.652 139.967 155.09 139.737 154.668 139.145C153.943 137.912 153.099 136.764 152.136 135.702C151.237 134.819 150.303 133.977 149.335 133.178C148.693 132.538 148.079 131.875 147.493 131.189C147.088 130.228 146.64 129.284 146.15 128.359C144.388 125.122 142.623 121.884 140.855 118.644C140.263 117.54 139.777 116.393 139.397 115.202C137.853 111.928 136.05 108.83 133.987 105.908C134.012 105.882 134.038 105.856 134.064 105.831C133.692 105.361 133.539 104.839 133.603 104.263Z" fill="black"/>
<path fill-rule="evenodd" clip-rule="evenodd" d="M220.242 110.688C220.212 112.462 220.11 114.248 219.935 116.043C219.961 116.12 219.987 116.196 220.012 116.273C221.686 116.927 223.349 117.602 225 118.3C223.243 118.737 221.491 119.182 219.743 119.638C219.619 121.474 219.491 123.31 219.36 125.146C218.311 123.579 217.249 122.023 216.175 120.48C214.384 120.983 212.593 121.417 210.803 121.78C211.98 120.378 213.157 118.975 214.333 117.573C213.361 116.043 212.389 114.513 211.417 112.983C211.442 112.958 211.469 112.932 211.494 112.907C213.16 113.617 214.836 114.306 216.52 114.972C216.669 114.9 216.797 114.799 216.904 114.666C218.033 113.35 219.146 112.024 220.242 110.688Z" fill="black"/>
<path fill-rule="evenodd" clip-rule="evenodd" d="M4.75784 111.683C6.01039 113.085 7.23822 114.512 8.44134 115.967C10.1723 115.285 11.899 114.597 13.6212 113.901C13.6454 114.009 13.6199 114.111 13.5445 114.207C12.5758 115.667 11.6165 117.133 10.6668 118.606C11.8434 120.034 13.0201 121.461 14.1968 122.889C12.3847 122.419 10.5686 121.96 8.74829 121.513C7.7028 123.049 6.66681 124.591 5.64035 126.14C5.49815 124.305 5.35749 122.469 5.21828 120.633C3.47891 120.161 1.73945 119.69 0 119.218C1.64491 118.531 3.30762 117.881 4.98806 117.267C5.01362 117.204 5.03925 117.139 5.0648 117.076C4.93435 115.28 4.83197 113.483 4.75784 111.683Z" fill="black"/>
<path fill-rule="evenodd" clip-rule="evenodd" d="M90.7827 111.683C90.9953 111.661 91.1872 111.713 91.3583 111.836C91.3775 112.225 91.3261 112.608 91.2048 112.983C90.5142 114.666 89.8235 116.349 89.1329 118.032C88.0478 120.879 87.7792 123.799 88.3271 126.791C88.2949 127.308 88.1797 127.805 87.9818 128.282C86.0119 131.597 84.0427 134.912 82.0728 138.227C81.5449 138.853 80.8926 139.299 80.116 139.565C80.0009 139.68 79.8857 139.795 79.7706 139.91C79.281 141.008 78.6671 142.028 77.9289 142.969C76.9343 144.14 75.9106 145.287 74.8593 146.412C74.7273 146.654 74.6245 146.91 74.5524 147.177C74.4856 147.82 74.3828 148.457 74.2454 149.089C73.9584 149.981 73.4089 150.656 72.5955 151.116C72.3522 151.359 72.1097 151.6 71.8665 151.843C70.7046 153.432 69.5152 155 68.2981 156.547C68.0425 156.738 67.863 156.687 67.7609 156.394C67.9221 155.877 68.0625 155.355 68.183 154.826C69.4699 152.303 70.6977 149.753 71.8665 147.177C72.0177 146.051 72.1965 144.929 72.4037 143.811C73.1427 141.576 73.9868 139.383 74.9361 137.232C75.418 136.603 75.8017 135.914 76.0871 135.167C76.1386 135.014 76.1386 134.861 76.0871 134.708C75.7994 134.599 75.5177 134.472 75.243 134.325C75.1693 133.806 75.2714 133.322 75.55 132.872C76.5537 130.998 77.6534 129.188 78.8498 127.441C80.0776 125.35 81.3054 123.259 82.5333 121.168C83.23 120.142 84.1379 119.365 85.2575 118.835C85.4747 118.619 85.6926 118.401 85.9098 118.185C87.3678 116.171 88.8259 114.156 90.2839 112.142C90.442 111.971 90.6086 111.818 90.7827 111.683Z" fill="black"/>
<path fill-rule="evenodd" clip-rule="evenodd" d="M158.927 120.862C159.058 120.85 159.186 120.863 159.311 120.901C162.553 123.391 165.584 126.133 168.405 129.124C169.46 130.277 170.457 131.476 171.398 132.719C171.703 133.413 171.741 134.127 171.513 134.861C171.569 135.346 171.709 135.805 171.935 136.238C173.457 138.24 174.889 140.305 176.232 142.434C177.12 143.465 177.99 144.511 178.841 145.57C179.078 146.016 179.333 146.45 179.609 146.871C179.667 147.044 179.654 147.21 179.57 147.368C179.462 147.392 179.36 147.366 179.263 147.291C178.562 146.669 177.884 146.018 177.23 145.341C174.38 141.862 171.335 138.546 168.098 135.396C166.77 133.895 165.415 132.415 164.031 130.96C163.675 130.518 163.483 130.033 163.455 129.506C163.421 129.232 163.37 128.964 163.302 128.703C163.395 128.023 163.28 127.373 162.956 126.752C161.609 125.049 160.305 123.315 159.042 121.551C158.954 121.33 158.916 121.1 158.927 120.862Z" fill="black"/>
<path fill-rule="evenodd" clip-rule="evenodd" d="M68.4516 123.769C68.5759 123.758 68.6657 123.81 68.7202 123.922C68.6964 124.634 68.4922 125.297 68.1062 125.911C65.491 130.234 62.779 134.492 59.9719 138.686C58.8776 139.34 57.8155 140.04 56.7872 140.789C55.9423 141.579 55.2133 142.459 54.6001 143.428C53.8841 144.193 53.1674 144.958 52.4514 145.723C49.1777 149.854 45.7881 153.896 42.2834 157.848C42.1668 157.925 42.0386 157.963 41.8997 157.962C41.8937 157.751 41.932 157.546 42.0148 157.35C42.2834 156.815 42.5904 156.306 42.9357 155.821C45.3269 152.749 47.6291 149.612 49.8423 146.412C51.4008 143.686 53.1405 141.085 55.0605 138.609C56.0236 137.038 57.0466 135.508 58.1301 134.019C60.74 131.035 63.4896 128.166 66.3796 125.414C67.0403 124.818 67.731 124.269 68.4516 123.769Z" fill="black"/>
<path fill-rule="evenodd" clip-rule="evenodd" d="M218.4 131.266C218.448 131.298 218.474 131.348 218.477 131.419C218.039 133.148 217.579 134.869 217.096 136.582C218.61 137.606 220.145 138.601 221.7 139.565C221.137 139.701 220.6 139.739 220.089 139.68C219.549 139.799 219.037 139.825 218.554 139.757C218.248 139.755 217.954 139.806 217.671 139.91C217.242 139.807 216.768 139.82 216.252 139.948C215.771 141.727 215.272 143.5 214.755 145.264C214.031 143.498 213.314 141.764 212.607 140.063C212.478 140.114 212.351 140.164 212.223 140.216C212.046 140.178 211.841 140.152 211.609 140.139C210.921 140.206 210.231 140.283 209.537 140.369C208.729 140.356 207.897 140.356 207.043 140.369C208.498 139.224 209.93 138.052 211.34 136.85C210.74 135.422 210.113 133.866 209.46 132.184C209.384 132.034 209.359 131.881 209.384 131.725C210.944 132.744 212.505 133.765 214.065 134.784C215.523 133.619 216.968 132.446 218.4 131.266Z" fill="black"/>
<path fill-rule="evenodd" clip-rule="evenodd" d="M6.75307 132.26C6.88775 132.304 7.01567 132.368 7.13677 132.451C8.47971 133.535 9.82265 134.618 11.1656 135.702C12.7029 134.719 14.2505 133.749 15.8083 132.796C15.8914 132.861 15.9042 132.938 15.8467 133.025C15.1944 134.631 14.5421 136.238 13.8898 137.844C15.2967 139.017 16.7036 140.19 18.1105 141.363C17.7643 141.366 17.419 141.392 17.0745 141.439C16.6498 141.277 16.2405 141.251 15.8467 141.363C15.5017 141.189 15.1691 141.163 14.8491 141.287C14.5237 141.134 14.1911 141.109 13.8515 141.21C13.6183 141.125 13.3752 141.075 13.1224 141.057C12.9092 141.114 12.7045 141.127 12.5085 141.095C11.7894 142.822 11.0604 144.543 10.3215 146.259C9.84935 144.479 9.40173 142.693 8.97851 140.904C8.60287 140.827 8.23192 140.827 7.86579 140.904C7.41456 140.747 6.97968 140.722 6.56122 140.828C6.13754 140.658 5.72821 140.632 5.33339 140.751C4.96105 140.584 4.60291 140.558 4.25904 140.675C4.02122 140.601 3.77819 140.538 3.53001 140.483C5.0648 139.514 6.59959 138.546 8.13438 137.576C7.64417 135.813 7.18373 134.041 6.75307 132.26Z" fill="black"/>
<path fill-rule="evenodd" clip-rule="evenodd" d="M203.666 149.777C203.723 149.768 203.775 149.781 203.82 149.816C205.114 151.131 206.431 152.419 207.772 153.679C209.403 152.782 211.053 151.916 212.722 151.078C212.747 151.103 212.773 151.129 212.798 151.154C212.006 152.786 211.212 154.418 210.42 156.05C211.699 157.325 213.003 158.574 214.333 159.798C212.586 159.624 210.834 159.394 209.077 159.11C209.013 159.135 208.948 159.161 208.885 159.186C208.099 160.83 207.293 162.462 206.467 164.082C206.11 162.277 205.739 160.453 205.355 158.613C203.499 158.333 201.657 158.079 199.829 157.848C201.41 156.939 203.009 156.059 204.626 155.209C204.346 153.418 204.026 151.607 203.666 149.777Z" fill="black"/>
<path fill-rule="evenodd" clip-rule="evenodd" d="M21.6405 150.695C21.6884 150.728 21.714 150.778 21.7173 150.848C21.3471 152.603 21.0274 154.363 20.758 156.127C22.3506 157.016 23.9493 157.896 25.5542 158.766C25.2091 158.844 24.8638 158.933 24.5182 159.033C24.4626 158.991 24.3987 158.965 24.3264 158.957C22.8687 159.142 21.4107 159.32 19.9523 159.492C19.6158 161.334 19.2449 163.17 18.8395 165C18.0045 163.37 17.1988 161.725 16.4222 160.066C14.6966 160.254 12.97 160.471 11.2423 160.716C11.1784 160.691 11.1144 160.665 11.0505 160.64C12.3696 159.414 13.6742 158.177 14.9642 156.93C14.1758 155.307 13.4085 153.675 12.662 152.034C12.6748 151.996 12.6876 151.958 12.7004 151.919C14.3253 152.806 15.9624 153.673 17.6117 154.52C18.9467 153.227 20.2896 151.952 21.6405 150.695Z" fill="black"/>
</g>
</svg>
