<svg width="448" height="71" viewBox="0 0 448 71" fill="none" xmlns="http://www.w3.org/2000/svg">
<path d="M53.782 8.169C54.2592 9.02349 56.2326 10.3764 56.9438 11.3201C57.0655 11.4811 58.1738 13.2991 58.2081 13.4205C58.361 13.949 58.6199 14.7412 58.8414 15.3112C59.1637 16.1418 60.1972 17.5829 60.3167 18.2516C60.4238 18.8475 60.1743 19.8391 60.3167 20.352C60.349 20.4683 60.7066 20.6572 60.7389 20.7725C60.9291 21.4598 61.0726 22.1149 60.9489 22.6632C60.7202 23.6817 61.2899 24.7791 61.16 25.8143C60.9635 27.38 60.9021 29.144 60.5278 30.6464C60.2595 31.7199 60.0111 33.2233 59.4735 34.218C59.0462 35.0071 58.3735 35.9301 57.9981 36.7389C57.0104 38.8642 54.5358 41.3456 52.6216 42.9363C52.1215 43.3516 49.4567 45.1685 49.3537 45.3523C49.0356 45.9213 49.0158 45.6638 48.4055 45.8766C47.137 46.3189 45.8519 46.9896 44.4004 47.3478C43.8078 47.4942 43.4158 47.4517 42.924 47.5576C42.845 47.5752 42.3844 47.9531 42.2918 47.9781C41.3789 48.2262 40.5014 48.1006 39.5511 48.1878C38.6008 48.275 37.4778 48.8014 36.3892 48.6083C34.499 48.2729 32.3301 48.7495 30.0645 48.6083C28.4092 48.5045 26.6708 48.5232 25.0051 48.3986C24.5206 48.3622 23.301 48.3103 22.8966 48.3986C22.8196 48.4152 22.7759 48.573 22.6865 48.6083C22.4235 48.7121 21.8111 48.8793 21.7372 49.1337C21.6998 49.2645 21.7778 49.4285 21.7372 49.5531C21.7092 49.6403 21.5407 49.686 21.5272 49.7628C21.4763 50.0473 21.4888 50.7201 21.5272 51.0233C21.7102 52.4893 21.364 53.6958 21.5272 55.2251C21.81 57.8769 21.2028 61.0145 21.5272 64.0483C21.6728 65.4126 21.6821 66.2017 21.5272 67.6199C21.4794 68.0581 21.6239 68.7402 21.5272 69.0901C21.5137 69.1399 20.84 69.8117 20.789 69.8252C20.5208 69.8989 20.057 69.7774 19.7347 69.8252C19.6557 69.8366 19.6016 70.0256 19.5247 70.0349C19.194 70.0754 18.59 70.0754 18.2593 70.0349C15.4967 69.6913 11.8816 70.1927 8.98382 69.6144C7.04159 69.2272 5.17318 69.8574 3.29125 70.0349C2.94086 70.0681 1.86785 70.1066 1.6048 70.0349C1.49874 70.0059 1.32823 69.6954 1.1837 69.6144C1.08389 69.5594 0.906092 69.6539 0.866582 69.6144C0.827071 69.575 0.922727 69.3985 0.866582 69.2988C0.785482 69.1534 0.477719 68.9873 0.445487 68.8783C0.359189 68.5855 0.310321 68.1328 0.23442 67.8286C0.138764 67.4413 -0.0712624 67.2036 0.0243936 66.5682C0.221944 65.2444 0.35399 63.4887 0.445487 62.1566C0.539064 60.7996 0.267692 59.7821 0.445487 58.585C0.59417 57.5913 -0.0379911 56.0163 0.23442 54.8036C0.542183 53.4373 0.322798 50.1345 0.0243936 48.5014C-0.0962161 47.8472 0.400779 45.8704 0.445487 45.1395C0.51307 44.0576 0.271851 42.5417 0.445487 41.5678C0.597289 40.7196 0.667991 39.1954 0.445487 38.207C0.114851 36.7368 0.762607 34.5201 0.445487 32.9544C0.11797 31.3347 0.756369 28.7692 0.445487 26.6522C0.271851 25.4654 0.656554 25.3844 0.656554 24.7615C0.656554 22.1866 0.167877 19.3199 0.445487 16.3578C0.476679 16.0318 0.757409 15.5718 0.656554 14.8876C0.468362 13.6033 0.667991 11.9306 0.445487 10.6858C0.187632 9.24465 0.981992 8.42753 0.656554 7.11413C0.425732 6.18696 0.590011 5.81838 0.445487 5.01269C0.310321 4.25475 0.557779 3.67956 0.656554 3.12201C0.702303 2.86452 0.602488 2.52293 0.656554 2.28206C0.67319 2.2073 0.824992 2.16266 0.867621 2.07233C0.898813 2.00588 0.840588 1.90413 0.867621 1.8626C1.06309 1.55942 1.27416 1.61445 1.39477 1.54697C2.02485 1.19811 2.26087 1.00499 3.08122 1.12751C4.04818 1.27079 6.35536 1.71516 7.29736 1.54697C8.2009 1.38603 8.73532 1.60719 9.82705 1.33724C11.1714 1.00395 13.5649 1.17111 14.8864 1.54697C16.0644 1.88232 18.0337 1.08909 19.7347 1.33724C20.6892 1.47636 21.3099 1.47636 22.2654 1.33724C23.3145 1.18357 24.5185 1.78784 25.6383 1.54697C25.7142 1.53035 26.2331 1.12647 26.2705 1.12751C26.5325 1.12958 27.2614 1.74008 27.3248 1.75773C27.8239 1.89478 28.0318 1.58019 28.168 1.548C28.5257 1.4639 30.5677 1.09117 30.6977 1.12855C30.8152 1.16177 31.0034 1.51686 31.1198 1.548C31.595 1.67883 32.1346 1.21576 32.8063 1.33827C34.7257 1.68713 36.8758 1.04133 38.92 1.548C40.0938 1.83872 41.484 1.59161 42.5039 1.9685C42.6194 2.01107 43.0592 2.37238 43.1361 2.389C43.4969 2.46687 44.0708 2.29971 44.4004 2.389C44.469 2.40769 44.9972 2.95277 45.2437 3.01922C45.9507 3.2113 46.9104 3.56327 47.5633 3.85918C48.4502 4.26202 49.0252 4.73339 50.093 5.11963C51.2253 5.52974 51.5486 6.29079 52.4116 7.0103C52.6268 7.18888 53.7217 7.79004 53.782 7.85026C53.8204 7.89387 53.7258 8.07037 53.782 8.169ZM30.2745 17.5186C28.874 17.7511 27.3602 17.4531 25.8473 17.7283C25.2599 17.8352 24.9459 17.5372 24.793 17.5186C24.4291 17.4739 23.6722 17.4666 23.3176 17.5186C23.2397 17.53 23.1908 17.7096 23.1066 17.7283C22.9184 17.7719 22.6501 17.6805 22.4744 17.7283C22.4245 17.7418 21.7497 18.4135 21.7362 18.4634C21.6884 18.6388 21.7799 18.9057 21.7362 19.0936C21.7175 19.1767 21.5366 19.2265 21.5262 19.3033C21.4347 19.9263 21.4461 21.6041 21.5262 22.2437C21.6853 23.5311 21.6977 24.884 21.5262 26.2348C21.3796 27.3841 21.3702 28.1296 21.5262 29.1762C21.6114 29.7503 21.2943 30.5716 21.3151 30.6464C21.3401 30.7367 21.652 31.1343 21.7372 31.2766C21.7705 31.3316 21.7071 31.4406 21.7372 31.4863C21.8329 31.6306 22.8175 32.6201 22.8966 32.6419C23.3987 32.78 23.6628 32.4425 23.7398 32.4322C24.8918 32.264 25.8816 32.7758 26.6916 32.6419C27.1917 32.5588 27.6596 32.5578 28.167 32.4322C29.6289 32.0698 29.266 32.4623 30.2756 32.6419C30.4773 32.6782 33.9968 32.4934 34.2806 32.4322C34.3524 32.4166 34.8411 32.0272 34.9128 32.0117C35.3318 31.9213 35.9744 32.1041 36.3882 32.0117C36.4631 31.9951 36.5078 31.8435 36.5993 31.8019C36.6648 31.7718 36.7646 31.8289 36.8103 31.8019C36.9382 31.7261 37.4571 31.2029 37.5475 31.0668C37.6047 30.9817 37.7014 30.5228 37.7586 30.4366C38.0871 29.9434 38.9064 29.4596 39.234 28.9664C39.4679 28.6145 39.5552 28.059 39.6561 27.706C39.6811 27.6209 39.8536 27.5741 39.8672 27.4963C39.9337 27.1214 39.8162 26.6324 39.8672 26.2358C39.9441 25.6326 40.2155 24.9598 40.0772 24.1344C40.0637 24.0534 39.8672 23.9942 39.8672 23.9246C39.8672 23.8416 40.1666 23.2602 40.0772 22.6642C40.0658 22.5853 39.8807 22.5344 39.8672 22.4545C39.7881 22.0142 39.9223 21.6405 39.6561 21.194C39.4575 20.8618 38.4552 20.1557 38.3918 19.9336C38.3242 19.6979 38.3242 19.3334 38.1807 19.0926C37.7607 18.3907 36.9933 18.5215 36.3882 18.3575C35.9733 18.2443 34.3721 17.2237 34.0696 17.3068C32.7002 17.6847 31.5503 17.3068 30.2745 17.5186Z" fill="black"/>
<path d="M120.132 39.3132C120.174 39.3557 120.534 39.9621 120.764 40.259C121.684 41.4468 122.884 42.7145 123.505 44.0414C123.907 44.9021 124.639 45.8168 124.98 46.5633C125.609 47.9401 125.141 48.7198 125.401 49.9263C125.451 50.1568 126.014 50.6977 126.034 50.7673C126.153 51.1992 126.12 52.118 126.244 52.6579C126.409 53.365 126.173 53.69 126.244 53.9184C126.794 55.6741 126.9 57.4879 126.666 59.3817C126.531 60.475 126.506 61.6493 126.666 62.7436C126.836 63.9033 126.779 65.2375 127.087 66.3162C127.122 66.4356 127.9 67.2517 127.931 67.367C127.976 67.5331 127.966 68.2173 127.931 68.4177C127.918 68.4914 127.758 68.5371 127.721 68.6274C127.673 68.7416 127.757 68.9067 127.721 68.9431C127.683 68.9804 127.518 68.8963 127.404 68.9431C127.087 69.0749 126.763 69.4892 126.35 69.3635C126.265 69.3376 126.22 69.1725 126.139 69.1538C124.638 68.8081 123.108 69.1756 121.712 68.9441C120.9 68.8091 119.623 69.3127 118.339 69.1538C117.194 69.0126 116.104 69.3096 114.966 68.9441C114.209 68.7011 113.303 69.2639 112.437 69.3646C111.843 69.4341 110.876 69.4539 110.539 69.3646C109.845 69.1798 109.422 69.2826 108.853 69.1549C108.529 69.0822 107.355 69.2379 107.271 69.1549C107.234 69.1185 107.319 68.9534 107.271 68.8392C106.951 68.0761 106.227 67.4303 106.428 66.5281C105.499 62.8838 105.833 58.7276 105.164 54.9712C105.038 54.262 105.078 53.446 104.953 52.8697C104.936 52.7929 104.574 52.3548 104.531 52.2395C104.133 51.1701 104.202 50.4444 103.477 49.2981C102.977 48.507 102.847 47.9837 102.107 47.5123C101.802 47.3182 101.561 46.5872 101.052 46.2519C100.977 46.202 99.8578 45.6362 99.7882 45.6216C99.313 45.5189 99.103 45.5988 98.5228 45.4119C97.3323 45.0267 96.565 44.8949 95.1499 44.9914C93.0673 45.1337 92.1919 45.3735 90.0905 44.9914C89.3461 44.8554 87.9757 45.4348 86.9287 45.2011C86.8445 45.1825 86.7852 44.9146 86.5076 44.9914C86.4286 45.0132 85.3712 46.0691 85.3483 46.147C85.3098 46.2778 85.3889 46.4419 85.3483 46.5675C85.3202 46.6547 85.1508 46.7004 85.1372 46.7772C85.0707 47.1458 85.0811 48.2827 85.1372 48.6679C85.1664 48.8683 85.6082 49.7508 85.5594 49.9283C85.1684 51.3393 85.6353 52.4295 85.3483 53.501C85.1497 54.2413 85.6457 56.5805 85.5594 56.8629C85.4575 57.1962 85.4024 61.4209 85.5594 62.1165C85.7715 63.0613 85.3712 64.2221 85.5594 65.2686C85.6311 65.6715 85.6415 67.8435 85.5594 68.21C85.5427 68.2848 85.3899 68.3294 85.3483 68.4198C85.3182 68.4852 85.3753 68.5848 85.3483 68.6295C85.2755 68.751 84.7369 69.2846 84.6101 69.3646C84.5675 69.3916 84.4656 69.3334 84.399 69.3646C84.3055 69.4072 84.2514 69.5743 84.189 69.5743C84.1193 69.5743 84.0642 69.3874 83.9779 69.3646C82.201 68.8922 80.265 69.4123 78.4975 69.1549C78.4143 69.1424 78.1772 68.8226 77.6543 68.9451C74.6213 69.6511 70.7785 68.6596 67.7456 69.3656C67.2091 69.4902 66.9491 69.1559 66.9023 69.1559C66.841 69.1559 66.0206 69.5234 65.848 69.5764C65.4509 69.6968 65.3718 69.4383 65.2159 69.3667C65.1514 69.3365 65.0506 69.3937 65.0048 69.3667C64.906 69.3075 64.5369 68.9399 64.4787 68.8413C64.4517 68.7966 64.5089 68.6959 64.4787 68.6316C64.4371 68.5402 64.2843 68.4966 64.2676 68.4218C64.1668 67.9743 64.3227 67.2548 64.2676 66.7409C64.2417 66.4979 63.962 66.1169 64.0566 65.4804C64.2344 64.2896 64.4621 62.8194 64.0566 61.4883C63.9807 61.2381 64.5546 58.7961 64.4787 58.5459C63.8632 56.5275 64.4808 54.3005 64.2676 52.0319C64.095 50.19 64.5598 47.9255 64.2676 45.9373C64.0826 44.6779 63.9921 42.8547 64.2676 41.3139C64.5473 39.7503 64.0067 37.7755 64.2676 36.0603C64.5442 34.2475 63.8414 32.4949 64.2676 30.597C64.6929 28.7063 63.8684 24.844 64.2676 22.6117C64.5879 20.8259 63.9474 17.8835 64.2676 16.0977C64.4506 15.0771 64.0992 14.0969 64.2676 13.1552C64.5941 11.331 63.9932 9.43722 64.2676 7.90163C64.5047 6.58097 64.0909 4.76193 64.2676 3.69876C64.3747 3.05919 64.0566 2.39159 64.0566 2.22754C64.0566 2.15902 64.2448 2.10295 64.2676 2.01781C64.3051 1.87972 64.224 1.71152 64.2676 1.59732C64.2988 1.51633 64.4382 1.4748 64.4787 1.38759C64.5099 1.32114 64.4517 1.21939 64.4787 1.17786C64.5588 1.05119 65.1327 0.670149 65.2169 0.652499C65.5195 0.587088 65.952 0.708565 66.2702 0.652499C66.3482 0.639002 66.3939 0.468727 66.4812 0.442771C66.8514 0.327524 67.7404 0.922447 67.9566 0.863266C68.9236 0.597471 69.3488 0.812391 70.0652 0.653538C71.2048 0.399164 71.8567 1.28376 71.9617 1.28376C72.0002 1.28376 72.519 0.879878 72.5939 0.863266C73.3934 0.690915 75.3367 0.529985 76.1778 0.653538C77.6283 0.864304 79.8481 0.944251 81.4483 0.653538C82.1043 0.533099 83.7222 0.973322 84.399 1.07403C85.5531 1.24431 86.6771 0.422005 87.983 0.653538C90.0989 1.02939 92.2865 0.444847 94.5177 0.653538C96.1137 0.802009 98.0986 0.741789 99.7882 0.443808C101.378 0.16244 100.95 0.447962 102.107 0.653538C103.953 0.981628 106.676 0.507143 108.22 1.07403C108.76 1.27234 109.21 1.86726 109.907 1.70426C109.986 1.68557 110.126 1.3689 110.539 1.49453C111.42 1.76136 112.174 1.66376 113.069 2.12475C113.373 2.28153 113.73 2.57328 114.123 2.75498C114.988 3.15471 115.239 3.30629 116.231 3.59597C117.304 3.90952 118.247 4.64357 119.181 5.27691C119.821 5.70987 119.596 5.52194 120.236 5.69741C121.22 5.96839 123.67 9.6781 124.347 10.6364C124.647 11.0611 126.145 13.2103 126.033 13.5778C125.703 14.6607 127.087 16.2482 126.876 17.1505C126.635 18.1794 126.922 19.4066 127.086 20.5123C127.248 21.589 126.572 22.9263 126.454 23.8742C126.391 24.3882 126.555 25.0983 126.454 25.5552C126.281 26.3432 124.966 27.7719 124.768 28.4976C124.579 29.1901 124.358 29.7373 123.925 30.3883C123.321 31.2957 122.287 32.3527 121.606 33.1199C120.396 34.4842 119.185 34.9982 117.917 35.9565C117.812 36.0364 117.403 36.4341 117.39 36.4818C117.348 36.6334 117.348 37.5907 117.39 37.7423C117.403 37.7921 118.022 38.4078 118.128 38.4774C118.438 38.6767 120.054 39.2343 120.132 39.3132ZM85.3473 17.0383C85.2682 17.1172 85.3972 18.8449 85.3473 19.2457C85.2111 20.341 85.2111 21.3014 85.3473 22.3978C85.5074 23.6874 85.2797 25.6694 85.1362 26.8104C85.0956 27.1396 85.0956 27.7418 85.1362 28.0709C85.1456 28.1477 85.3327 28.2007 85.3473 28.2806C85.393 28.5381 85.2932 28.8797 85.3473 29.1216C85.3639 29.1964 85.5167 29.241 85.5583 29.3313C85.5885 29.3967 85.5313 29.4964 85.5583 29.5411C85.6166 29.6387 86.2456 30.2627 86.2955 30.2761C86.4275 30.3146 86.5918 30.2367 86.7176 30.2761C86.8019 30.3031 86.8455 30.462 86.9287 30.4859C87.1003 30.5357 87.3727 30.4412 87.5609 30.4859C87.7075 30.5212 87.8821 30.8171 88.4041 30.6956C89.5956 30.4184 91.2602 30.0498 92.6202 30.2751C92.9644 30.3322 93.9573 30.3675 94.5167 30.2751C95.5918 30.0976 97.0391 30.4319 98.3117 30.2751C99.5937 30.1173 100.994 30.5907 102.106 29.8546C102.475 29.6106 102.953 29.077 103.371 28.8039C104.125 28.3128 104.211 28.7582 104.53 27.6483C104.575 27.4915 105.542 26.3276 105.584 26.1771C105.633 25.9985 105.535 25.7265 105.584 25.5469C105.61 25.4545 105.988 24.9956 106.006 24.9167C106.201 24.0165 105.612 22.9979 105.795 21.9753C105.805 21.9161 106.131 21.7551 106.006 21.345C105.98 21.2589 105.809 21.2121 105.795 21.1353C105.686 20.5352 105.762 20.0399 105.374 19.4544C105.045 18.9601 104.227 18.4774 103.898 17.9831C103.841 17.897 103.745 17.4433 103.687 17.3529C103.602 17.219 102.995 16.8276 102.949 16.8276C102.878 16.8276 102.819 17.0248 102.739 17.0373C101.826 17.193 101.777 16.4901 101.474 16.4071C101.045 16.2897 100.253 16.5109 99.7871 16.4071C99.0926 16.2524 98.5426 16.4995 97.6796 16.4071C96.0929 16.2378 93.19 15.8464 91.777 16.1973C90.8797 16.4206 89.5946 16.4164 88.6152 16.1973C88.5309 16.1786 88.4706 15.9108 88.193 15.9876C88.1088 16.0115 88.0631 16.1797 87.982 16.1973C87.2708 16.3562 86.8944 16.1735 86.0855 16.6178C85.9399 16.6978 85.8099 16.9573 85.6633 17.0383C85.5635 17.0944 85.3868 16.9989 85.3473 17.0383Z" fill="black"/>
<path d="M184.458 41.8162C184.422 41.8536 184.257 41.7695 184.142 41.8162C184.056 41.8525 184.014 41.9968 183.931 42.0259C183.142 42.3104 181.716 42.2959 180.769 42.2356C180.304 42.2066 177.634 41.7435 177.397 41.8152C176.463 42.0976 175.021 41.9906 174.235 41.8152C173.515 41.6542 172.298 42.3509 171.916 42.2356C170.747 41.8816 169.069 42.3208 167.7 42.0259C167.628 42.0103 167.14 41.621 167.067 41.6054C166.134 41.404 163.982 42.1931 163.062 42.0259C160.649 41.5867 157.883 42.2356 155.051 41.8162C154.815 41.7809 154.209 41.7705 153.996 41.8162C153.92 41.8328 153.495 42.1754 153.364 42.2367C153.258 42.2855 153.081 42.1962 152.942 42.2367C152.606 42.3332 152.345 43.1877 151.994 43.3923L152.204 44.443C152.457 45.2206 152.025 46.3856 152.204 47.3844C152.355 48.2274 152.028 49.5315 152.204 50.3258C152.221 50.4026 152.38 50.4462 152.415 50.5355C152.547 50.8667 152.627 51.281 152.942 51.4814C152.988 51.5104 153.095 51.4492 153.152 51.4814C153.285 51.5551 153.747 51.9019 153.785 51.9019C153.937 51.9019 154.567 51.2872 155.472 51.4814C155.543 51.4969 156.032 51.8863 156.104 51.9019C156.576 52.0036 157.354 51.8178 157.79 51.6921C159.809 51.1086 162.897 51.8167 165.379 51.6921C167.065 51.608 169.532 51.2083 171.071 51.4824C172.114 51.6682 174.34 51.4928 175.287 51.2727C175.992 51.1086 176.48 51.8572 177.184 51.6932C177.784 51.553 178.931 51.3111 179.503 51.2727C181.502 51.1377 183.06 51.716 184.985 51.2727C185.834 51.0764 186.071 51.3931 186.882 51.2727C187.026 51.2509 188.075 50.8522 188.146 50.8522C188.197 50.8522 188.887 51.2509 188.99 51.2727C189.24 51.3246 189.607 51.2104 189.833 51.2727C189.883 51.2862 190.512 51.9102 190.571 52.0078C190.598 52.0524 190.541 52.1531 190.571 52.2175C190.613 52.3089 190.765 52.3535 190.781 52.4272C190.835 52.6681 190.834 53.8642 190.781 54.1082C190.747 54.2649 190.29 54.6989 190.36 54.9492C190.991 57.225 190.749 59.9525 190.57 62.3042C190.457 63.7982 190.831 64.6652 190.57 66.0866C190.442 66.7874 190.949 67.429 190.781 68.188C190.764 68.2648 190.606 68.3085 190.57 68.3977C190.513 68.54 190.419 68.9356 190.36 69.028C190.046 69.5118 189.154 69.6395 188.567 69.5533C188.488 69.5419 188.434 69.3519 188.357 69.3436C187.49 69.2377 186.747 69.1754 186.038 69.3436C183.348 69.9832 180.515 68.9252 177.817 69.5533C177.293 69.6748 177.057 69.355 176.973 69.3436C175.879 69.1837 173.872 69.5917 172.968 69.3436C172.487 69.2117 172.969 68.7674 171.703 69.1339C170.39 69.5128 168.381 69.4402 167.066 69.1339C166.473 68.9958 165.965 69.4879 165.589 69.5544C163.962 69.844 162.551 69.1712 161.162 69.3446C159.426 69.5616 157.71 68.894 155.892 69.3446C154.867 69.599 153.433 69.7973 152.308 69.5544C151.978 69.4827 151.711 68.9781 151.042 69.1339C149.049 69.599 145.845 69.7309 143.874 69.1339C143.584 69.0456 141.846 69.6416 141.556 69.5544C140.16 69.1318 139.242 69.4983 137.972 69.5544C136.571 69.6167 135.5 69.4568 134.177 69.7641C133.676 69.8814 133.553 69.6333 133.334 69.5544C132.962 69.4194 132.065 68.9761 131.963 68.6085C131.856 68.2212 132.01 67.4187 131.963 66.9276C131.797 65.1708 132.17 63.1888 131.963 61.2545C131.766 59.4095 132.161 57.2157 131.963 55.3707C131.704 52.9464 132.612 51.2893 132.174 48.8566C131.925 47.4674 132.424 46.1852 132.174 45.0743C131.909 43.8937 132.572 42.1194 132.385 41.2919C132.241 40.6492 131.981 37.984 132.174 37.089C132.258 36.7059 132.487 36.8616 132.385 36.248C132.051 34.2358 132.624 32.26 131.963 30.1544C131.856 29.8118 132.594 28.5628 132.385 27.6325C132.19 26.7624 132.629 25.3556 132.385 24.2706C132.367 24.1865 132.098 24.1273 132.174 23.8501C133.161 20.2816 131.859 14.6324 132.596 10.6113C132.743 9.80972 132.262 9.41726 132.174 8.93032C131.94 7.62211 132.373 6.04603 132.174 4.9382C132.099 4.5229 132.099 2.83261 132.174 2.41627C132.188 2.33944 132.357 2.29375 132.385 2.20654C132.426 2.08195 132.347 1.9179 132.385 1.78604C132.4 1.73621 133.073 1.06445 133.123 1.05095C133.346 0.989697 133.71 1.09768 133.966 1.05095C134.047 1.03642 134.1 0.85057 134.177 0.841226C134.852 0.758165 136.002 0.797619 136.707 0.841226C137.224 0.873412 140.511 1.31675 140.712 1.26172C141.838 0.95232 143.246 1.49741 144.718 1.05199C144.998 0.966856 146.197 1.47145 146.404 1.47249C146.456 1.47249 147.002 0.895215 147.247 0.842264C147.5 0.788274 148.225 0.805925 148.512 0.842264C148.59 0.851608 148.642 1.0385 148.723 1.05199C149.57 1.20254 152.125 1.21292 152.728 1.05199C153.519 0.841226 154.568 0.745705 155.469 0.842264C156.457 0.947128 157.93 1.17139 159.053 1.05199C162.008 0.738438 165.391 1.14025 168.75 1.05199C171.358 0.983468 174.902 0.447725 177.604 0.842264C178.055 0.907674 181.187 1.11117 181.398 1.05199C183.404 0.500676 185.983 1.23992 187.934 0.631497C188.321 0.511058 188.583 0.949205 188.989 0.841226C189.175 1.09456 189.579 1.33336 189.726 1.57631C189.754 1.62304 189.695 1.72582 189.726 1.78604C189.79 1.91479 190.011 1.93867 189.937 2.20654C189.914 2.28856 189.754 2.33113 189.726 2.41627C189.64 2.68206 189.449 3.44103 189.516 3.67672C189.587 3.93732 190.111 3.98819 189.937 4.93716C189.678 6.35335 189.413 6.52986 189.726 8.08932C190.025 9.58027 189.954 11.5748 189.726 13.1332C189.556 14.2909 189.538 15.2305 189.726 16.4951C189.759 16.7121 189.774 17.3724 189.726 17.5458C189.712 17.5956 189.038 18.2674 188.989 18.2809C188.677 18.366 188.106 18.2331 187.723 18.2809C186.802 18.3961 185.843 18.5799 184.772 18.4906C181.243 18.1968 177.1 18.3037 173.388 18.4906C172.195 18.5508 170.633 18.581 169.593 18.2809C168.471 17.957 168.575 18.3629 167.697 18.4906C166.4 18.6796 165.731 17.9289 164.324 18.2809C162.788 18.664 160.743 18.0182 159.264 18.2809C158.179 18.474 157.084 18.3806 155.891 18.2809C155.42 18.2414 154.419 18.2051 153.994 18.2809C153.916 18.2944 153.87 18.4636 153.783 18.4906C153.658 18.5311 153.494 18.4522 153.361 18.4906C152.985 18.5986 153.102 19.1011 153.045 19.2257C153.005 19.3108 152.869 19.3524 152.835 19.4354C152.745 19.6504 152.433 20.3792 152.413 20.4862C152.256 21.3625 152.86 22.5731 152.624 23.6383C152.594 23.7723 152.132 24.2353 152.202 24.4793C152.227 24.5644 152.396 24.6101 152.413 24.689C152.452 24.8832 152.365 25.1469 152.413 25.3193C152.435 25.3971 152.582 25.4397 152.624 25.529C152.654 25.5944 152.597 25.6941 152.624 25.7387C152.701 25.8675 153.443 26.6077 153.572 26.6846C153.617 26.7116 153.718 26.6545 153.783 26.6846C153.875 26.7261 153.918 26.8787 153.993 26.8943C154.598 27.0293 156.624 26.9369 157.366 26.8943C158.501 26.8289 158.751 26.5579 160.107 26.8943C161.281 27.185 161.897 27.1653 163.059 26.8943C163.683 26.749 164.705 27.3906 165.588 27.104C166.542 26.7957 168.171 26.4686 169.172 26.6835C169.914 26.8434 169.397 27.1912 170.649 26.8933C171.998 26.5724 172.747 26.8715 174.022 27.103C174.894 27.2619 175.073 26.7749 175.497 26.6825C176.411 26.4852 177.908 26.8538 178.87 26.6825C179.269 26.6119 179.308 26.3087 179.924 26.4728C181.191 26.8092 181.667 26.3253 182.665 26.4728C182.744 26.4842 182.795 26.669 182.876 26.6825C183.132 26.7292 183.496 26.6212 183.719 26.6825C183.769 26.696 184.443 27.3678 184.456 27.4176C184.507 27.6034 184.495 28.4496 184.456 28.678C184.348 29.3249 184.526 30.2853 184.456 31.2C184.397 31.9911 184.034 33.2017 184.246 34.1414C184.455 35.0716 183.881 35.5492 184.246 36.6633C184.468 37.3413 184.263 37.5334 184.456 38.3442C184.702 39.3711 184.308 40.2339 184.456 41.0759C184.484 41.2296 184.484 41.7902 184.458 41.8162Z" fill="black"/>
<path d="M248.805 34.8194C249.416 35.1579 249.964 36.5097 250.703 36.9209C250.803 36.9759 250.98 36.8814 251.019 36.9209C251.262 37.1638 251.979 39.4335 252.284 39.9682C253.004 41.2245 252.874 41.3647 253.128 42.6999C253.296 43.5876 253.679 44.7473 253.761 45.6423C253.819 46.2788 253.64 47.1904 253.761 47.7438C253.776 47.8154 254.166 48.3023 254.182 48.374C254.263 48.7509 253.885 52.6568 253.761 53.2071C253.688 53.529 253.077 54.452 252.918 54.8881C252.264 56.6707 252.474 57.8596 250.704 58.9861C250.466 59.1377 249.575 61.0616 249.123 61.6129C248.507 62.3636 247.415 62.8505 246.804 63.7143C246.104 64.7038 244.109 65.8833 242.904 66.5509C242.315 66.8769 240.715 67.9027 240.164 68.0221C239.86 68.0885 239.388 67.9453 239.11 68.0221C238.905 68.0782 238.262 69.0168 238.056 69.0728C237.588 69.2016 236.7 68.9763 236.158 69.0728C236.084 69.0863 235.39 69.4798 235.315 69.4933C234.999 69.5494 234.534 69.4186 234.261 69.4933C234.125 69.5307 233.824 70.0073 233.628 70.1235C232.986 70.5046 231.916 70.2731 231.099 70.3333C228.586 70.5202 225.717 71.112 223.299 70.7538C222.112 70.5783 220.978 71.0902 219.294 70.7538C217.767 70.4496 215.845 70.5191 214.445 70.1235C212.865 69.6771 211.328 69.296 209.808 68.8631C207.984 68.344 206.139 67.1458 204.116 66.5519C203.742 66.4419 202.443 65.1606 202.008 64.871C201.798 64.7308 201.166 64.5906 200.954 64.4505C200.219 63.9635 199.772 62.783 199.057 62.349C198.551 62.0417 198.413 62.3563 198.108 61.6139C197.505 60.1406 196.097 58.8636 195.578 57.411C195.403 56.9199 195.306 56.2482 195.157 55.7301C195.114 55.5795 194.568 55.2504 194.524 55.0999C194.134 53.7449 193.812 52.2685 193.471 50.897C193.319 50.2885 193.348 50.0248 193.26 49.4257C193.247 49.3427 192.928 49.1091 193.049 48.5847C193.066 48.51 193.218 48.4653 193.26 48.375C193.29 48.3096 193.233 48.2099 193.26 48.1653C193.319 48.0667 193.688 47.6981 193.787 47.6399C193.832 47.6129 193.932 47.67 193.997 47.6399C194.088 47.5984 194.133 47.4458 194.208 47.4302C194.724 47.3149 196.961 47.3637 197.581 47.4302C198.692 47.5486 200.103 47.6233 201.165 47.4302C201.851 47.3056 202.238 47.6192 203.272 47.4302C204.117 47.2755 204.757 47.9753 205.17 47.8507C206.364 47.4883 207.953 47.2703 209.175 47.641C209.587 47.7656 209.748 47.4406 209.807 47.4312C210.178 47.3648 211.996 47.3554 212.337 47.4312C212.414 47.4478 212.458 47.6057 212.548 47.641C213.595 48.0563 214.124 48.104 213.918 49.4268C214.089 50.2127 215.827 52.2509 216.553 52.8935C216.887 53.1894 217.626 53.6982 218.028 53.9443C218.424 54.1862 220.047 55.1403 220.348 55.2047C220.648 55.2691 221.075 55.1559 221.401 55.2047C221.487 55.2172 221.719 55.5349 222.244 55.4144C223.409 55.1466 224.905 55.8692 226.039 55.6242C226.118 55.6076 226.579 55.2286 226.672 55.2037C227.414 55.0023 228.341 55.1331 228.99 54.9939C229.242 54.94 229.649 54.4655 229.833 54.3637C230.266 54.1239 230.448 53.5861 230.677 53.5227C230.856 53.4739 231.13 53.5715 231.309 53.5227C231.809 53.3857 232.244 52.2799 232.468 51.9466C232.7 51.604 232.883 51.5833 233.1 51.1057C233.142 51.0153 233.295 50.9707 233.311 50.8959C233.371 50.6332 233.362 49.5005 233.311 49.215C233.298 49.1371 233.125 49.0904 233.1 49.0052C233.062 48.8703 233.144 48.7031 233.1 48.5847C232.996 48.3023 232.591 47.8279 232.468 47.534C232.421 47.4208 232.506 47.2558 232.468 47.2184C232.429 47.1789 232.252 47.2734 232.152 47.2184C231.861 47.0564 231.306 46.2289 231.098 46.1677C230.546 46.0057 229.904 45.9039 229.411 45.7472C228.342 45.4087 227.292 44.7577 226.249 44.2759C225.591 43.9717 225.612 43.8752 224.985 44.0662C224.502 44.2126 222.515 42.9407 222.244 43.0155C221.556 43.2055 221.323 43.2979 220.558 43.0155C220.095 42.8452 219.557 42.5493 219.083 42.3853C218.186 42.0759 217.492 41.7478 216.553 41.5443C215.445 41.3034 214.303 41.157 213.18 40.914C212.888 40.8507 211.997 40.1364 211.705 40.0731C210.476 39.8073 209.858 39.4553 208.753 39.0223C207.526 38.5406 206.098 37.7297 204.748 37.3414C204.543 37.2822 203.809 36.2958 203.483 36.0809C203.271 35.9408 202.639 35.8006 202.429 35.6604C201.7 35.1735 198.29 32.2196 198.108 31.5624C198.026 31.2655 198.006 31.063 197.897 30.7214C197.697 30.0984 197.473 29.5357 197.265 28.8307C197.227 28.7051 196.459 27.9056 196.422 27.78C196.098 26.6877 196.043 25.6474 195.789 24.6278C195.489 23.4255 195.381 22.0675 195.156 20.8454C194.965 19.7989 195.969 18.4699 195.789 17.4835C195.548 16.166 196.101 15.4807 196.422 14.1216C196.596 13.3824 196.934 12.5113 197.265 11.8094C197.714 10.8563 197.673 10.9113 197.897 9.9177C198.004 9.44321 198.863 8.96457 198.951 8.65725C199.318 7.38433 199.177 7.88685 200.111 7.29089C200.411 7.09881 200.623 6.33465 200.954 6.24017C202.042 5.92972 202.216 5.22993 203.061 4.55922C203.86 3.92587 205.823 3.1451 206.856 2.66854C207.373 2.42973 208.929 1.50672 209.386 1.40808C210.015 1.27207 211.13 1.56486 211.705 1.40808C211.915 1.35098 212.411 0.608619 212.969 0.777856C215.064 1.41327 217.312 -0.294672 219.294 0.147629C219.914 0.286756 222.454 0.270144 223.299 0.147629C225.402 -0.159697 228.612 0.0282293 230.888 0.568127C231.649 0.748785 231.812 0.948131 232.574 0.777856C233.701 0.526596 234.288 1.48907 234.893 1.61885C235.473 1.74344 236.391 1.69776 237 1.82858C237.877 2.01754 238.58 3.05892 238.687 3.08903C239.373 3.28526 240.179 3.47527 240.795 3.71926C242.345 4.33287 245.468 6.60979 246.382 7.81729C246.845 8.42883 247.491 8.45271 247.857 9.28851C248.267 10.2229 248.646 11.1667 249.122 12.0202C249.831 13.2941 250.312 15.0104 250.597 16.4328C250.678 16.8357 250.979 17.7421 251.019 18.1138C251.06 18.4927 251.072 19.2206 251.019 19.585C251.008 19.6628 250.828 19.7116 250.808 19.7947C250.764 19.9826 250.857 20.2495 250.808 20.4249C250.794 20.4748 250.121 21.1465 250.071 21.1611C249.846 21.2223 248.887 21.1974 248.594 21.1611C248.431 21.1403 247.493 20.7603 247.33 20.7406C245.636 20.5329 243.818 21.2254 242.271 20.9503C240.891 20.7053 239.161 20.8081 237.634 20.9503C236.12 21.0915 234.382 20.6409 232.995 20.9503C232.915 20.969 232.869 21.1372 232.785 21.1611C232.509 21.2369 232.464 20.9835 232.363 20.9503C232.238 20.9098 232.074 20.9887 231.941 20.9503C231.864 20.9285 231.19 20.3253 230.993 20.2152C230.852 19.9484 230.851 19.6161 230.782 19.3742C230.627 18.8322 230.671 18.5592 230.572 18.1138C230.522 17.8936 228.794 15.9718 228.569 15.9074C228.43 15.867 228.252 15.9562 228.147 15.9074C227.88 15.7839 227.31 15.3364 227.093 15.2772C226.554 15.1308 225.635 15.1879 225.196 15.0675C225.08 15.0353 224.891 14.6792 224.774 14.647C224.335 14.5266 223.427 14.7051 222.877 14.647C222.8 14.6387 222.746 14.4487 222.667 14.4373C221.179 14.2172 220.8 15.3302 219.083 14.8578C218.794 14.7778 217.919 15.542 217.607 15.6988C217.506 15.7486 217.325 15.6583 217.185 15.6988C217.093 15.7257 215.922 16.9052 215.815 17.0651C215.785 17.1098 215.848 17.2198 215.815 17.2748C215.719 17.4368 215.447 17.767 215.394 17.9051C215.35 18.0203 215.43 18.1875 215.394 18.3256C215.371 18.4117 215.183 18.4668 215.183 18.5353C215.183 18.6059 215.38 18.6651 215.394 18.745C215.456 19.1198 215.305 19.6857 215.394 20.0055C215.423 20.1124 216.143 20.9243 216.237 21.2659C216.286 21.4455 216.187 21.7176 216.237 21.8962C216.301 22.1277 218.177 23.7837 218.45 23.8927C218.568 23.9395 218.742 23.8491 218.873 23.8927C219.841 24.2146 220.848 24.8625 221.823 25.1532C222.831 25.4522 223.963 25.5311 224.986 25.7834C226.248 26.0949 227.388 26.3306 228.57 26.6244C229.666 26.8964 230.795 26.857 231.943 27.2546C233.109 27.6585 234.276 27.9845 235.527 28.3054C236.557 28.5691 237.682 29.082 238.689 29.3561C239.95 29.6987 240.643 29.8586 241.851 30.4068C242.647 30.7681 243.454 30.9353 244.38 31.4575C245.079 31.851 248.228 34.0335 248.491 34.5048C248.547 34.6045 248.452 34.781 248.491 34.8205C248.529 34.8578 248.706 34.7644 248.805 34.8194Z" fill="black"/>
<path d="M310.601 41.8162C310.565 41.8536 310.399 41.7695 310.285 41.8162C310.199 41.8525 310.157 41.9968 310.074 42.0259C309.285 42.3104 307.858 42.2959 306.912 42.2356C306.446 42.2066 303.776 41.7435 303.539 41.8152C302.605 42.0976 301.163 41.9906 300.377 41.8152C299.658 41.6542 298.44 42.3509 298.059 42.2356C296.89 41.8816 295.212 42.3208 293.843 42.0259C293.771 42.0103 293.282 41.621 293.21 41.6054C292.278 41.404 290.126 42.1931 289.204 42.0259C286.791 41.5867 284.025 42.2356 281.193 41.8162C280.957 41.7809 280.352 41.7705 280.139 41.8162C280.063 41.8328 279.638 42.1754 279.506 42.2367C279.401 42.2855 279.224 42.1962 279.085 42.2367C278.749 42.3332 278.488 43.1877 278.136 43.3923L278.346 44.443C278.6 45.2206 278.168 46.3856 278.346 47.3844C278.497 48.2274 278.171 49.5315 278.346 50.3258C278.364 50.4026 278.522 50.4462 278.557 50.5355C278.69 50.8667 278.77 51.281 279.085 51.4814C279.13 51.5104 279.237 51.4492 279.295 51.4814C279.428 51.5551 279.889 51.9019 279.928 51.9019C280.08 51.9019 280.71 51.2872 281.614 51.4814C281.686 51.4969 282.175 51.8863 282.246 51.9019C282.718 52.0036 283.496 51.8178 283.933 51.6921C285.952 51.1086 289.04 51.8167 291.522 51.6921C293.207 51.608 295.675 51.2083 297.213 51.4824C298.256 51.6682 300.482 51.4928 301.43 51.2727C302.134 51.1086 302.622 51.8572 303.327 51.6932C303.927 51.553 305.074 51.3111 305.646 51.2727C307.645 51.1377 309.203 51.716 311.127 51.2727C311.977 51.0764 312.214 51.3931 313.025 51.2727C313.168 51.2509 314.217 50.8522 314.289 50.8522C314.34 50.8522 315.029 51.2509 315.132 51.2727C315.383 51.3246 315.75 51.2104 315.975 51.2727C316.025 51.2862 316.654 51.9102 316.714 52.0078C316.741 52.0524 316.684 52.1531 316.714 52.2175C316.755 52.3089 316.908 52.3535 316.924 52.4272C316.978 52.6681 316.977 53.8642 316.924 54.1082C316.889 54.2649 316.433 54.6989 316.503 54.9492C317.134 57.225 316.891 59.9525 316.713 62.3042C316.599 63.7982 316.974 64.6652 316.713 66.0866C316.585 66.7874 317.092 67.429 316.924 68.188C316.907 68.2648 316.749 68.3085 316.713 68.3977C316.655 68.54 316.562 68.9356 316.503 69.028C316.189 69.5118 315.297 69.6395 314.71 69.5533C314.631 69.5419 314.577 69.3519 314.499 69.3436C313.633 69.2377 312.89 69.1754 312.18 69.3436C309.491 69.9832 306.657 68.9252 303.959 69.5533C303.435 69.6748 303.199 69.355 303.116 69.3436C302.021 69.1837 300.014 69.5917 299.111 69.3436C298.63 69.2117 299.112 68.7674 297.846 69.1339C296.532 69.5128 294.524 69.4402 293.208 69.1339C292.616 68.9958 292.107 69.4879 291.732 69.5544C290.105 69.844 288.694 69.1712 287.305 69.3446C285.568 69.5616 283.853 68.894 282.034 69.3446C281.009 69.599 279.575 69.7973 278.45 69.5544C278.121 69.4827 277.854 68.9781 277.185 69.1339C275.192 69.599 271.987 69.7309 270.017 69.1339C269.727 69.0456 267.989 69.6416 267.698 69.5544C266.302 69.1318 265.385 69.4983 264.114 69.5544C262.714 69.6167 261.642 69.4568 260.319 69.7641C259.818 69.8814 259.695 69.6333 259.476 69.5544C259.105 69.4194 258.208 68.9761 258.106 68.6085C257.999 68.2212 258.153 67.4187 258.106 66.9276C257.939 65.1708 258.313 63.1888 258.106 61.2545C257.908 59.4095 258.303 57.2157 258.106 55.3707C257.847 52.9464 258.755 51.2893 258.317 48.8566C258.067 47.4674 258.566 46.1852 258.317 45.0743C258.052 43.8937 258.714 42.1194 258.528 41.2919C258.383 40.6492 258.124 37.984 258.317 37.089C258.4 36.7059 258.63 36.8616 258.528 36.248C258.193 34.2358 258.766 32.26 258.106 30.1544C257.999 29.8118 258.737 28.5628 258.528 27.6325C258.333 26.7624 258.771 25.3556 258.528 24.2706C258.509 24.1865 258.241 24.1273 258.317 23.8501C259.304 20.2816 258.002 14.6324 258.739 10.6113C258.886 9.80972 258.404 9.41726 258.317 8.93032C258.083 7.62211 258.516 6.04603 258.317 4.9382C258.242 4.5229 258.242 2.83261 258.317 2.41627C258.33 2.33944 258.5 2.29375 258.528 2.20654C258.569 2.08195 258.49 1.9179 258.528 1.78604C258.543 1.73621 259.215 1.06445 259.265 1.05095C259.489 0.989697 259.853 1.09768 260.108 1.05095C260.189 1.03642 260.243 0.85057 260.319 0.841226C260.993 0.758165 262.144 0.797619 262.849 0.841226C263.367 0.873412 266.654 1.31675 266.854 1.26172C267.98 0.95232 269.389 1.49741 270.86 1.05199C271.141 0.966856 272.34 1.47145 272.547 1.47249C272.599 1.47249 273.145 0.895215 273.39 0.842264C273.643 0.788274 274.367 0.805925 274.654 0.842264C274.732 0.851608 274.784 1.0385 274.865 1.05199C275.713 1.20254 278.267 1.21292 278.87 1.05199C279.662 0.841226 280.711 0.745705 281.611 0.842264C282.6 0.947128 284.072 1.17139 285.195 1.05199C288.151 0.738438 291.533 1.14025 294.893 1.05199C297.5 0.983468 301.045 0.447725 303.747 0.842264C304.197 0.907674 307.33 1.11117 307.541 1.05199C309.547 0.500676 312.125 1.23992 314.077 0.631497C314.464 0.511058 314.726 0.949205 315.131 0.841226C315.317 1.09456 315.722 1.33336 315.868 1.57631C315.896 1.62304 315.837 1.72582 315.868 1.78604C315.933 1.91479 316.153 1.93867 316.079 2.20654C316.057 2.28856 315.896 2.33113 315.868 2.41627C315.783 2.68206 315.592 3.44103 315.658 3.67672C315.73 3.93732 316.254 3.98819 316.079 4.93716C315.821 6.35335 315.555 6.52986 315.868 8.08932C316.168 9.58027 316.097 11.5748 315.868 13.1332C315.699 14.2909 315.68 15.2305 315.868 16.4951C315.902 16.7121 315.916 17.3724 315.868 17.5458C315.855 17.5956 315.181 18.2674 315.131 18.2809C314.819 18.366 314.248 18.2331 313.866 18.2809C312.945 18.3961 311.986 18.5799 310.915 18.4906C307.385 18.1968 303.243 18.3037 299.531 18.4906C298.337 18.5508 296.776 18.581 295.736 18.2809C294.614 17.957 294.718 18.3629 293.839 18.4906C292.543 18.6796 291.873 17.9289 290.467 18.2809C288.931 18.664 286.886 18.0182 285.406 18.2809C284.321 18.474 283.227 18.3806 282.033 18.2809C281.562 18.2414 280.562 18.2051 280.137 18.2809C280.059 18.2944 280.013 18.4636 279.926 18.4906C279.801 18.5311 279.636 18.4522 279.504 18.4906C279.127 18.5986 279.245 19.1011 279.188 19.2257C279.148 19.3108 279.012 19.3524 278.978 19.4354C278.888 19.6504 278.574 20.3792 278.555 20.4862C278.398 21.3625 279.002 22.5731 278.766 23.6383C278.736 23.7723 278.275 24.2353 278.344 24.4793C278.369 24.5644 278.54 24.6101 278.555 24.689C278.595 24.8832 278.508 25.1469 278.555 25.3193C278.577 25.3971 278.725 25.4397 278.766 25.529C278.797 25.5944 278.739 25.6941 278.766 25.7387C278.843 25.8675 279.586 26.6077 279.715 26.6846C279.759 26.7116 279.86 26.6545 279.926 26.6846C280.017 26.7261 280.061 26.8787 280.136 26.8943C280.741 27.0293 282.766 26.9369 283.509 26.8943C284.644 26.8289 284.894 26.5579 286.249 26.8943C287.423 27.185 288.04 27.1653 289.201 26.8943C289.826 26.749 290.847 27.3906 291.731 27.104C292.684 26.7957 294.314 26.4686 295.315 26.6835C296.056 26.8434 295.539 27.1912 296.791 26.8933C298.141 26.5724 298.889 26.8715 300.164 27.103C301.037 27.2619 301.215 26.7749 301.64 26.6825C302.554 26.4852 304.051 26.8538 305.012 26.6825C305.412 26.6119 305.45 26.3087 306.067 26.4728C307.333 26.8092 307.809 26.3253 308.808 26.4728C308.887 26.4842 308.937 26.669 309.019 26.6825C309.274 26.7292 309.638 26.6212 309.862 26.6825C309.912 26.696 310.585 27.3678 310.599 27.4176C310.65 27.6034 310.637 28.4496 310.599 28.678C310.491 29.3249 310.669 30.2853 310.599 31.2C310.539 31.9911 310.177 33.2017 310.389 34.1414C310.598 35.0716 310.024 35.5492 310.389 36.6633C310.61 37.3413 310.406 37.5334 310.599 38.3442C310.844 39.3711 310.45 40.2339 310.599 41.0759C310.627 41.2296 310.627 41.7902 310.601 41.8162Z" fill="black"/>
<path d="M338.685 69.204C338.594 69.2424 338.549 69.4013 338.475 69.4137C338.184 69.4646 337.289 69.4656 336.998 69.4137C336.154 69.2632 335.215 69.6546 335.101 69.6235C332.561 68.9258 329.85 69.7969 327.301 69.203C326.779 69.0815 326.604 69.3784 326.456 69.4127C325.634 69.6079 324.744 69.6432 323.927 69.8332C323.802 69.8623 322.494 69.6775 322.24 69.6235C322.174 69.6089 321.529 69.1947 321.503 69.0981C321.455 68.9247 321.543 68.662 321.503 68.4679C321.486 68.3869 321.216 68.3246 321.292 68.0474C321.585 66.9884 321.341 65.7788 321.503 64.4758C321.643 63.3378 321.431 62.5259 321.713 61.3246C321.893 60.5595 321.112 60.4089 321.292 59.6437C321.654 58.1008 321.453 56.939 321.292 55.4419C321.212 54.7006 321.382 54.0942 321.292 53.5512C321.055 52.1319 321.739 50.1935 321.502 49.1396C321.229 47.9228 321.549 45.4538 321.292 44.3076C320.883 42.4885 321.688 39.7673 321.502 37.7946C321.263 35.2539 321.158 32.1371 321.502 29.3909C321.579 28.7804 321.364 26.8835 321.292 26.4495C320.807 23.5465 321.6 20.4795 321.292 17.6264C321.171 16.5102 321.5 16.0326 321.292 14.8957C321.129 14.0028 321.867 12.3551 321.713 11.3241C321.673 11.0479 321.194 10.1727 321.292 9.85394C321.866 7.97158 321.657 4.91494 321.292 2.92148C321.257 2.73044 321.257 2.27257 321.292 2.08153C321.307 2.00262 321.48 1.9559 321.502 1.8718C321.544 1.71606 321.458 1.39005 321.502 1.34644C321.539 1.3101 321.705 1.3942 321.818 1.34644C321.91 1.30906 321.955 1.14917 322.029 1.13671C322.644 1.02873 323.562 1.26442 324.138 1.13671C324.467 1.063 326.806 0.854307 327.3 0.926985C327.973 1.02458 330.36 1.06611 330.884 0.926985C332.774 0.424468 334.217 1.45857 336.154 0.926985C336.431 0.850154 336.474 1.10453 336.576 1.13671C337.615 1.47 339.889 1.18551 341.003 0.926985C341.527 0.805509 341.762 1.12425 341.848 1.13671C342.169 1.18447 342.633 1.063 342.901 1.13671C342.951 1.15021 343.581 1.77421 343.639 1.8718C343.677 1.93514 343.785 2.16148 343.85 2.2923C344.782 4.14871 346.43 6.69556 347.644 8.59454C347.889 8.97765 348.642 9.23826 348.698 9.43553C348.938 10.2651 349.053 10.6098 349.542 11.3262C350.457 12.6666 352.06 14.958 352.705 16.368C352.982 16.9764 353.102 17.6689 353.548 18.2587C353.764 18.5442 354.231 18.8297 354.391 19.0997C354.725 19.6582 354.336 19.8026 354.918 20.0445C355.512 20.2916 355.815 20.8491 356.077 21.4108C356.605 22.5373 357.149 23.1987 357.553 24.5619C357.654 24.9004 359.36 26.9645 359.45 27.2936C359.655 28.037 359.485 28.2623 360.189 28.6589C360.403 28.7794 362.362 32.2783 362.613 32.7559C363.241 33.9457 363.436 34.9207 364.3 35.907C364.757 36.1012 365.416 37.6232 365.67 37.6928C366.383 37.888 366.524 37.5641 366.934 37.2734C366.977 37.2422 367.091 37.3076 367.146 37.2734C367.349 37.1446 367.718 36.4936 367.673 36.3275C367.649 36.2434 367.479 36.1977 367.462 36.1178C367.417 35.9163 367.424 35.2882 367.462 35.0681C367.729 33.4671 367.634 32.0686 367.462 30.236C367.325 28.7939 368.014 26.6385 367.673 25.404C367.64 25.2887 367.283 25.0987 367.251 24.9835C367.099 24.4363 367.806 22.5176 367.673 21.6226C367.483 20.358 367.234 17.4312 367.462 16.1603C367.654 15.0889 367.288 13.9831 367.462 13.0092C367.765 11.3117 367.147 8.52913 367.462 7.12747C367.693 6.09648 367.326 4.6668 367.251 3.76559C367.213 3.32744 367.17 2.24558 367.251 1.87492C367.267 1.79809 367.62 1.36928 367.673 1.24469C367.719 1.13152 367.635 0.96644 367.673 0.9301C367.71 0.892723 367.875 0.976822 367.989 0.9301C368.114 0.878187 368.545 0.526217 368.621 0.509604C368.833 0.463921 369.673 0.463921 369.886 0.509604C369.958 0.525178 370.447 0.913488 370.518 0.9301C372.653 1.39005 376.548 0.859498 379.162 1.13983C380.837 1.31945 381.398 0.444195 383.167 0.9301C383.444 1.00589 383.49 0.749443 383.589 0.720371C383.986 0.599933 384.066 0.85846 384.221 0.9301C384.286 0.96021 384.386 0.903106 384.432 0.9301C384.531 0.988243 385.156 1.61431 385.169 1.66519C385.261 1.99743 385.208 3.52367 385.169 3.97636C385.074 5.11844 385.004 6.13282 385.169 7.12747C385.502 9.12301 384.756 12.4268 385.169 14.2697C385.478 15.6412 384.953 17.9098 385.38 19.732C385.503 20.2552 385.036 20.9924 384.959 21.4129C384.815 22.1968 385.516 23.1032 385.38 24.3543C385.163 26.3664 384.895 30.1166 385.169 32.3375C385.309 33.464 385.364 37.1062 385.169 38.43C385.024 39.4267 385.288 40.9052 385.592 42.0016C385.645 42.1926 385.201 42.6702 385.38 43.4728C385.605 44.4726 385.036 45.6864 385.17 46.4132C385.623 48.8842 384.886 51.5235 385.17 54.1866C385.357 55.9309 384.91 57.6596 385.17 59.4381C385.324 60.4899 385.415 63.4375 385.17 64.4799C385.116 64.7114 385.334 66.6821 385.38 67.0008C385.423 67.2926 385.444 68.4533 385.38 68.6818C385.371 68.7171 384.936 69.1583 384.854 69.2061C384.809 69.2331 384.709 69.177 384.643 69.2061C384.552 69.2476 384.508 69.3992 384.432 69.4158C383.895 69.5394 383.636 69.2061 383.589 69.2061C383.518 69.2061 383.459 69.4034 383.378 69.4158C381.937 69.6546 380.167 69.1999 378.951 69.4158C378.182 69.5529 377.517 69.2403 377.053 69.2061C374.952 69.0483 372.298 69.7325 370.517 69.4158C368.788 69.1085 366.344 69.339 364.404 69.6255C364.186 69.6577 363.524 69.6733 363.349 69.6255C363.285 69.6079 362.486 68.8084 362.401 68.6797C362.289 68.5115 361.582 67.2926 361.558 67.2095C361.308 66.3426 359.454 62.9568 358.817 61.958C358.542 61.525 357.967 61.4347 357.763 61.117C357.62 60.8948 357.484 60.2812 357.342 60.0673C356.893 59.3935 356.333 59.0976 355.865 58.1766C355.051 56.5715 353.664 55.1688 352.915 53.5543C352.06 51.7156 350.469 49.8758 349.542 47.8813C348.501 45.6459 346.236 43.586 345.536 41.1596C345.41 40.7225 344.348 39.9116 344.06 39.4786C343.4 38.486 342.86 37.3741 342.374 36.3275C342.166 35.88 341.805 35.4948 341.531 35.067C341.336 34.7639 341.124 34.8189 341.003 34.7525C340.87 34.6777 340.409 34.332 340.371 34.332C340.327 34.332 339.718 34.7244 339.633 34.8563C339.606 34.8978 339.664 34.9996 339.633 35.066C339.591 35.1574 339.439 35.202 339.423 35.2757C339.369 35.5177 339.47 35.8613 339.423 36.1167C339.382 36.3327 339.105 36.5798 339.212 37.1664C339.439 38.4061 339.164 40.1327 339.423 41.578C339.961 44.5806 338.71 48.5322 339.633 51.8723C339.686 52.0634 339.112 53.9727 339.212 54.3932C339.44 55.364 339.645 58.8287 339.422 59.8555C339.353 60.1732 339.048 60.085 339.212 60.6965C339.53 61.8832 339.265 62.773 339.422 63.8476C339.53 64.5837 339.245 65.1236 339.212 65.5286C339.131 66.4983 339.369 67.792 339.212 68.6797C339.198 68.7534 339.039 68.7991 339.001 68.8894C338.954 69.0026 339.038 69.1677 339.001 69.205C338.964 69.2414 338.799 69.1573 338.685 69.204Z" fill="black"/>
<path d="M447.553 1.60991C447.59 1.64625 447.506 1.81133 447.553 1.92554C447.59 2.01379 447.74 2.05532 447.764 2.13527C447.814 2.30347 447.721 2.57445 447.764 2.76549C447.819 3.01364 448.082 3.23167 447.975 3.81622C447.825 4.63022 447.426 6.11597 447.553 6.96839C447.711 8.02326 448.025 9.79766 447.764 10.9605C447.563 11.8534 447.619 13.1232 447.764 14.1127C447.846 14.6744 447.872 17.4123 447.764 17.8951C447.747 17.9698 447.595 18.0145 447.553 18.1048C447.523 18.1702 447.58 18.2688 447.553 18.3145C447.504 18.3966 447.062 18.8295 447.026 18.8399C446.306 19.0372 444.385 18.7755 443.442 18.8399C442.942 18.8742 442.105 19.222 441.333 19.0496C440.862 18.9448 440.594 18.9603 440.069 18.8399C438.097 18.3851 436.047 19.2043 433.955 18.6302C433.861 18.6042 433.051 18.9167 432.269 18.6302L431.215 17.9999C430.885 18.1474 430.619 18.4713 430.371 18.6302C429.704 19.061 429.592 18.925 428.895 19.0507C428.821 19.0642 428.775 19.223 428.685 19.2604C428.571 19.3071 428.405 19.223 428.369 19.2604C428.308 19.3206 428.419 19.9737 428.369 20.2062C428.319 20.4367 427.755 20.9777 427.736 21.0472C427.655 21.3431 427.695 22.7531 427.736 23.1487C427.759 23.3667 428.194 24.6947 428.158 24.8296C427.988 25.4505 427.763 25.0591 427.947 25.8804C428.077 26.4576 427.711 27.2592 427.737 27.3516C428.236 29.1571 428.151 30.4186 427.737 32.1847C427.614 32.7059 428.068 33.3517 427.947 34.0754C427.716 35.4604 428.314 37.2265 428.158 38.2783C427.919 39.8782 427.96 40.4835 428.158 42.0607C428.319 43.3492 427.702 43.9316 428.158 45.4226C428.293 45.8649 427.789 46.2334 427.736 46.4733C427.518 47.4742 428.363 49.071 428.158 50.4664C428.117 50.7374 427.909 52.6551 427.947 52.7776C428.435 54.3807 427.742 57.7945 427.947 59.7122C428.109 61.2353 427.956 62.5176 428.158 64.1258C428.258 64.9243 428.004 65.3334 428.158 66.0165C428.218 66.2834 428.221 68.5187 428.158 68.7482C428.144 68.798 427.471 69.4698 427.42 69.4833C427.288 69.5217 427.123 69.4428 426.999 69.4833C426.911 69.5113 426.865 69.6795 426.787 69.693C426.522 69.7397 425.557 69.747 425.312 69.693C423.975 69.3982 421.968 69.1832 420.464 69.4833C418.641 69.8467 417.072 69.1583 415.404 69.693C415.238 69.746 415.127 70.1717 414.772 69.693H408.659C408.449 69.4386 408.127 69.4885 407.92 69.1677C407.891 69.122 407.953 69.015 407.92 68.9579C407.844 68.8219 407.515 68.3983 407.499 68.3277C407.42 67.9664 407.447 66.6426 407.499 66.2263C407.715 64.4851 407.536 62.6141 407.71 60.7619C407.809 59.7112 407.46 58.9034 407.71 58.0302C408.165 56.4458 407.205 54.0848 407.499 52.7766C407.628 52.2024 407.569 51.6719 407.71 50.8849C407.997 49.288 407.925 46.7505 407.499 45.2118C407.461 45.0737 408.041 43.9171 407.92 43.1103C407.627 41.1376 407.676 38.5389 408.131 36.5963C408.322 35.7875 407.46 33.5884 407.71 32.8139C407.973 32.0009 408.091 28.7221 407.92 27.77C407.91 27.7108 407.585 27.5499 407.71 27.1398C408.196 25.545 407.736 23.5744 408.131 21.8862C408.311 21.121 407.632 20.3485 407.288 19.7847C407.228 19.6861 407.136 19.2459 407.078 19.1545C407.031 19.0818 406.8 18.8492 406.761 18.8389C406.085 18.653 404.463 18.9188 403.599 18.8389C402.248 18.7132 401.103 18.9987 399.805 18.8389C397.899 18.6042 395.36 19.2043 393.271 18.6291C393.162 18.599 392.06 19.1981 391.162 19.0496C391.082 19.0361 391.022 18.8399 390.952 18.8399C390.905 18.8399 390.645 19.1753 390.109 19.0496C390.029 19.0309 389.984 18.8669 389.898 18.8399C389.773 18.7994 389.609 18.8773 389.477 18.8399C389.438 18.8295 388.998 18.3966 388.949 18.3145C388.922 18.2688 388.98 18.1692 388.949 18.1048C388.908 18.0134 388.755 17.9688 388.738 17.8951C388.684 17.6532 388.784 17.3116 388.738 17.0541C388.724 16.9741 388.538 16.9212 388.527 16.8444C388.494 16.5827 388.471 15.7874 388.527 15.5839C388.6 15.3243 389.123 15.2724 388.949 14.3234C388.588 12.3507 388.386 6.7109 388.949 4.86798C389.082 4.43087 388.61 4.09863 388.527 3.81726C388.488 3.68228 388.675 2.99495 388.738 2.76653C388.762 2.68347 388.926 2.63883 388.949 2.5568C388.997 2.37718 388.9 2.10412 388.949 1.92658C389.04 1.59641 389.906 1.32854 390.109 0.980719C390.875 1.0181 391.664 0.928806 392.427 0.980719C393.153 1.02952 394.045 1.32335 394.957 1.19045C397.1 0.877932 400.032 1.39914 402.546 1.19045C404.35 1.0399 406.255 1.33892 408.238 1.19045C410.925 0.989026 413.489 1.314 416.459 1.19045C417.464 1.14892 418.875 0.773066 420.043 0.980719C422.321 1.38564 427.07 1.05651 429.74 0.77099C430.493 0.690005 430.848 0.837439 431.427 0.980719C433.559 1.5092 435.697 0.838477 437.962 0.980719C439.074 1.05028 439.379 1.05028 440.491 0.980719C442.437 0.859242 443.57 1.30673 445.339 0.77099C445.75 0.646398 445.86 0.94438 445.972 0.980719C446.103 1.02329 446.276 0.933997 446.394 0.980719C446.453 1.0046 446.777 1.16865 446.816 1.19045C446.965 1.27974 447.092 1.52996 447.237 1.61095C447.337 1.66597 447.514 1.57045 447.553 1.60991Z" fill="black"/>
</svg>
