<svg width="460" height="13" viewBox="0 0 460 13" fill="none" xmlns="http://www.w3.org/2000/svg">
<path d="M439.398 11.3387C440.574 11.435 441.088 11.4003 441.868 11.3526C442.223 11.3304 442.624 11.3048 443.147 11.2866C443.481 11.2794 443.785 11.3719 444.025 11.4499C444.135 11.4851 444.306 11.5334 444.358 11.5351C444.482 11.5261 444.841 11.3621 445.055 11.2652C445.391 11.1125 445.739 10.9547 446.076 10.888L446.291 10.8456C450.088 10.0976 453.673 9.39083 456.95 7.3736C457.192 7.22505 457.429 7.15622 457.637 7.09601C457.783 7.05424 457.92 7.01366 458.009 6.95873C458.774 6.47674 459.246 5.16549 458.999 4.20626C458.88 4.0533 458.046 3.73838 457.009 3.69515C456.407 3.65952 454.744 4.48308 453.747 4.96938C453.261 5.20569 452.828 5.41586 452.506 5.55104C446.19 8.17981 442.38 8.54281 436.189 7.09873C434.177 6.62921 432.222 6.09816 430.332 5.58541C426.23 4.47099 422.356 3.41933 418.026 2.98403C417.382 2.92269 416.285 3.04732 415.316 3.16167C414.711 3.23361 414.133 3.30072 413.667 3.32451C413.31 3.34419 412.759 3.32925 412.174 3.31148C411.495 3.29036 410.464 3.25984 410.149 3.33305C410.212 3.32854 410.151 3.35966 410.121 3.38471C409.937 3.53756 409.633 3.7919 409.187 3.81586C408.911 3.83118 408.656 3.75932 408.454 3.70186C408.255 3.64442 408.141 3.6143 408.02 3.63604C406.42 3.93984 403.669 4.60706 402.57 5.13804C398.479 7.11399 392.097 7.9812 387.053 7.25228C384.476 6.87911 382.009 6.12711 379.623 5.40114C377.409 4.72603 375.118 4.02874 372.813 3.66807C369.458 3.1438 366.379 2.66244 363.13 2.51761C358.173 2.29458 352.159 2.88902 346.196 4.19158C345.4 4.36567 344.651 4.61613 343.904 4.95776C343.777 5.01615 343.653 5.04545 343.541 5.05967C343.382 5.29248 343.174 5.42993 342.918 5.47707L342.285 5.59181L342.152 5.36404C342.137 5.36771 342.121 5.3701 342.106 5.37376C341.571 5.47671 341.232 5.6244 340.84 5.79442C340.492 5.94584 340.098 6.1171 339.571 6.24543C337.265 6.80513 334.281 6.97531 331.882 7.11137L331.261 7.14772C327.478 7.36537 324.383 6.68765 320.632 5.51679C320.021 5.32662 319.807 5.20828 319.55 5.05159C319.46 4.99637 319.356 4.93216 319.159 4.84182C318.514 4.54375 317.65 4.27036 316.814 4.00607C316.282 3.83811 315.756 3.67147 315.286 3.50027C313.788 2.95548 312.795 2.60879 311.304 2.37043C311.002 2.32222 310.736 2.14647 310.457 1.95919C310.336 1.87838 310.133 1.74242 310.055 1.71641C309.388 1.565 308.775 1.58751 308.125 1.61222C307.704 1.62753 307.295 1.64296 306.892 1.61159C306.568 1.58723 306.212 1.47526 305.837 1.35678C305.521 1.25654 305.164 1.14328 304.935 1.12736C304.684 1.10998 304.307 1.18645 303.966 1.2531C303.58 1.32822 303.259 1.38998 302.88 1.39427C302.367 1.38347 301.956 1.35962 301.589 1.33743C300.627 1.27967 300.047 1.24802 298.637 1.53069C297.913 1.67629 297.135 1.79482 296.352 1.91333C295.55 2.03546 294.747 2.15758 294 2.31184C293.731 2.36773 293.356 2.5303 292.995 2.68667C292.523 2.89144 292.078 3.08378 291.657 3.14974C291.214 3.2193 290.941 3.22451 290.689 3.22991C290.387 3.23613 290.185 3.23943 289.62 3.40541C288.395 3.76312 287.994 3.82799 286.763 3.86788C286.516 3.87585 285.827 4.10279 285.324 4.2693C284.759 4.45553 284.226 4.63192 283.801 4.7067C279.226 5.51372 274.672 5.87403 270.974 5.71769C270.627 5.70326 270.309 5.59921 270.028 5.50561C269.863 5.451 269.657 5.38337 269.56 5.38253C269.5 5.382 269.342 5.43126 269.224 5.46695C268.9 5.56793 268.497 5.69228 268.033 5.6034C267.675 5.53445 267.383 5.33694 267.148 5.17918C267.052 5.11503 266.907 5.01629 266.851 5.00061C266.689 4.95362 266.445 4.94643 266.187 4.94038C265.744 4.92891 265.191 4.9127 264.621 4.6887C264.28 4.55407 264.018 4.3391 263.809 4.1651C263.736 4.10369 263.623 4.01155 263.581 3.98967C263.388 3.95634 263.267 3.95781 263.17 3.95949C262.76 3.95845 262.489 3.91051 261.79 3.58284C260.591 3.01788 259.315 2.61302 258.08 2.22119C257.281 1.96734 256.485 1.71353 255.703 1.41933C246.573 -2.01014 234.002 1.52872 224.826 4.11228L223.329 4.53218C222.781 4.68565 222.236 4.8442 221.691 5.00276C219.62 5.60502 217.478 6.22818 215.337 6.49307C208.103 7.38196 202.657 5.4975 196.344 3.31301L194.222 2.58301C190.071 1.17193 186.735 0.45792 184.03 0.400126C181.244 0.3353 176.682 0.644907 173.784 1.3273C173.599 1.37 173.307 1.51683 173.049 1.64497C172.697 1.82041 172.333 2.00333 171.982 2.07243C171.6 2.15139 171.206 2.07958 170.828 2.01045C170.654 1.97982 170.393 1.92943 170.302 1.94383C170.112 1.98269 169.771 2.13542 169.441 2.28446C168.889 2.53158 168.204 2.84083 167.49 2.96246C165.723 3.26481 164.243 3.76968 162.676 4.30291C161.782 4.6078 160.863 4.92007 159.848 5.21253L159.55 5.29854C158.431 5.62046 158.198 5.6868 157.093 6.22152C155.313 7.08206 152.207 7.38917 150.955 7.48079C149.57 7.58391 149.395 7.56085 148.677 7.35077C148.474 7.29076 148.205 7.21246 147.791 7.11263C147.054 6.93655 146.313 6.79082 145.57 6.64635C144.015 6.34287 142.405 6.02751 140.811 5.41859C139.576 4.94699 138.261 4.5418 136.989 4.14964C136.517 4.00499 136.048 3.85911 135.585 3.71328C133.93 3.18737 132.557 3.06905 130.967 2.93364C130.496 2.89281 130.012 2.85188 129.505 2.79808C125.458 2.36905 122.192 2.43043 119.224 2.99194C117.369 3.34289 115.889 3.66293 114.569 4.00335C114.436 4.03637 114.182 4.24684 113.977 4.41596C113.618 4.7116 113.211 5.04734 112.71 5.17209C112.399 5.24913 112.107 5.24278 111.875 5.2395C111.767 5.23855 111.632 5.23485 111.544 5.24547C111.416 5.49375 111.278 5.73942 111.023 5.90557C110.693 6.12171 110.381 6.06707 110.079 6.01506C109.972 5.99641 109.773 5.96048 109.696 5.96995C109.679 5.98119 109.559 6.07256 109.48 6.13264C109.294 6.27407 109.064 6.44931 108.778 6.55568C106.405 7.44268 103.846 8.33819 101.227 8.87237C99.798 9.16373 98.5781 9.13536 97.0767 8.9944C95.5236 8.85045 94.082 8.68975 92.5665 8.51827C91.5372 8.40168 91.118 8.01949 90.7443 7.60605C90.6121 7.45931 90.5629 7.40444 90.4112 7.33982C90.2266 7.25972 89.8871 7.22637 89.5884 7.19718C89.1981 7.15959 88.8289 7.12346 88.4981 6.98131C88.3321 6.90897 88.0105 6.71753 87.8589 6.26425C87.6543 6.20423 87.4165 6.13885 87.2272 6.08656C86.4899 5.8839 86.0211 5.75068 85.7432 5.60773C85.138 5.29608 84.4579 4.98504 83.781 4.6753C83.2151 4.41589 82.6525 4.15779 82.1329 3.90132C77.2656 1.49525 71.6301 1.02197 65.383 2.49549C65.3365 2.50775 65.2101 2.57881 65.127 2.62619C64.8909 2.75832 64.597 2.92413 64.2425 2.96915C64.0305 2.99515 63.8672 3.00005 63.7338 2.99003C63.7127 3.00377 63.6905 3.0175 63.6661 3.03374C62.9671 3.49226 62.4014 3.33794 62.0657 3.24386C62.003 3.22685 61.9062 3.19436 61.8818 3.20301C61.8276 3.21646 61.6546 3.32003 61.5415 3.38867C61.3319 3.51597 61.0945 3.65949 60.8224 3.74067C59.7739 4.05055 58.7646 4.28861 57.7884 4.51809C56.3801 4.84888 55.0502 5.16137 53.6258 5.67559L53.2817 5.80045C49.9206 7.01179 45.3026 8.65145 41.8442 8.50606C41.6567 8.49683 41.3423 8.49788 40.9871 8.49731C39.586 8.49522 38.9375 8.47563 38.5756 8.35094C38.227 8.23142 37.9997 7.97371 37.8348 7.78491C37.7561 7.6956 37.6666 7.59354 37.6193 7.57541C37.3675 7.48206 37.0082 7.43841 36.628 7.39458C36.1916 7.34266 35.7408 7.28936 35.3041 7.14629C34.9432 7.0292 34.5528 6.77006 34.1392 6.4968C33.8946 6.33642 33.5908 6.13501 33.4446 6.07549C29.787 4.60288 24.8279 3.99371 18.7127 4.25811C18.6012 4.2622 18.298 4.36969 18.0778 4.44753C17.6849 4.58589 17.239 4.74404 16.7974 4.77817C14.5342 4.95591 12.6474 5.25341 10.3358 5.67507C8.82414 5.95179 6.56844 6.41444 4.44855 7.24415C2.95742 7.82868 1.51122 8.57439 0.21857 9.42271C0.220719 9.55566 0.205141 9.69731 0.161941 9.84379C0.123286 9.97511 0.0692969 10.0936 -3.02137e-06 10.1969C0.122716 10.5461 0.220527 10.8419 0.292194 11.0995C0.408352 11.1891 0.517616 11.3104 0.615538 11.4669C1.21722 11.5444 2.55846 11.5751 2.96502 11.509C6.31943 9.79118 10.0484 8.89576 13.5832 8.12777C15.5517 7.69932 17.1911 7.6997 18.9265 7.69965C19.6888 7.69998 20.4698 7.70046 21.3064 7.66092C21.5448 7.65034 21.9395 7.55504 22.2866 7.47198C22.7764 7.35346 23.2342 7.22832 23.6234 7.25704C24.3458 7.2836 25.5475 7.62324 26.5126 7.89625C26.7757 7.97071 27.0145 8.03863 27.2071 8.08841C27.6936 8.21673 28.2232 8.34162 28.7703 8.47172C30.4834 8.8766 32.4243 9.33663 33.8918 10.0748C34.2169 10.2385 34.5276 10.4083 34.8329 10.5755C35.4543 10.9164 36.0417 11.2381 36.6984 11.4653C36.9645 11.5575 37.3851 11.5308 37.7913 11.504C38.2317 11.4762 38.6876 11.4472 39.1092 11.5547C39.4604 11.6439 39.7057 11.8499 39.8678 11.9867C39.9039 12.0174 39.9389 12.0507 39.9795 12.0751C41.4825 12.4123 43.0491 12.0221 44.7097 11.6112L45.2017 11.4902C47.603 10.9047 50.0451 10.1918 52.4076 9.50216C55.4824 8.60356 58.6633 7.6755 61.8786 6.98828C62.7108 6.81071 63.5466 6.61038 64.3835 6.41133C67.6812 5.62481 71.0906 4.81268 74.4969 5.24626C77.0281 5.56839 78.2937 6.05544 80.3905 6.86371L80.8864 7.05414C80.9842 7.09171 81.1374 7.10571 81.2995 7.11851C81.5861 7.1438 81.9422 7.17476 82.3179 7.35148C82.6684 7.51659 82.9733 7.85347 83.2967 8.20823C83.3874 8.30904 83.5207 8.45452 83.6214 8.55541C83.7695 8.51493 83.9188 8.48205 84.0787 8.48345C84.1449 8.48402 84.2122 8.48968 84.2826 8.50422C85.2584 8.6963 86.1405 9.26103 86.9205 9.76031C87.3363 10.0273 87.729 10.2776 88.0993 10.4542C92.7323 12.6595 97.9719 13.2357 104.126 12.2145C104.243 12.1839 104.691 11.9587 104.985 11.8106C105.451 11.5767 105.933 11.3353 106.308 11.2183C107.057 10.9843 107.808 10.7591 108.554 10.5365C109.825 10.1564 111.086 9.77877 112.31 9.36408C112.4 9.32941 112.653 9.13792 112.819 9.01278C113.204 8.72369 113.638 8.39706 114.102 8.26059C114.42 8.16841 114.705 8.15444 114.933 8.1425C115.137 8.13289 115.298 8.12417 115.446 8.06849C115.495 8.04866 115.546 7.98074 115.623 7.86874C115.727 7.71773 115.883 7.48995 116.164 7.36328C116.383 7.26517 116.575 7.26684 116.848 7.27682C116.975 7.27793 117.127 7.29065 117.236 7.27135C122.341 5.70683 128.557 5.59523 134.265 6.9718C136.264 7.45386 138.247 8.24342 140.164 9.00581C142.127 9.7876 143.981 10.5254 145.857 10.9659C150.448 12.0428 155.022 11.5257 160.687 9.28872C161.353 9.02615 162.099 8.65792 162.889 8.26856C163.949 7.7461 165.046 7.20497 166.008 6.90067C166.309 6.80582 166.813 6.75198 167.545 6.68241C167.66 6.67075 167.77 6.66032 167.869 6.65106C167.986 6.44825 168.154 6.23577 168.41 6.08988C168.684 5.93276 170.678 5.45515 170.779 5.44718C171.082 5.4207 171.28 5.41357 171.451 5.4062C171.736 5.39603 171.908 5.38867 172.486 5.27851L173.84 5.01307C176.255 4.53408 178.75 4.0406 181.32 3.90604C186.311 3.64449 193.007 5.53355 197.43 7.51797C207.006 11.816 217.664 9.70746 223.166 8.06665C223.983 7.82312 224.82 7.58229 225.65 7.3452C227.249 6.88567 228.76 6.45323 230.096 6.00787C233.151 4.98883 237.068 4.09124 241.124 3.48226C243.678 3.09943 247.454 2.70068 250.76 3.65244C251.066 3.73993 251.306 3.78 251.543 3.82005C251.921 3.88411 252.347 3.95746 252.966 4.18441C253.197 4.26872 253.495 4.25866 253.788 4.25235C254.103 4.24244 254.429 4.23389 254.74 4.34421C255.865 4.73889 256.983 5.10439 258.11 5.4725C259.05 5.77947 259.997 6.08904 260.96 6.419C261.321 6.5437 261.701 6.7559 262.068 6.96166C262.378 7.13527 262.73 7.33204 262.923 7.38183C263.089 7.42632 263.313 7.42068 263.548 7.4164C263.882 7.40666 264.261 7.40236 264.638 7.52972C264.922 7.62462 265.119 7.80737 265.277 7.95561C265.376 8.04636 265.461 8.12433 265.528 8.14643C266.043 8.31424 266.693 8.38574 267.321 8.45452C268.01 8.53017 268.662 8.60168 269.207 8.79887C269.631 8.95449 269.819 8.91688 270.152 8.85143C270.416 8.80056 270.747 8.73761 271.182 8.76674C271.519 8.79119 271.83 8.87367 272.132 8.95226C272.549 9.06224 272.943 9.16316 273.399 9.12157C274.252 9.04166 275.127 8.9746 276.009 8.9076C277.945 8.75992 279.947 8.60775 281.836 8.29255C282.473 8.18544 283.107 8.01626 283.779 7.83856C284.562 7.63017 285.372 7.41442 286.233 7.28901C288.373 6.97726 290.525 6.35926 292.607 5.76215C295.486 4.93528 298.464 4.08013 301.581 3.95922C303.776 3.8771 311.221 4.42567 313.381 5.94345C314.286 6.58054 316.133 7.39802 318.578 8.24605C318.842 8.33697 319.236 8.36067 319.617 8.38425C320.042 8.40949 320.481 8.4361 320.864 8.56351C321.206 8.67664 321.427 8.9191 321.589 9.09522C321.631 9.14243 321.696 9.21262 321.721 9.23057C321.756 9.23087 321.878 9.21041 322.029 9.18515C322.24 9.14901 322.504 9.10574 322.802 9.16024C323.605 9.3103 324.426 9.51496 325.254 9.72221C326.866 10.1262 328.548 10.5422 330.078 10.5125C330.062 10.5022 330.106 10.4659 330.149 10.4359C330.325 10.3134 330.593 10.1271 330.951 10.0859C331.837 9.98603 332.787 10.0057 333.796 10.0259C334.936 10.051 336.111 10.074 337.119 9.90552C337.397 9.85857 337.741 9.70839 338.073 9.56317C338.42 9.41174 338.748 9.26775 339.067 9.21103C339.517 9.12887 339.918 9.2058 340.238 9.2681C340.359 9.29194 340.551 9.33159 340.608 9.31944C340.703 9.29494 340.968 9.11621 341.126 9.00872C341.352 8.85624 341.585 8.69749 341.825 8.60338C344.047 7.72391 346.473 7.29946 348.765 6.97258C349.785 6.82703 350.813 6.62206 351.904 6.40623C353.238 6.14062 354.617 5.86655 355.973 5.71127L356.411 5.66065C358.083 5.46635 360.883 5.13885 362.209 5.26563C362.76 5.31601 363.366 5.50106 364.007 5.69529C364.58 5.86867 365.172 6.04854 365.642 6.09948C365.931 6.13239 366.367 6.09821 366.792 6.06774C367.271 6.03394 367.721 6.00116 368.107 6.03744C371.382 6.34454 374.522 7.44423 377.56 8.50758C380.654 9.59041 383.853 10.7109 387.159 10.9689C389.294 11.1369 390.767 11.0915 392.793 10.7978C393.157 10.744 393.587 10.7857 394.003 10.826C394.281 10.8525 394.623 10.8859 394.775 10.8644C394.786 10.8557 394.881 10.7843 394.951 10.7318C395.13 10.5979 395.377 10.4127 395.694 10.3129C396.163 10.1651 396.63 10.1805 397.044 10.1943C397.248 10.1999 397.446 10.213 397.618 10.1854C398.422 10.0481 399.392 9.6995 400.417 9.32992C401.134 9.07285 401.858 8.81331 402.544 8.61675C403.035 8.47671 403.422 8.42438 403.832 8.36845C404.01 8.34469 404.2 8.31849 404.413 8.28364C404.436 8.26485 404.66 8.10603 404.807 8.00097C405.251 7.68581 405.755 7.32687 406.304 7.2709C406.591 7.23922 406.929 7.29914 407.286 7.35922C407.381 7.37524 407.505 7.39658 407.622 7.41406C407.778 7.22806 408.002 7.04898 408.327 6.97839C408.488 6.94307 411.821 6.53033 412.199 6.56402C412.481 6.58547 412.718 6.66855 412.907 6.7335C413.199 6.83481 413.358 6.89316 413.734 6.76098C413.805 6.73628 413.85 6.71895 413.88 6.70149C414.224 6.43357 414.515 6.42218 415.154 6.39864C420.729 6.19409 424.617 6.88507 429.98 9.03088C430.282 9.15125 430.507 9.3621 430.669 9.53822C430.871 9.47162 431.144 9.40058 431.459 9.45017C431.745 9.49571 432.063 9.6504 432.646 9.94287C433.108 10.1735 433.739 10.4892 434.076 10.5567C434.278 10.5964 434.498 10.5895 434.736 10.584C435.013 10.575 435.304 10.5661 435.611 10.6296C436.058 10.7196 436.441 10.9407 436.778 11.1348C437.029 11.2787 437.265 11.415 437.469 11.4624C437.625 11.5004 438.059 11.4409 438.344 11.4029C438.717 11.3517 439.07 11.3067 439.39 11.331L439.398 11.3387Z" fill="black"/>
</svg>
