<svg width="23" height="4" viewBox="0 0 23 4" fill="none" xmlns="http://www.w3.org/2000/svg">
<path d="M8.31543 0.0234181C11.0329 -0.0816833 13.2373 0.167213 14.8633 0.765606C14.9282 0.789824 15.0633 0.871468 15.1719 0.936504C15.3555 1.04731 15.5292 1.15247 15.6895 1.20018C15.8836 1.25833 16.0844 1.28054 16.2783 1.30174C16.447 1.31961 16.6068 1.33717 16.7188 1.37498C16.7396 1.38231 16.7796 1.42388 16.8145 1.45994C16.8878 1.53654 16.9896 1.6418 17.1445 1.69041C17.3054 1.74103 17.5936 1.74865 18.2158 1.74998C18.3734 1.75033 18.5133 1.7501 18.5967 1.75389C19.9119 1.80534 21.6033 1.32396 23 0.87791V2.23826C22.0419 2.49244 21.059 2.75108 20.0908 2.9658L19.8721 3.01463C19.1342 3.1807 18.4376 3.33842 17.7695 3.20115C17.7516 3.19125 17.7357 3.17742 17.7197 3.16502C17.6477 3.10949 17.5384 3.02645 17.3828 2.99022C17.1955 2.94652 16.9925 2.95761 16.7969 2.96873C16.6166 2.97946 16.4299 2.99039 16.3115 2.95311C16.0197 2.86071 15.7577 2.72924 15.4814 2.5908C15.346 2.52299 15.2078 2.45403 15.0635 2.38768C14.4111 2.08784 13.5475 1.90107 12.7861 1.73631C12.5431 1.6834 12.3079 1.63222 12.0918 1.58006C12.0063 1.55983 11.8999 1.53217 11.7832 1.50193C11.3542 1.39089 10.8191 1.25221 10.498 1.24119C10.3252 1.22956 10.1217 1.28026 9.9043 1.32811C9.75009 1.36166 9.57466 1.40006 9.46875 1.40428C9.097 1.42002 8.7499 1.42029 8.41113 1.4199C7.6399 1.41933 6.91085 1.41773 6.03613 1.5908C4.46554 1.90104 2.80849 2.26354 1.31836 2.95897C1.13761 2.9856 0.541904 2.97296 0.274414 2.94139C0.230998 2.87817 0.182291 2.82827 0.130859 2.79197C0.0989334 2.68759 0.0545649 2.56719 0 2.42576C0.0306317 2.38402 0.0551815 2.33529 0.0722656 2.28221C0.0911276 2.22331 0.097633 2.16579 0.0966797 2.11229C0.670836 1.76874 1.31414 1.466 1.97656 1.22947C2.91832 0.893795 3.92115 0.70738 4.59277 0.595684C5.61981 0.425499 6.45823 0.304687 7.46387 0.233379C7.6601 0.219683 7.85866 0.156543 8.0332 0.100567C8.13102 0.0690832 8.26596 0.0250378 8.31543 0.0234181Z" fill="black"/>
</svg>
