<svg width="110" height="6" viewBox="0 0 110 6" fill="none" xmlns="http://www.w3.org/2000/svg">
<path d="M99.9209 1.65963C102.872 0.903518 106.613 -0.0542977 109.994 0.00240404V1.26119C108.957 1.19805 107.935 1.30473 107.164 1.40963C105.362 1.65524 103.621 2.0179 102.264 2.43014C101.67 2.61029 100.999 2.78535 100.288 2.97115C99.9196 3.06701 99.5477 3.16467 99.1846 3.26315C96.7399 3.92673 92.0035 4.77807 87.7461 3.0317C85.7797 2.22545 82.803 1.45672 80.585 1.561C79.443 1.6147 78.3338 1.81482 77.2607 2.00826L76.6592 2.11471C76.4024 2.15919 76.3258 2.16244 76.1992 2.16647C76.1232 2.1694 76.0348 2.17244 75.9004 2.18307C75.8532 2.18675 74.9692 2.37928 74.8477 2.44283C74.7341 2.50191 74.6591 2.58824 74.6074 2.67037C74.5635 2.67408 74.5146 2.6784 74.4639 2.68307C74.1385 2.71104 73.914 2.73259 73.7803 2.77096C73.3527 2.89407 72.8655 3.11321 72.3945 3.32467C72.0436 3.48229 71.7121 3.63151 71.416 3.73776C68.8994 4.64292 66.8668 4.85077 64.8262 4.41256C63.9922 4.23328 63.1679 3.93342 62.2949 3.61569C61.4431 3.30587 60.5615 2.98473 59.6729 2.78854C57.1354 2.22832 54.3728 2.27198 52.1045 2.90475C52.0559 2.91254 51.988 2.90719 51.9316 2.9067C51.8101 2.90256 51.7248 2.90216 51.6279 2.94186C51.5033 2.99305 51.4338 3.08477 51.3877 3.14596C51.3535 3.19136 51.3307 3.21899 51.3086 3.22701C51.2432 3.24953 51.1717 3.25346 51.0811 3.25729C50.9795 3.26205 50.853 3.26786 50.7119 3.30514C50.5055 3.36033 50.3123 3.49175 50.1416 3.60885C50.0679 3.65935 49.9563 3.73696 49.916 3.75143C49.3723 3.91917 48.8117 4.07234 48.2471 4.22604C47.9153 4.31607 47.5808 4.40678 47.248 4.50143C47.0815 4.54879 46.8677 4.64702 46.6611 4.74166C46.5304 4.80153 46.3317 4.89214 46.2793 4.90475C43.5446 5.31679 41.2151 5.08195 39.1553 4.186C38.9908 4.11426 38.8166 4.01209 38.6318 3.90377C38.2851 3.70106 37.8926 3.47131 37.459 3.39303C37.4277 3.38712 37.3975 3.38548 37.3682 3.38522C37.2972 3.3846 37.2308 3.39721 37.165 3.41354C37.1203 3.37259 37.0608 3.31381 37.0205 3.27291C36.8766 3.12892 36.7408 2.99233 36.585 2.92526C36.4181 2.85357 36.2601 2.84087 36.1328 2.83053C36.0608 2.82528 35.9917 2.81943 35.9482 2.80416L35.7285 2.72701C34.7964 2.39851 34.2335 2.20031 33.1084 2.06881C31.5945 1.89183 30.0795 2.21973 28.6143 2.53756C28.2425 2.61799 27.8707 2.69924 27.501 2.77096C26.0722 3.04858 24.6583 3.42416 23.292 3.78756C22.2425 4.06637 21.1576 4.35469 20.0908 4.59127L19.8721 4.6401C19.1342 4.80617 18.4376 4.96389 17.7695 4.82662C17.7515 4.81671 17.7358 4.80295 17.7197 4.79049C17.6477 4.73496 17.5386 4.65197 17.3828 4.61569C17.1954 4.57195 16.9926 4.58307 16.7969 4.5942C16.6166 4.60493 16.4299 4.61586 16.3115 4.57858C16.0196 4.48618 15.7578 4.35474 15.4814 4.21627C15.3459 4.14842 15.2079 4.07954 15.0635 4.01315C14.411 3.71326 13.5476 3.52656 12.7861 3.36178C12.5431 3.30886 12.3079 3.2577 12.0918 3.20553C12.0063 3.18529 11.9 3.15765 11.7832 3.1274C11.3542 3.01635 10.8191 2.87768 10.498 2.86666C10.3252 2.85502 10.1217 2.90572 9.9043 2.95358C9.75008 2.98714 9.57466 3.02554 9.46875 3.02975C9.097 3.04549 8.7499 3.04576 8.41113 3.04537C7.63987 3.0448 6.9109 3.04318 6.03613 3.21627C4.46546 3.52653 2.80855 3.88894 1.31836 4.58444C1.13761 4.61107 0.541904 4.59843 0.274414 4.56686C0.230926 4.50345 0.182401 4.45381 0.130859 4.41744C0.0989199 4.31294 0.0546602 4.1929 0 4.05123C0.030765 4.0094 0.05513 3.96092 0.0722656 3.90768C0.0912602 3.84859 0.0976379 3.79143 0.0966797 3.73776C0.670902 3.39415 1.31404 3.0915 1.97656 2.85494C2.91838 2.51922 3.9211 2.33286 4.59277 2.22115C5.61985 2.05096 6.4582 1.93016 7.46387 1.85885C7.66011 1.84516 7.85865 1.78202 8.0332 1.72604C8.13103 1.69455 8.26593 1.65051 8.31543 1.64889C11.033 1.54378 13.2373 1.79263 14.8633 2.39108C14.9283 2.41531 15.0632 2.49691 15.1719 2.56197C15.3556 2.67282 15.5292 2.77796 15.6895 2.82565C15.8836 2.88381 16.0844 2.90601 16.2783 2.92721C16.4471 2.94509 16.6068 2.9626 16.7188 3.00045C16.7397 3.00779 16.7796 3.04928 16.8145 3.08541C16.8878 3.16204 16.9895 3.26729 17.1445 3.31588C17.3054 3.3665 17.5936 3.37412 18.2158 3.37545C18.3734 3.3758 18.5133 3.37557 18.5967 3.37936C20.1338 3.43949 22.1863 2.77672 23.6797 2.28658L23.832 2.2358C24.4647 2.02779 25.056 1.90167 25.6816 1.76803C26.1154 1.67529 26.5644 1.57889 27.0303 1.45358C27.1511 1.42076 27.2565 1.36254 27.3496 1.311C27.3999 1.2832 27.4769 1.24124 27.501 1.2358C27.5119 1.23237 27.5552 1.2455 27.583 1.2524C27.7323 1.29068 27.9836 1.35303 28.2939 1.16744C28.3047 1.16092 28.3149 1.1554 28.3242 1.14987C28.3834 1.15395 28.4558 1.15248 28.5498 1.14205C28.7074 1.12392 28.8385 1.05689 28.9434 1.00338C28.9803 0.984197 29.036 0.954628 29.0566 0.94967C31.8326 0.354181 34.3379 0.548376 36.502 1.52584C36.7329 1.62999 36.9829 1.73494 37.2344 1.84029C37.5352 1.9661 37.8375 2.09265 38.1064 2.2192C38.23 2.27727 38.4388 2.3311 38.7666 2.41354C38.8506 2.43477 38.956 2.46143 39.0469 2.4858C39.1144 2.66969 39.2583 2.74742 39.332 2.77682C39.4791 2.83451 39.643 2.84934 39.8164 2.86471C39.949 2.87663 40.0995 2.89086 40.1816 2.9233C40.2491 2.94956 40.2713 2.97214 40.3301 3.0317C40.4963 3.19945 40.6832 3.3542 41.1406 3.40182C41.8141 3.47187 42.4552 3.53725 43.1455 3.59615C43.8125 3.6538 44.3545 3.6659 44.9893 3.5483C46.1532 3.33256 47.2904 2.9707 48.3447 2.61178C48.472 2.56876 48.5739 2.49719 48.6562 2.4399C48.6913 2.41556 48.745 2.37903 48.7529 2.37447C48.7869 2.37071 48.8754 2.38544 48.9229 2.39303C49.057 2.41422 49.1964 2.43562 49.3428 2.34811C49.4558 2.28081 49.5166 2.18103 49.5732 2.08053C49.6125 2.07625 49.6727 2.07816 49.7207 2.07858C49.8237 2.07999 49.9537 2.08237 50.0918 2.05123C50.3148 2.00078 50.4959 1.86532 50.6553 1.74557C50.7461 1.67708 50.8591 1.59191 50.918 1.57858C51.5045 1.44099 52.162 1.31107 52.9863 1.1694C54.3053 0.942674 55.7572 0.918828 57.5557 1.0942C57.7808 1.11616 57.9956 1.13316 58.2051 1.14987C58.9116 1.20531 59.5219 1.25443 60.2578 1.46822C60.4636 1.52748 60.6722 1.58621 60.8818 1.64498C61.4473 1.80446 62.0321 1.9699 62.5811 2.16158C63.2899 2.40908 64.006 2.537 64.6973 2.66061C65.0271 2.71944 65.3568 2.77939 65.6846 2.85104C65.8684 2.89162 65.9877 2.92333 66.0781 2.94772C66.397 3.03315 66.4751 3.04277 67.0908 3.00143C67.6472 2.96469 69.0279 2.84102 69.8184 2.49264C70.3092 2.27632 70.4123 2.24868 70.9092 2.11861L71.042 2.08444C71.4926 1.96617 71.9016 1.83962 72.2988 1.71627C72.9949 1.50058 73.6526 1.29631 74.4375 1.17428C74.7546 1.1252 75.0596 0.999895 75.3047 0.899865C75.4513 0.839533 75.603 0.777862 75.6875 0.76217C75.7278 0.756384 75.8436 0.777033 75.9209 0.789513C76.0888 0.817677 76.2646 0.846794 76.4346 0.814904C76.5901 0.786954 76.7523 0.713037 76.9082 0.642052C77.0228 0.590227 77.1524 0.530454 77.2344 0.513146C78.5224 0.237377 80.5498 0.112863 81.7881 0.140099C82.9906 0.164464 84.473 0.456093 86.3184 1.02975L87.2617 1.32565C90.0684 2.21372 92.4894 2.98053 95.7041 2.62252C96.6558 2.51582 97.6083 2.26354 98.5283 2.01998C98.7705 1.9559 99.0128 1.89157 99.2559 1.82955L99.9209 1.65963Z" fill="black"/>
</svg>
