<svg width="96" height="5" viewBox="0 0 96 5" fill="none" xmlns="http://www.w3.org/2000/svg">
<path d="M81.7881 0.00366638C82.9906 0.0280308 84.473 0.319672 86.3184 0.893315L87.2617 1.18921C90.0684 2.07729 92.4894 2.8441 95.7041 2.48609C95.8028 2.47502 95.9013 2.46105 96 2.44703V3.7566C93.5702 4.06568 90.5542 4.04713 87.7461 2.89527C85.7797 2.08903 82.803 1.32029 80.585 1.42456C79.443 1.47826 78.3338 1.67839 77.2607 1.87183L76.6592 1.97828C76.4024 2.02276 76.3258 2.026 76.1992 2.03003C76.1232 2.03296 76.0348 2.036 75.9004 2.04664C75.8532 2.05032 74.9695 2.24281 74.8477 2.3064C74.7341 2.36544 74.6591 2.45185 74.6074 2.53394C74.5635 2.53765 74.5146 2.54197 74.4639 2.54664C74.1386 2.5746 73.914 2.59617 73.7803 2.63453C73.3527 2.75763 72.8654 2.97679 72.3945 3.18824C72.0436 3.34584 71.7121 3.49507 71.416 3.60132C68.8994 4.50648 66.8668 4.71433 64.8262 4.27613C63.9922 4.09685 63.1678 3.79698 62.2949 3.47925C61.4431 3.16944 60.5615 2.84829 59.6729 2.6521C57.1355 2.0919 54.3728 2.13557 52.1045 2.76831C52.0559 2.77611 51.988 2.77076 51.9316 2.77027C51.8102 2.76613 51.7248 2.76575 51.6279 2.80542C51.5034 2.85658 51.4338 2.94834 51.3877 3.00953C51.3535 3.05488 51.3307 3.08253 51.3086 3.09058C51.2432 3.11309 51.1717 3.11703 51.0811 3.12085C50.9795 3.12561 50.8529 3.13144 50.7119 3.16871C50.5056 3.22388 50.3122 3.35533 50.1416 3.47242C50.0679 3.52289 49.9563 3.60046 49.916 3.61499C49.3723 3.78274 48.8117 3.93591 48.2471 4.0896C47.9153 4.17964 47.5808 4.27035 47.248 4.36499C47.0815 4.41235 46.8677 4.5106 46.6611 4.60523C46.5304 4.66507 46.3318 4.75567 46.2793 4.76831C43.5446 5.18035 41.2151 4.94551 39.1553 4.04956C38.9908 3.97783 38.8165 3.87564 38.6318 3.76734C38.2851 3.56464 37.8926 3.33487 37.459 3.2566C37.4277 3.25069 37.3975 3.24905 37.3682 3.24878C37.2972 3.24816 37.2308 3.26078 37.165 3.2771C37.1203 3.23617 37.0608 3.17735 37.0205 3.13648C36.8767 2.99253 36.7407 2.85589 36.585 2.78882C36.4182 2.71717 36.2601 2.70444 36.1328 2.6941C36.0608 2.68885 35.9917 2.683 35.9482 2.66773L35.7285 2.59058C34.7964 2.26209 34.2334 2.06388 33.1084 1.93238C31.5945 1.75541 30.0795 2.0833 28.6143 2.40113C28.2425 2.48155 27.8707 2.5628 27.501 2.63453C26.0722 2.91214 24.6582 3.28773 23.292 3.65113C22.2425 3.92993 21.1576 4.21826 20.0908 4.45484L19.8721 4.50367C19.1342 4.66974 18.4376 4.82746 17.7695 4.69019C17.7515 4.68028 17.7358 4.6665 17.7197 4.65406C17.6477 4.59853 17.5385 4.51552 17.3828 4.47925C17.1954 4.43553 16.9926 4.44664 16.7969 4.45777C16.6166 4.4685 16.4299 4.47943 16.3115 4.44214C16.0196 4.34975 15.7577 4.2183 15.4814 4.07984C15.3459 4.012 15.2078 3.94309 15.0635 3.87671C14.411 3.57684 13.5476 3.39012 12.7861 3.22535C12.5431 3.17244 12.3079 3.12126 12.0918 3.0691C12.0063 3.04886 11.9 3.02121 11.7832 2.99097C11.3542 2.87992 10.8191 2.74125 10.498 2.73023C10.3252 2.71859 10.1217 2.76929 9.9043 2.81714C9.75008 2.8507 9.57466 2.8891 9.46875 2.89331C9.097 2.90906 8.7499 2.90933 8.41113 2.90894C7.63988 2.90837 6.91088 2.90675 6.03613 3.07984C4.46549 3.39009 2.80853 3.75253 1.31836 4.448C1.13761 4.47464 0.541904 4.462 0.274414 4.43042C0.230951 4.36709 0.182362 4.31735 0.130859 4.28101C0.0989244 4.17655 0.0546266 4.05638 0 3.9148C0.0307175 3.873 0.0551487 3.82443 0.0722656 3.77124C0.0912126 3.71222 0.0976369 3.65494 0.0966797 3.60132C0.670879 3.25774 1.31407 2.95506 1.97656 2.71851C2.91836 2.38281 3.92112 2.19642 4.59277 2.08472C5.61983 1.91453 6.45821 1.79373 7.46387 1.72242C7.66011 1.70872 7.85865 1.64558 8.0332 1.5896C8.13103 1.55812 8.26594 1.51408 8.31543 1.51246C11.033 1.40735 13.2373 1.65622 14.8633 2.25464C14.9283 2.27887 15.0632 2.36049 15.1719 2.42554C15.3555 2.53637 15.5292 2.64152 15.6895 2.68921C15.8836 2.74738 16.0844 2.76958 16.2783 2.79078C16.4471 2.80866 16.6068 2.82618 16.7188 2.86402C16.7397 2.87135 16.7796 2.91287 16.8145 2.94898C16.8878 3.0256 16.9896 3.13085 17.1445 3.17945C17.3054 3.23007 17.5936 3.23769 18.2158 3.23902C18.3734 3.23937 18.5133 3.23914 18.5967 3.24292C20.1338 3.30306 22.1863 2.64028 23.6797 2.15015L23.832 2.09937C24.4647 1.89137 25.056 1.76523 25.6816 1.6316C26.1154 1.53886 26.5644 1.44246 27.0303 1.31714C27.1511 1.28432 27.2565 1.2261 27.3496 1.17456C27.3999 1.14676 27.4769 1.1048 27.501 1.09937C27.512 1.096 27.5552 1.10907 27.583 1.11597C27.7323 1.15425 27.9836 1.2166 28.2939 1.03101C28.3047 1.02451 28.3149 1.01895 28.3242 1.01343C28.3834 1.01751 28.4558 1.01605 28.5498 1.00562C28.7073 0.98748 28.8385 0.920453 28.9434 0.866948C28.9803 0.847762 29.036 0.818191 29.0566 0.813237C31.8326 0.217767 34.3379 0.411979 36.502 1.38941C36.7329 1.49355 36.9829 1.59852 37.2344 1.70386C37.5352 1.82966 37.8375 1.95623 38.1064 2.08277C38.23 2.14083 38.4388 2.19467 38.7666 2.2771C38.8506 2.29833 38.956 2.325 39.0469 2.34937C39.1144 2.53319 39.2582 2.61097 39.332 2.64039C39.4791 2.69808 39.6431 2.71291 39.8164 2.72828C39.9489 2.7402 40.0995 2.75444 40.1816 2.78687C40.249 2.81311 40.2713 2.83579 40.3301 2.89527C40.4963 3.06301 40.6832 3.21776 41.1406 3.26539C41.8141 3.33543 42.4552 3.40082 43.1455 3.45972C43.8125 3.51736 44.3545 3.52947 44.9893 3.41187C46.1532 3.19612 47.2904 2.83426 48.3447 2.47535C48.472 2.43232 48.5739 2.36075 48.6562 2.30347C48.6913 2.27913 48.7451 2.24259 48.7529 2.23804C48.7869 2.23429 48.8754 2.249 48.9229 2.2566C49.057 2.27778 49.1964 2.29918 49.3428 2.21167C49.4558 2.14438 49.5166 2.04457 49.5732 1.9441C49.6125 1.93982 49.6727 1.94172 49.7207 1.94214C49.8237 1.94355 49.9537 1.94594 50.0918 1.9148C50.3147 1.86434 50.4959 1.72887 50.6553 1.60914C50.746 1.54066 50.8591 1.45548 50.918 1.44214C51.5045 1.30456 52.162 1.17464 52.9863 1.03296C54.3053 0.806247 55.7573 0.782399 57.5557 0.957768C57.7808 0.979729 57.9956 0.996732 58.2051 1.01343C58.9115 1.06888 59.5219 1.11801 60.2578 1.33179C60.4635 1.39104 60.6722 1.44978 60.8818 1.50855C61.4472 1.66802 62.0321 1.83348 62.5811 2.02515C63.2898 2.27264 64.006 2.40057 64.6973 2.52417C65.0271 2.583 65.3568 2.64297 65.6846 2.7146C65.8683 2.75518 65.9877 2.78689 66.0781 2.81128C66.397 2.89672 66.4751 2.90634 67.0908 2.86499C67.6472 2.82825 69.0279 2.70458 69.8184 2.35621C70.3092 2.13992 70.4123 2.11224 70.9092 1.98218L71.042 1.948C71.4926 1.82975 71.9016 1.70318 72.2988 1.57984C72.9949 1.36416 73.6526 1.15987 74.4375 1.03785C74.7546 0.988759 75.0597 0.863458 75.3047 0.763432C75.4513 0.703109 75.603 0.641427 75.6875 0.625737C75.7278 0.619967 75.8436 0.640602 75.9209 0.65308C76.0888 0.681245 76.2646 0.710361 76.4346 0.678471C76.5901 0.650516 76.7523 0.576599 76.9082 0.50562C77.0228 0.453803 77.1524 0.394017 77.2344 0.376713C78.5224 0.100951 80.5498 -0.0235694 81.7881 0.00366638Z" fill="black"/>
</svg>
