<svg width="80" height="5" viewBox="0 0 80 5" fill="none" xmlns="http://www.w3.org/2000/svg">
<path d="M80 1.41797C79.0634 1.50035 78.1496 1.66495 77.2607 1.8252L76.6592 1.93164C76.4024 1.97612 76.3258 1.97937 76.1992 1.9834C76.1232 1.98633 76.0348 1.98937 75.9004 2C75.8532 2.00368 74.9695 2.19617 74.8477 2.25977C74.7341 2.3188 74.6591 2.40522 74.6074 2.4873C74.5635 2.49101 74.5146 2.49534 74.4639 2.5C74.1386 2.52796 73.914 2.54953 73.7803 2.58789C73.3527 2.71099 72.8654 2.93015 72.3945 3.1416C72.0436 3.29921 71.7121 3.44844 71.416 3.55469C68.8994 4.45985 66.8668 4.6677 64.8262 4.22949C63.9922 4.05021 63.1678 3.75034 62.2949 3.43262C61.4431 3.12281 60.5615 2.80165 59.6729 2.60547C57.1355 2.04527 54.3728 2.08893 52.1045 2.72168C52.0559 2.72947 51.988 2.72412 51.9316 2.72363C51.8102 2.7195 51.7248 2.71912 51.6279 2.75879C51.5034 2.80994 51.4338 2.90171 51.3877 2.96289C51.3535 3.00824 51.3307 3.03589 51.3086 3.04395C51.2432 3.06646 51.1717 3.07039 51.0811 3.07422C50.9795 3.07898 50.8529 3.08481 50.7119 3.12207C50.5056 3.17725 50.3122 3.3087 50.1416 3.42578C50.0679 3.47625 49.9563 3.55383 49.916 3.56836C49.3723 3.7361 48.8117 3.88927 48.2471 4.04297C47.9153 4.133 47.5808 4.22372 47.248 4.31836C47.0815 4.36572 46.8677 4.46396 46.6611 4.55859C46.5304 4.61844 46.3318 4.70903 46.2793 4.72168C43.5446 5.13372 41.2151 4.89888 39.1553 4.00293C38.9908 3.9312 38.8165 3.829 38.6318 3.7207C38.2851 3.51801 37.8926 3.28823 37.459 3.20996C37.4277 3.20406 37.3975 3.20241 37.3682 3.20215C37.2972 3.20153 37.2308 3.21415 37.165 3.23047C37.1203 3.18953 37.0608 3.13071 37.0205 3.08984C36.8767 2.94589 36.7407 2.80925 36.585 2.74219C36.4182 2.67053 36.2601 2.6578 36.1328 2.64746C36.0608 2.64221 35.9917 2.63636 35.9482 2.62109L35.7285 2.54395C34.7964 2.21545 34.2334 2.01724 33.1084 1.88574C31.5945 1.70877 30.0795 2.03666 28.6143 2.35449C28.2425 2.43492 27.8707 2.51617 27.501 2.58789C26.0722 2.86551 24.6582 3.2411 23.292 3.60449C22.2425 3.8833 21.1576 4.17163 20.0908 4.4082L19.8721 4.45703C19.1342 4.62311 18.4376 4.78082 17.7695 4.64355C17.7515 4.63365 17.7358 4.61986 17.7197 4.60742C17.6477 4.55189 17.5385 4.46889 17.3828 4.43262C17.1954 4.3889 16.9926 4.40001 16.7969 4.41113C16.6166 4.42186 16.4299 4.43279 16.3115 4.39551C16.0196 4.30311 15.7577 4.17166 15.4814 4.0332C15.3459 3.96536 15.2078 3.89646 15.0635 3.83008C14.411 3.53021 13.5476 3.34349 12.7861 3.17871C12.5431 3.1258 12.3079 3.07462 12.0918 3.02246C12.0063 3.00223 11.9 2.97458 11.7832 2.94434C11.3542 2.83329 10.8191 2.69461 10.498 2.68359C10.3252 2.67195 10.1217 2.72265 9.9043 2.77051C9.75008 2.80407 9.57466 2.84247 9.46875 2.84668C9.097 2.86243 8.7499 2.86269 8.41113 2.8623C7.63988 2.86174 6.91088 2.86012 6.03613 3.0332C4.46549 3.34345 2.80853 3.7059 1.31836 4.40137C1.13761 4.428 0.541904 4.41536 0.274414 4.38379C0.230951 4.32045 0.182362 4.27072 0.130859 4.23438C0.0989244 4.12991 0.0546266 4.00975 0 3.86816C0.0307175 3.82636 0.0551487 3.7778 0.0722656 3.72461C0.0912126 3.66559 0.0976369 3.6083 0.0966797 3.55469C0.670879 3.2111 1.31407 2.90842 1.97656 2.67188C2.91836 2.33617 3.92112 2.14979 4.59277 2.03809C5.61983 1.8679 6.45821 1.74709 7.46387 1.67578C7.66011 1.66209 7.85865 1.59895 8.0332 1.54297C8.13103 1.51148 8.26594 1.46744 8.31543 1.46582C11.033 1.36071 13.2373 1.60958 14.8633 2.20801C14.9283 2.23224 15.0632 2.31385 15.1719 2.37891C15.3555 2.48974 15.5292 2.59489 15.6895 2.64258C15.8836 2.70074 16.0844 2.72294 16.2783 2.74414C16.4471 2.76202 16.6068 2.77954 16.7188 2.81738C16.7397 2.82472 16.7796 2.86624 16.8145 2.90234C16.8878 2.97896 16.9896 3.08422 17.1445 3.13281C17.3054 3.18344 17.5936 3.19105 18.2158 3.19238C18.3734 3.19273 18.5133 3.1925 18.5967 3.19629C20.1338 3.25643 22.1863 2.59365 23.6797 2.10352L23.832 2.05273C24.4647 1.84473 25.056 1.7186 25.6816 1.58496C26.1154 1.49222 26.5644 1.39582 27.0303 1.27051C27.1511 1.23769 27.2565 1.17947 27.3496 1.12793C27.3999 1.10013 27.4769 1.05817 27.501 1.05273C27.512 1.04937 27.5552 1.06244 27.583 1.06934C27.7323 1.10761 27.9836 1.16996 28.2939 0.984375C28.3047 0.977872 28.3149 0.972313 28.3242 0.966797C28.3834 0.970879 28.4558 0.969415 28.5498 0.958984C28.7073 0.940845 28.8385 0.873818 28.9434 0.820312C28.9803 0.801127 29.036 0.771556 29.0566 0.766602C31.8326 0.171132 34.3379 0.365344 36.502 1.34277C36.7329 1.44691 36.9829 1.55188 37.2344 1.65723C37.5352 1.78302 37.8375 1.90959 38.1064 2.03613C38.23 2.0942 38.4388 2.14804 38.7666 2.23047C38.8506 2.25169 38.956 2.27837 39.0469 2.30273C39.1144 2.48656 39.2582 2.56433 39.332 2.59375C39.4791 2.65144 39.6431 2.66627 39.8164 2.68164C39.9489 2.69356 40.0995 2.70781 40.1816 2.74023C40.249 2.76648 40.2713 2.78915 40.3301 2.84863C40.4963 3.01638 40.6832 3.17113 41.1406 3.21875C41.8141 3.2888 42.4552 3.35418 43.1455 3.41309C43.8125 3.47073 44.3545 3.48283 44.9893 3.36523C46.1532 3.14949 47.2904 2.78763 48.3447 2.42871C48.472 2.38569 48.5739 2.31411 48.6562 2.25684C48.6913 2.2325 48.7451 2.19595 48.7529 2.19141C48.7869 2.18766 48.8754 2.20237 48.9229 2.20996C49.057 2.23115 49.1964 2.25255 49.3428 2.16504C49.4558 2.09775 49.5166 1.99794 49.5732 1.89746C49.6125 1.89319 49.6727 1.89509 49.7207 1.89551C49.8237 1.89692 49.9537 1.89931 50.0918 1.86816C50.3147 1.8177 50.4959 1.68224 50.6553 1.5625C50.746 1.49402 50.8591 1.40884 50.918 1.39551C51.5045 1.25792 52.162 1.128 52.9863 0.986328C54.3053 0.759612 55.7573 0.735764 57.5557 0.911133C57.7808 0.933094 57.9956 0.950097 58.2051 0.966797C58.9115 1.02225 59.5219 1.07138 60.2578 1.28516C60.4635 1.34441 60.6722 1.40314 60.8818 1.46191C61.4472 1.62139 62.0321 1.78684 62.5811 1.97852C63.2898 2.22601 64.006 2.35393 64.6973 2.47754C65.0271 2.53636 65.3568 2.59633 65.6846 2.66797C65.8683 2.70855 65.9877 2.74026 66.0781 2.76465C66.397 2.85008 66.4751 2.85971 67.0908 2.81836C67.6472 2.78162 69.0279 2.65794 69.8184 2.30957C70.3092 2.09328 70.4123 2.06561 70.9092 1.93555L71.042 1.90137C71.4926 1.78311 71.9016 1.65655 72.2988 1.5332C72.9949 1.31752 73.6526 1.11324 74.4375 0.991211C74.7546 0.942124 75.0597 0.816823 75.3047 0.716797C75.4513 0.656474 75.603 0.594792 75.6875 0.579102C75.7278 0.573332 75.8436 0.593967 75.9209 0.606445C76.0888 0.634609 76.2646 0.663726 76.4346 0.631836C76.5901 0.603881 76.7523 0.529963 76.9082 0.458984C77.0228 0.407168 77.1524 0.347382 77.2344 0.330078C78.0016 0.165824 79.0312 0.0568293 80 0V1.41797Z" fill="black"/>
</svg>
