<svg width="66" height="5" viewBox="0 0 66 5" fill="none" xmlns="http://www.w3.org/2000/svg">
<path d="M29.0566 0.337097C31.8325 -0.258355 34.3379 -0.064127 36.502 0.913269C36.7328 1.0174 36.9829 1.12239 37.2344 1.22772C37.5352 1.3535 37.8375 1.4801 38.1064 1.60663C38.23 1.66469 38.4389 1.71854 38.7666 1.80096C38.8506 1.82219 38.956 1.84886 39.0469 1.87323C39.1144 2.057 39.2582 2.13481 39.332 2.16425C39.479 2.22194 39.6431 2.23677 39.8164 2.25214C39.9489 2.26405 40.0995 2.27832 40.1816 2.31073C40.249 2.33696 40.2714 2.35973 40.3301 2.41913C40.4963 2.58687 40.6832 2.74162 41.1406 2.78925C41.8141 2.85929 42.4552 2.92468 43.1455 2.98358C43.8125 3.04122 44.3545 3.05333 44.9893 2.93573C46.1531 2.71998 47.2904 2.35812 48.3447 1.99921C48.472 1.95618 48.5739 1.8846 48.6562 1.82733C48.6913 1.80299 48.7451 1.76645 48.7529 1.7619C48.7869 1.75816 48.8754 1.77286 48.9229 1.78046C49.057 1.80164 49.1964 1.82304 49.3428 1.73553C49.4557 1.66824 49.5166 1.56841 49.5732 1.46796C49.6125 1.46369 49.6727 1.46558 49.7207 1.466C49.8237 1.46741 49.9537 1.4698 50.0918 1.43866C50.3147 1.38819 50.4959 1.25273 50.6553 1.133C50.746 1.06453 50.8591 0.979331 50.918 0.966003C51.5045 0.828422 52.162 0.698492 52.9863 0.556823C54.3053 0.330113 55.7573 0.306263 57.5557 0.481628C57.7807 0.503589 57.9956 0.520592 58.2051 0.537292C58.9115 0.592739 59.5219 0.641888 60.2578 0.855652C60.4635 0.914896 60.6722 0.973643 60.8818 1.03241C61.4472 1.19187 62.0321 1.35735 62.5811 1.54901C63.2898 1.7965 64.006 1.92443 64.6973 2.04803C65.0271 2.10686 65.3568 2.16683 65.6846 2.23846C65.8201 2.26839 65.9203 2.29471 66 2.31561V3.9787C65.6068 3.94251 65.2165 3.88382 64.8262 3.79999C63.9923 3.62071 63.1678 3.32083 62.2949 3.00311C61.4431 2.69331 60.5614 2.37214 59.6729 2.17596C57.1355 1.61578 54.3728 1.65945 52.1045 2.29218C52.0559 2.29997 51.988 2.29462 51.9316 2.29413C51.8102 2.28999 51.7248 2.28964 51.6279 2.32928C51.5035 2.3804 51.4338 2.4722 51.3877 2.53339C51.3535 2.57869 51.3307 2.60636 51.3086 2.61444C51.2432 2.63695 51.1717 2.64089 51.0811 2.64471C50.9795 2.64947 50.8529 2.65531 50.7119 2.69257C50.5056 2.74773 50.3122 2.87921 50.1416 2.99628C50.068 3.04672 49.9564 3.12427 49.916 3.13885C49.3724 3.30659 48.8117 3.45977 48.2471 3.61346C47.9154 3.70349 47.5808 3.79422 47.248 3.88885C47.0815 3.93621 46.8677 4.03447 46.6611 4.12909C46.5305 4.18892 46.3319 4.27949 46.2793 4.29217C43.5446 4.70421 41.2151 4.46937 39.1553 3.57343C38.9908 3.5017 38.8165 3.39948 38.6318 3.2912C38.2851 3.08851 37.8925 2.85872 37.459 2.78046C37.4277 2.77456 37.3975 2.77291 37.3682 2.77264C37.2972 2.77203 37.2307 2.78465 37.165 2.80096C37.1203 2.76003 37.0608 2.70118 37.0205 2.66034C36.8767 2.51642 36.7407 2.37973 36.585 2.31268C36.4182 2.24105 36.2601 2.2283 36.1328 2.21796C36.0608 2.21271 35.9917 2.20686 35.9482 2.19159L35.7285 2.11444C34.7964 1.78596 34.2334 1.58773 33.1084 1.45624C31.5946 1.27927 30.0795 1.60716 28.6143 1.92499C28.2425 2.00541 27.8707 2.08667 27.501 2.15839C26.0722 2.436 24.6582 2.8116 23.292 3.17499C22.2425 3.45379 21.1576 3.74212 20.0908 3.9787L19.8721 4.02753C19.1342 4.1936 18.4376 4.35132 17.7695 4.21405C17.7515 4.20414 17.7357 4.19034 17.7197 4.17792C17.6477 4.12239 17.5385 4.03936 17.3828 4.00311C17.1954 3.95941 16.9926 3.9705 16.7969 3.98163C16.6166 3.99236 16.4299 4.00329 16.3115 3.966C16.0197 3.87361 15.7577 3.74215 15.4814 3.6037C15.3459 3.53587 15.2078 3.46694 15.0635 3.40057C14.411 3.10072 13.5476 2.91398 12.7861 2.74921C12.5431 2.6963 12.3079 2.64512 12.0918 2.59296C12.0063 2.57272 11.8999 2.54507 11.7832 2.51483C11.3542 2.40378 10.8191 2.26511 10.498 2.25409C10.3252 2.24245 10.1217 2.29315 9.9043 2.341C9.75009 2.37456 9.57466 2.41296 9.46875 2.41718C9.097 2.43292 8.7499 2.43319 8.41113 2.4328C7.63989 2.43223 6.91086 2.43062 6.03613 2.6037C4.46551 2.91394 2.80851 3.27642 1.31836 3.97186C1.13761 3.9985 0.541904 3.98586 0.274414 3.95428C0.230975 3.89101 0.182325 3.84119 0.130859 3.80487C0.0989286 3.70045 0.0545948 3.58016 0 3.43866C0.0306727 3.39689 0.0551664 3.34824 0.0722656 3.2951C0.0911676 3.23615 0.0976359 3.17874 0.0966797 3.12518C0.670856 2.78162 1.31411 2.4789 1.97656 2.24237C2.91834 1.90668 3.92114 1.72028 4.59277 1.60858C5.61982 1.43839 6.45822 1.31759 7.46387 1.24628C7.66011 1.23258 7.85866 1.16944 8.0332 1.11346C8.13103 1.08198 8.26595 1.03794 8.31543 1.03632C11.0329 0.931212 13.2373 1.1801 14.8633 1.7785C14.9283 1.80272 15.0632 1.88436 15.1719 1.9494C15.3555 2.06022 15.5292 2.16537 15.6895 2.21307C15.8836 2.27123 16.0844 2.29344 16.2783 2.31464C16.4471 2.33251 16.6068 2.35005 16.7188 2.38788C16.7396 2.3952 16.7796 2.43676 16.8145 2.47284C16.8878 2.54945 16.9896 2.6547 17.1445 2.70331C17.3054 2.75393 17.5936 2.76155 18.2158 2.76288C18.3734 2.76323 18.5133 2.763 18.5967 2.76678C20.1338 2.82692 22.1863 2.16414 23.6797 1.67401L23.832 1.62323C24.4647 1.41524 25.056 1.28909 25.6816 1.15546C26.1154 1.06272 26.5644 0.966312 27.0303 0.841003C27.1511 0.808178 27.2565 0.749954 27.3496 0.698425C27.3999 0.670624 27.4769 0.628661 27.501 0.62323C27.5121 0.619923 27.5553 0.632943 27.583 0.639831C27.7323 0.678108 27.9836 0.740456 28.2939 0.55487C28.3046 0.548391 28.315 0.542793 28.3242 0.537292C28.3834 0.541375 28.4558 0.539911 28.5498 0.52948C28.7073 0.511336 28.8385 0.444311 28.9434 0.390808C28.9803 0.371621 29.036 0.342048 29.0566 0.337097Z" fill="black"/>
</svg>
