<svg width="11" height="3" viewBox="0 0 11 3" fill="none" xmlns="http://www.w3.org/2000/svg">
<path d="M8.31543 0.0232058C9.27527 -0.0139173 10.1711 -0.00631699 11 0.0446901V1.31324C10.8103 1.27422 10.6348 1.24567 10.498 1.24098C10.3252 1.22934 10.1217 1.28005 9.9043 1.32789C9.7501 1.36145 9.57465 1.39985 9.46875 1.40407C9.09701 1.41981 8.7499 1.42008 8.41113 1.41969C7.6399 1.41912 6.91085 1.41752 6.03613 1.59059C4.46555 1.90083 2.80847 2.26333 1.31836 2.95875C1.13758 2.98538 0.5419 2.97275 0.274414 2.94117C0.231026 2.878 0.182254 2.82805 0.130859 2.79176C0.0989475 2.68743 0.0545318 2.56689 0 2.42555C0.0305942 2.38386 0.0551842 2.335 0.0722656 2.28199C0.0911023 2.22318 0.0976118 2.16552 0.0966797 2.11207C0.670816 1.76854 1.31416 1.46578 1.97656 1.22926C2.91831 0.893589 3.92115 0.707168 4.59277 0.595471C5.6198 0.425288 6.45824 0.304475 7.46387 0.233167C7.66008 0.219472 7.85868 0.156326 8.0332 0.100354C8.13102 0.0688724 8.26595 0.0248295 8.31543 0.0232058Z" fill="black"/>
</svg>
