<svg width="45" height="5" viewBox="0 0 45 5" fill="none" xmlns="http://www.w3.org/2000/svg">
<path d="M29.0566 0.337083C31.8325 -0.258355 34.338 -0.0641125 36.502 0.913255C36.7328 1.01738 36.9829 1.12238 37.2344 1.22771C37.5351 1.35348 37.8375 1.48009 38.1064 1.60661C38.23 1.66467 38.4389 1.71853 38.7666 1.80095C38.8505 1.82217 38.956 1.84885 39.0469 1.87322C39.1143 2.05694 39.2582 2.13477 39.332 2.16423C39.479 2.22192 39.6431 2.23675 39.8164 2.25212C39.9489 2.26404 40.0994 2.27832 40.1816 2.31072C40.249 2.33693 40.2715 2.35977 40.3301 2.41911C40.4963 2.58685 40.6833 2.7416 41.1406 2.78923C41.8141 2.85928 42.4553 2.92467 43.1455 2.98357C43.8125 3.04121 44.3545 3.05331 44.9893 2.93572C44.9929 2.93504 44.9964 2.93346 45 2.93279V4.43767C42.8076 4.61009 40.8863 4.32635 39.1553 3.57341C38.9908 3.50168 38.8165 3.39945 38.6318 3.29118C38.2851 3.08851 37.8925 2.8587 37.459 2.78044C37.4277 2.77455 37.3975 2.77289 37.3682 2.77263C37.2972 2.77201 37.2307 2.78464 37.165 2.80095C37.1203 2.76002 37.0607 2.70114 37.0205 2.66033C36.8767 2.51644 36.7407 2.3797 36.585 2.31267C36.4182 2.24106 36.2601 2.22828 36.1328 2.21794C36.0608 2.21269 35.9917 2.20684 35.9482 2.19158L35.7285 2.11443C34.7965 1.78596 34.2334 1.58772 33.1084 1.45622C31.5946 1.27927 30.0795 1.60715 28.6143 1.92497C28.2425 2.00539 27.8707 2.08665 27.501 2.15837C26.0723 2.43598 24.6582 2.81159 23.292 3.17497C22.2425 3.45377 21.1576 3.74211 20.0908 3.97868L19.8721 4.02751C19.1342 4.19359 18.4376 4.35131 17.7695 4.21404C17.7516 4.20413 17.7357 4.19031 17.7197 4.1779C17.6477 4.12238 17.5384 4.03934 17.3828 4.0031C17.1955 3.9594 16.9925 3.97049 16.7969 3.98161C16.6166 3.99234 16.4299 4.00327 16.3115 3.96599C16.0197 3.87359 15.7577 3.74213 15.4814 3.60368C15.346 3.53587 15.2078 3.46691 15.0635 3.40056C14.4111 3.10073 13.5475 2.91396 12.7861 2.74919C12.5431 2.69629 12.3079 2.6451 12.0918 2.59294C12.0063 2.57271 11.8999 2.54505 11.7832 2.51482C11.3542 2.40377 10.8191 2.26509 10.498 2.25408C10.3252 2.24244 10.1217 2.29314 9.9043 2.34099C9.75009 2.37455 9.57466 2.41295 9.46875 2.41716C9.097 2.43291 8.7499 2.43318 8.41113 2.43279C7.6399 2.43222 6.91085 2.43061 6.03613 2.60368C4.46554 2.91393 2.80849 3.27642 1.31836 3.97185C1.13761 3.99848 0.541904 3.98585 0.274414 3.95427C0.230995 3.89105 0.182295 3.84115 0.130859 3.80486C0.0989321 3.70047 0.0545681 3.58008 0 3.43865C0.0306354 3.3969 0.0551813 3.34818 0.0722656 3.29509C0.0911301 3.23619 0.0976351 3.17868 0.0966797 3.12517C0.670838 2.78162 1.31413 2.47888 1.97656 2.24236C2.91832 1.90668 3.92115 1.72026 4.59277 1.60857C5.61981 1.43838 6.45823 1.31757 7.46387 1.24626C7.6601 1.23257 7.85866 1.16943 8.0332 1.11345C8.13102 1.08197 8.26596 1.03792 8.31543 1.0363C11.0329 0.9312 13.2373 1.1801 14.8633 1.77849C14.9282 1.8027 15.0633 1.88435 15.1719 1.94939C15.3555 2.06019 15.5292 2.16535 15.6895 2.21306C15.8836 2.27122 16.0844 2.29342 16.2783 2.31462C16.447 2.3325 16.6068 2.35005 16.7188 2.38786C16.7396 2.39518 16.7796 2.43676 16.8145 2.47283C16.8878 2.54943 16.9896 2.65468 17.1445 2.70329C17.3054 2.75392 17.5936 2.76154 18.2158 2.76286C18.3734 2.76321 18.5133 2.76298 18.5967 2.76677C20.1338 2.82691 22.1863 2.16413 23.6797 1.674L23.832 1.62322C24.4647 1.41524 25.056 1.28907 25.6816 1.15544C26.1154 1.06271 26.5644 0.966295 27.0303 0.840989C27.1511 0.808162 27.2565 0.749934 27.3496 0.698411C27.3999 0.67061 27.4769 0.628644 27.501 0.623216C27.5121 0.619959 27.5553 0.632935 27.583 0.639817C27.7323 0.678094 27.9836 0.740441 28.2939 0.554856C28.3046 0.548396 28.315 0.542766 28.3242 0.537278C28.3834 0.541361 28.4558 0.539897 28.5498 0.529466C28.7073 0.511319 28.8385 0.444295 28.9434 0.390794C28.9803 0.371606 29.0361 0.342031 29.0566 0.337083Z" fill="black"/>
</svg>
